<?xml version="1.0" encoding="UTF-8"?>
<svg id="Layer_1" data-name="Layer 1" xmlns="http://www.w3.org/2000/svg" viewBox="0 0 1920 1080">
  <defs>
    <style>
      .cls-1, .cls-2 {
        font-family: MyriadPro-Regular, 'Myriad Pro';
        font-size: 20px;
      }

      .cls-3 {
        fill: #ccc;
      }

      .cls-4 {
        fill: #ed1c24;
      }

      .cls-5 {
        letter-spacing: 0em;
      }

      .cls-6 {
        fill: #39b54a;
      }

      .cls-7, .cls-2 {
        fill: #666;
      }

      .cls-8 {
        letter-spacing: 0em;
      }

      .cls-9 {
        fill: #f2f2f2;
      }

      .cls-10 {
        fill: #b3b3b3;
      }

      .cls-11 {
        letter-spacing: -.05em;
      }

      .cls-12 {
        fill: #fbb03b;
      }

      .cls-13 {
        fill: none;
        stroke: #999;
        stroke-miterlimit: 10;
      }

      .cls-14 {
        letter-spacing: -.02em;
      }

      .cls-15 {
        letter-spacing: -.03em;
      }

      .cls-16 {
        letter-spacing: 0em;
      }

      .cls-17 {
        letter-spacing: 0em;
      }

      .cls-18 {
        letter-spacing: 0em;
      }

      .cls-19 {
        letter-spacing: 0em;
      }

      .cls-20 {
        letter-spacing: 0em;
      }

      .cls-21 {
        letter-spacing: -.01em;
      }

      .cls-22 {
        letter-spacing: -.01em;
      }

      .cls-23 {
        letter-spacing: -.01em;
      }

      .cls-24 {
        letter-spacing: 0em;
      }

      .cls-25 {
        letter-spacing: 0em;
      }

      .cls-26 {
        letter-spacing: 0em;
      }

      .cls-27 {
        letter-spacing: .02em;
      }

      .cls-28 {
        letter-spacing: .02em;
      }

      .cls-29 {
        letter-spacing: .03em;
      }

      .cls-30 {
        letter-spacing: 0em;
      }

      .cls-31 {
        letter-spacing: 0em;
      }

      .cls-32 {
        letter-spacing: 0em;
      }

      .cls-33 {
        letter-spacing: .01em;
      }

      .cls-34 {
        letter-spacing: .01em;
      }

      .cls-35 {
        letter-spacing: 0em;
      }
    </style>
  </defs>
  <polygon class="cls-10" points="1831.16 1173.05 152.74 1173.05 255.15 780.53 1728.75 780.53 1831.16 1173.05"/>
  <g>
    <path class="cls-10" d="M266.52,767.05V47.05c0-18.51,15.06-33.56,33.56-33.56h1383.73c18.51,0,33.56,15.06,33.56,33.56v720H266.52Z"/>
    <path d="M1683.81,26.97c11.07,0,20.08,9.01,20.08,20.08v706.51H280.01V47.05c0-11.07,9.01-20.08,20.08-20.08h1383.73M1683.81,0H300.08C274.1,0,253.03,21.06,253.03,47.05v733.48h1477.83V47.05C1730.86,21.06,1709.8,0,1683.81,0h0Z"/>
  </g>
  <g>
    <rect class="cls-9" x="661.81" y="82.41" width="648.33" height="648.33" rx="22.06" ry="22.06"/>
    <path d="M1288.08,82.91c11.89,0,21.56,9.67,21.56,21.56v604.21c0,11.89-9.67,21.56-21.56,21.56h-604.21c-11.89,0-21.56-9.67-21.56-21.56V104.47c0-11.89,9.67-21.56,21.56-21.56h604.21M1288.08,81.91h-604.21c-12.46,0-22.56,10.1-22.56,22.56v604.21c0,12.46,10.1,22.56,22.56,22.56h604.21c12.46,0,22.56-10.1,22.56-22.56V104.47c0-12.46-10.1-22.56-22.56-22.56h0Z"/>
  </g>
  <g>
    <path class="cls-3" d="M661.81,132.32v-26.61c0-12.85,10.45-23.3,23.3-23.3h601.73c12.85,0,23.3,10.45,23.3,23.3v26.61h-648.33Z"/>
    <path d="M1286.84,82.91c12.57,0,22.8,10.23,22.8,22.8v26.1h-647.32v-26.1c0-12.57,10.23-22.8,22.8-22.8h601.73M1286.84,81.91h-601.73c-13.15,0-23.8,10.66-23.8,23.8v27.11h649.33v-27.11c0-13.14-10.66-23.8-23.8-23.8h0Z"/>
  </g>
  <g>
    <circle class="cls-4" cx="699.39" cy="110.12" r="11.11"/>
    <path class="cls-4" d="M699.39,99.01c-6.14,0-11.11,4.98-11.11,11.11s4.98,11.11,11.11,11.11,11.11-4.98,11.11-11.11-4.98-11.11-11.11-11.11h0Z"/>
  </g>
  <g>
    <circle class="cls-12" cx="735.18" cy="110.12" r="11.11"/>
    <path class="cls-12" d="M735.18,99.01c-6.14,0-11.11,4.98-11.11,11.11s4.98,11.11,11.11,11.11,11.11-4.98,11.11-11.11-4.98-11.11-11.11-11.11h0Z"/>
  </g>
  <g>
    <circle class="cls-6" cx="770.96" cy="110.12" r="11.11"/>
    <path class="cls-6" d="M770.96,99.01c-6.14,0-11.11,4.98-11.11,11.11s4.98,11.11,11.11,11.11,11.11-4.98,11.11-11.11-4.98-11.11-11.11-11.11h0Z"/>
  </g>
  <line class="cls-13" x1="688.28" y1="178.67" x2="1279.07" y2="178.67"/>
  <line class="cls-13" x1="690.58" y1="224.52" x2="1281.37" y2="224.52"/>
  <line class="cls-13" x1="688.28" y1="270.37" x2="1279.07" y2="270.37"/>
  <line class="cls-13" x1="690.58" y1="316.22" x2="1281.37" y2="316.22"/>
  <text class="cls-2" transform="translate(688.28 165.11)"><tspan class="cls-22" x="0" y="0">T</tspan><tspan x="9.7" y="0">il:</tspan></text>
  <text class="cls-2" transform="translate(688.28 210.84)"><tspan class="cls-21" x="0" y="0">C</tspan><tspan x="11.38" y="0">c:</tspan></text>
  <text class="cls-2" transform="translate(688.28 260.31)"><tspan x="0" y="0">Emne:</tspan></text>
  <text class="cls-2" transform="translate(688.28 306.16)"><tspan class="cls-15" x="0" y="0">F</tspan><tspan class="cls-18" x="9.22" y="0">r</tspan><tspan x="15.66" y="0">a:</tspan></text>
  <g>
    <g>
      <polygon class="cls-10" points="1225.74 102.4 1258.94 98.21 1236.26 108.97 1225.74 102.4"/>
      <path class="cls-7" d="M1257.03,98.77l-20.75,9.85-9.63-6.01,30.38-3.83M1260.85,97.65l-36.03,4.55,11.42,7.13,24.61-11.68h0Z"/>
    </g>
    <g>
      <polygon class="cls-10" points="1236.53 109.54 1259.2 98.78 1234.92 121.75 1236.53 109.54"/>
      <path class="cls-7" d="M1257.55,99.91l-22.21,21.01,1.47-11.17,20.73-9.84M1260.85,97.65l-24.61,11.68-1.75,13.25,26.35-24.93h0Z"/>
    </g>
  </g>
  <text class="cls-1" transform="translate(703.62 362.02)"><tspan x="0" y="0">Hej </tspan><tspan class="cls-16" x="32.16" y="0">K</tspan><tspan x="42.88" y="0">unde </tspan><tspan x="0" y="48">Jeg s</tspan><tspan class="cls-27" x="40.76" y="48">k</tspan><tspan x="50.5" y="48">al </tspan><tspan class="cls-24" x="69.1" y="48">v</tspan><tspan class="cls-5" x="78.52" y="48">enligst bede dig be</tspan><tspan class="cls-28" x="238.72" y="48">k</tspan><tspan class="cls-18" x="248.44" y="48">r</tspan><tspan class="cls-8" x="254.88" y="48">æ</tspan><tspan class="cls-33" x="270.34" y="48">f</tspan><tspan class="cls-16" x="276.4" y="48">t</tspan><tspan x="282.9" y="48">e disse opl</tspan><tspan class="cls-16" x="370.29" y="48">y</tspan><tspan x="379.59" y="48">sninge</tspan><tspan class="cls-11" x="435.59" y="48">r</tspan><tspan x="441.07" y="48">, </tspan><tspan x="0" y="72">så jeg </tspan><tspan class="cls-27" x="52.1" y="72">k</tspan><tspan x="61.84" y="72">an op</tspan><tspan class="cls-24" x="109.18" y="72">r</tspan><tspan class="cls-5" x="115.52" y="72">et</tspan><tspan class="cls-16" x="132.16" y="72">t</tspan><tspan x="138.66" y="72">e dig i </tspan><tspan class="cls-23" x="193.22" y="72">v</tspan><tspan class="cls-8" x="202.63" y="72">o</tspan><tspan class="cls-23" x="213.62" y="72">r</tspan><tspan x="219.96" y="72">es s</tspan><tspan class="cls-17" x="250.05" y="72">y</tspan><tspan x="259.35" y="72">s</tspan><tspan class="cls-16" x="267.27" y="72">t</tspan><tspan x="273.77" y="72">em.</tspan><tspan x="0" y="120">N</tspan><tspan class="cls-26" x="13.16" y="120">a</tspan><tspan class="cls-8" x="22.64" y="120">vn: </tspan><tspan class="cls-16" x="51.74" y="120">K</tspan><tspan x="62.46" y="120">unde </tspan><tspan class="cls-16" x="110.12" y="120">K</tspan><tspan x="120.84" y="120">undesen</tspan><tspan x="0" y="144">CPR: 123456-7890</tspan><tspan class="cls-14" x="0" y="168">P</tspan><tspan class="cls-32" x="10.32" y="168">r</tspan><tspan x="16.94" y="168">i</tspan><tspan class="cls-20" x="21.62" y="168">va</tspan><tspan x="40.72" y="168">t </tspan><tspan class="cls-29" x="51.58" y="168">e</tspan><tspan x="62.16" y="168">-mail: n</tspan><tspan class="cls-25" x="123.5" y="168">a</tspan><tspan x="132.98" y="168">vn.e</tspan><tspan class="cls-33" x="167.86" y="168">f</tspan><tspan class="cls-16" x="173.92" y="168">t</tspan><tspan x="180.42" y="168">e</tspan><tspan class="cls-32" x="190.44" y="168">r</tspan><tspan x="197.06" y="168">n</tspan><tspan class="cls-26" x="208.16" y="168">a</tspan><tspan x="217.64" y="168">vn@</tspan><tspan class="cls-17" x="253.1" y="168">g</tspan><tspan x="264.16" y="168">mai</tspan><tspan class="cls-23" x="295.16" y="168">l</tspan><tspan x="299.67" y="168">.</tspan><tspan class="cls-16" x="303.81" y="168">c</tspan><tspan x="312.65" y="168">om</tspan><tspan class="cls-32" x="0" y="192">R</tspan><tspan x="10.84" y="192">eli</tspan><tspan class="cls-16" x="30.26" y="192">g</tspan><tspan x="41.32" y="192">ion: Buddisme </tspan><tspan class="cls-30" x="0" y="216">S</tspan><tspan x="9.98" y="216">eksuel o</tspan><tspan class="cls-31" x="78.28" y="216">r</tspan><tspan x="84.9" y="216">ie</tspan><tspan class="cls-19" x="99.6" y="216">n</tspan><tspan class="cls-16" x="110.62" y="216">t</tspan><tspan x="117.12" y="216">e</tspan><tspan class="cls-32" x="127.14" y="216">r</tspan><tspan x="133.76" y="216">ing: Homoseksuel </tspan><tspan class="cls-34" x="0" y="240">R</tspan><tspan x="11" y="240">a</tspan><tspan class="cls-17" x="20.64" y="240">c</tspan><tspan x="29.48" y="240">e: </tspan><tspan class="cls-35" x="47.88" y="240">H</tspan><tspan x="61.1" y="240">vid </tspan><tspan class="cls-30" x="0" y="288">M</tspan><tspan x="16.2" y="288">ed </tspan><tspan class="cls-23" x="41.74" y="288">v</tspan><tspan x="51.16" y="288">enlig hilsen </tspan><tspan class="cls-30" x="0" y="312">M</tspan><tspan x="16.2" y="312">eda</tspan><tspan class="cls-31" x="47.14" y="312">r</tspan><tspan x="53.76" y="312">bejder 999</tspan></text>
  <polygon points="1213.66 1147.87 770.24 1147.87 796.3 1079.25 1187.6 1079.25 1213.66 1147.87"/>
  <g>
    <path d="M387.3,927.5c-1.96,8.6-2.94,12.9-4.9,21.5-.32,1.41-1.47,2.55-2.58,2.55-43.63,0-87.26,0-130.89,0-1.11,0-1.68-1.14-1.29-2.55,2.4-8.6,3.59-12.9,5.99-21.5.39-1.41,1.59-2.55,2.69-2.55,43.2,0,86.39,0,129.59,0,1.1,0,1.72,1.14,1.4,2.55Z"/>
    <path d="M1733.71,951.55h-65.91c-1.32,0-2.64-.96-2.94-2.14-2.25-8.93-3.38-13.4-5.63-22.33-.3-1.18.53-2.14,1.84-2.14,21.75,0,43.5,0,65.25,0,1.31,0,2.64.96,2.97,2.14,2.49,8.93,3.73,13.4,6.22,22.33.33,1.18-.48,2.14-1.8,2.14Z"/>
    <path d="M740.56,951.55h-65.91c-1.32,0-2.28-.96-2.14-2.14,1.07-8.93,1.6-13.4,2.67-22.33.14-1.18,1.32-2.14,2.63-2.14h65.25c1.31,0,2.29.96,2.18,2.14-.83,8.93-1.25,13.4-2.08,22.33-.11,1.18-1.27,2.14-2.6,2.14Z"/>
    <path d="M1011.42,951.55h-65.91c-1.33,0-2.38-.96-2.36-2.14.16-8.93.24-13.4.4-22.33.02-1.18,1.1-2.14,2.41-2.14h65.25c1.31,0,2.38.96,2.39,2.14.07,8.93.11,13.4.19,22.33.01,1.18-1.06,2.14-2.38,2.14Z"/>
    <path d="M921.13,951.55h-65.91c-1.32,0-2.35-.96-2.29-2.14.46-8.93.69-13.4,1.16-22.33.06-1.18,1.17-2.14,2.49-2.14h65.25c1.31,0,2.35.96,2.32,2.14-.23,8.93-.34,13.4-.57,22.33-.03,1.18-1.13,2.14-2.45,2.14Z"/>
    <path d="M830.85,951.55h-65.91c-1.33,0-2.32-.96-2.22-2.14.76-8.93,1.15-13.4,1.91-22.33.1-1.18,1.25-2.14,2.56-2.14h65.25c1.31,0,2.32.96,2.25,2.14-.53,8.93-.79,13.4-1.32,22.33-.07,1.18-1.2,2.14-2.53,2.14Z"/>
    <path d="M559.99,951.55h-65.91c-1.32,0-2.22-.96-2-2.14,1.67-8.93,2.5-13.4,4.17-22.33.22-1.18,1.46-2.14,2.77-2.14h65.25c1.31,0,2.22.96,2.03,2.14-1.43,8.93-2.15,13.4-3.58,22.33-.19,1.18-1.42,2.14-2.74,2.14Z"/>
    <path d="M650.28,951.55h-65.91c-1.32,0-2.25-.96-2.07-2.14,1.37-8.93,2.05-13.4,3.42-22.33.18-1.18,1.39-2.14,2.7-2.14,21.75,0,43.5,0,65.25,0,1.31,0,2.25.96,2.1,2.14-1.13,8.93-1.7,13.4-2.83,22.33-.15,1.18-1.34,2.14-2.67,2.14Z"/>
    <path d="M469.7,951.55h-65.91c-1.32,0-2.19-.96-1.93-2.14,1.97-8.93,2.96-13.4,4.93-22.33.26-1.18,1.53-2.14,2.85-2.14,21.75,0,43.5,0,65.25,0,1.31,0,2.19.96,1.96,2.14-1.74,8.93-2.6,13.4-4.34,22.33-.23,1.18-1.49,2.14-2.81,2.14Z"/>
    <path d="M1462.85,951.55h-65.91c-1.32,0-2.54-.96-2.72-2.14-1.35-8.93-2.02-13.4-3.37-22.33-.18-1.18.74-2.14,2.05-2.14h65.25c1.31,0,2.54.96,2.75,2.14,1.58,8.93,2.37,13.4,3.96,22.33.21,1.18-.7,2.14-2.02,2.14Z"/>
    <path d="M1553.14,951.55h-65.91c-1.32,0-2.58-.96-2.79-2.14-1.65-8.93-2.47-13.4-4.12-22.33-.22-1.18.67-2.14,1.98-2.14,21.75,0,43.5,0,65.25,0,1.31,0,2.58.96,2.83,2.14,1.88,8.93,2.82,13.4,4.71,22.33.25,1.18-.62,2.14-1.95,2.14Z"/>
    <path d="M1643.42,951.55c-21.97,0-43.94,0-65.91,0-1.32,0-2.61-.96-2.87-2.14-1.95-8.93-2.92-13.4-4.87-22.33-.26-1.18.6-2.14,1.91-2.14,21.75,0,43.5,0,65.25,0,1.31,0,2.61.96,2.9,2.14,2.19,8.93,3.28,13.4,5.46,22.33.29,1.18-.55,2.14-1.88,2.14Z"/>
    <path d="M1372.57,951.55h-65.91c-1.32,0-2.51-.96-2.65-2.14-1.05-8.93-1.57-13.4-2.61-22.33-.14-1.18.81-2.14,2.13-2.14h65.25c1.31,0,2.51.96,2.68,2.14,1.28,8.93,1.92,13.4,3.2,22.33.17,1.18-.77,2.14-2.09,2.14Z"/>
    <path d="M1191.99,951.55c-21.97,0-43.94,0-65.91,0-1.32,0-2.45-.96-2.51-2.14-.44-8.93-.66-13.4-1.1-22.33-.06-1.18.96-2.14,2.27-2.14,21.75,0,43.5,0,65.25,0,1.31,0,2.45.96,2.54,2.14.68,8.93,1.02,13.4,1.69,22.33.09,1.18-.91,2.14-2.24,2.14Z"/>
    <path d="M1282.28,951.55h-65.91c-1.32,0-2.48-.96-2.58-2.14-.74-8.93-1.12-13.4-1.86-22.33-.1-1.18.89-2.14,2.2-2.14h65.25c1.31,0,2.48.96,2.61,2.14.98,8.93,1.47,13.4,2.45,22.33.13,1.18-.84,2.14-2.16,2.14Z"/>
    <path d="M1101.71,951.55h-65.91c-1.32,0-2.41-.96-2.43-2.14-.14-8.93-.21-13.4-.35-22.33-.02-1.18,1.03-2.14,2.34-2.14h65.25c1.31,0,2.42.96,2.46,2.14.38,8.93.56,13.4.94,22.33.05,1.18-.98,2.14-2.31,2.14Z"/>
  </g>
  <g>
    <path d="M329.55,863.83h-64.72c-1.21,0-1.9-.89-1.56-1.98,2.4-7.59,3.59-11.39,5.99-18.99.34-1.09,1.59-1.98,2.79-1.98h64.08c1.19,0,1.91.89,1.6,1.98-2.17,7.6-3.25,11.39-5.42,18.99-.31,1.09-1.54,1.98-2.75,1.98Z"/>
    <path d="M1715.54,863.83h-64.72c-1.21,0-2.44-.89-2.75-1.98-2.17-7.59-3.25-11.39-5.42-18.99-.31-1.09.4-1.98,1.6-1.98h64.08c1.19,0,2.44.89,2.79,1.98,2.4,7.6,3.59,11.39,5.99,18.99.34,1.09-.35,1.98-1.56,1.98Z"/>
    <path d="M770.34,863.83h-64.72c-1.21,0-2.07-.89-1.94-1.98.94-7.59,1.42-11.39,2.36-18.99.14-1.09,1.21-1.98,2.41-1.98h64.08c1.19,0,2.08.89,1.98,1.98-.72,7.6-1.08,11.39-1.79,18.99-.1,1.09-1.16,1.98-2.37,1.98Z"/>
    <path d="M1034.82,863.83h-64.72c-1.21,0-2.17-.89-2.16-1.98.07-7.59.11-11.39.18-18.99.01-1.09.99-1.98,2.18-1.98h64.08c1.19,0,2.18.89,2.2,1.98.15,7.6.23,11.39.39,18.99.02,1.09-.94,1.98-2.14,1.98Z"/>
    <path d="M946.66,863.83h-64.72c-1.21,0-2.14-.89-2.09-1.98.36-7.59.55-11.39.91-18.99.05-1.09,1.06-1.98,2.26-1.98h64.08c1.19,0,2.15.89,2.13,1.98-.14,7.6-.2,11.39-.34,18.99-.02,1.09-1.01,1.98-2.22,1.98Z"/>
    <path d="M858.5,863.83c-21.57,0-43.15,0-64.72,0-1.21,0-2.11-.89-2.01-1.98.65-7.59.98-11.39,1.64-18.99.09-1.09,1.14-1.98,2.33-1.98h64.08c1.19,0,2.11.89,2.05,1.98-.43,7.6-.64,11.39-1.07,18.99-.06,1.09-1.09,1.98-2.29,1.98Z"/>
    <path d="M594.02,863.83h-64.72c-1.21,0-2.01-.89-1.79-1.98,1.53-7.59,2.29-11.39,3.81-18.99.22-1.09,1.36-1.98,2.56-1.98h64.08c1.19,0,2.01.89,1.82,1.98-1.3,7.6-1.95,11.39-3.24,18.99-.19,1.09-1.32,1.98-2.52,1.98Z"/>
    <path d="M682.18,863.83h-64.72c-1.21,0-2.04-.89-1.86-1.98,1.24-7.59,1.85-11.39,3.09-18.99.18-1.09,1.29-1.98,2.48-1.98h64.08c1.19,0,2.04.89,1.9,1.98-1.01,7.6-1.51,11.39-2.52,18.99-.14,1.09-1.24,1.98-2.45,1.98Z"/>
    <path d="M505.86,863.83h-64.72c-1.21,0-1.97-.89-1.71-1.98,1.82-7.59,2.72-11.39,4.54-18.99.26-1.09,1.44-1.98,2.63-1.98,21.36,0,42.72,0,64.08,0,1.19,0,1.98.89,1.75,1.98-1.59,7.6-2.38,11.39-3.97,18.99-.23,1.09-1.39,1.98-2.6,1.98Z"/>
    <path d="M417.71,863.83c-21.57,0-43.15,0-64.72,0-1.21,0-1.94-.89-1.63-1.98,2.11-7.59,3.16-11.39,5.27-18.99.3-1.09,1.52-1.98,2.71-1.98h64.08c1.19,0,1.94.89,1.67,1.98-1.88,7.6-2.82,11.39-4.7,18.99-.27,1.09-1.47,1.98-2.67,1.98Z"/>
    <path d="M1475.61,863.83c-21.57,0-43.15,0-64.72,0-1.21,0-2.34-.89-2.54-1.98-1.38-7.59-2.07-11.39-3.45-18.99-.2-1.09.61-1.98,1.8-1.98h64.08c1.19,0,2.35.89,2.58,1.98,1.61,7.6,2.41,11.39,4.02,18.99.23,1.09-.56,1.98-1.77,1.98Z"/>
    <g>
      <path d="M1563.77,863.83h-64.72c-1.21,0-2.38-.89-2.62-1.98-1.67-7.59-2.5-11.39-4.17-18.99-.24-1.09.53-1.98,1.73-1.98,21.36,0,42.72,0,64.08,0,1.19,0,2.38.89,2.66,1.98,1.9,7.6,2.84,11.39,4.74,18.99.27,1.09-.48,1.98-1.69,1.98Z"/>
      <path d="M1627.38,863.83c-21.57,0-43.15,0-64.72,0-1.21,0-2.4-.89-2.67-1.98-1.88-7.59-2.82-11.39-4.7-18.99-.27-1.09.48-1.98,1.67-1.98h64.08c1.19,0,2.41.89,2.71,1.98,2.11,7.6,3.16,11.39,5.26,18.99.3,1.09-.43,1.98-1.64,1.98Z"/>
    </g>
    <path d="M1387.45,863.83h-64.72c-1.21,0-2.31-.89-2.47-1.98-1.09-7.59-1.63-11.39-2.72-18.99-.16-1.09.68-1.98,1.88-1.98h64.08c1.19,0,2.32.89,2.5,1.98,1.32,7.6,1.97,11.39,3.29,18.99.19,1.09-.64,1.98-1.84,1.98Z"/>
    <path d="M1211.13,863.83c-21.57,0-43.15,0-64.72,0-1.21,0-2.24-.89-2.32-1.98-.51-7.59-.76-11.39-1.27-18.99-.07-1.09.83-1.98,2.03-1.98h64.08c1.19,0,2.25.89,2.35,1.98.74,7.6,1.1,11.39,1.84,18.99.11,1.09-.79,1.98-1.99,1.98Z"/>
    <path d="M1299.29,863.83h-64.72c-1.21,0-2.28-.89-2.39-1.98-.8-7.59-1.2-11.39-1.99-18.99-.11-1.09.76-1.98,1.95-1.98h64.08c1.19,0,2.28.89,2.43,1.98,1.03,7.6,1.54,11.39,2.56,18.99.15,1.09-.71,1.98-1.92,1.98Z"/>
    <path d="M1122.98,863.83h-64.72c-1.21,0-2.21-.89-2.24-1.98-.22-7.59-.33-11.39-.54-18.99-.03-1.09.91-1.98,2.1-1.98h64.08c1.19,0,2.21.89,2.28,1.98.45,7.6.67,11.39,1.11,18.99.06,1.09-.86,1.98-2.07,1.98Z"/>
  </g>
  <g>
    <path d="M343.51,821.83h-64.19c-1.06,0-1.62-.75-1.24-1.67,2.3-5.61,3.45-8.41,5.76-14.02.38-.92,1.54-1.67,2.59-1.67h63.55c1.05,0,1.63.75,1.29,1.67-2.09,5.61-3.13,8.41-5.21,14.02-.34.92-1.48,1.67-2.55,1.67Z"/>
    <path d="M1708.55,821.83c-21.4,0-42.79,0-64.19,0-1.06,0-2.21-.75-2.55-1.67-2.08-5.61-3.13-8.41-5.21-14.02-.34-.92.23-1.67,1.29-1.67h63.55c1.05,0,2.21.75,2.59,1.67,2.3,5.61,3.46,8.41,5.76,14.02.38.92-.18,1.67-1.24,1.67Z"/>
    <path d="M770.08,821.83c-21.4,0-42.79,0-64.19,0-1.06,0-1.8-.75-1.65-1.67.93-5.61,1.4-8.41,2.33-14.02.15-.92,1.13-1.67,2.19-1.67h63.55c1.05,0,1.81.75,1.7,1.67-.71,5.61-1.07,8.41-1.78,14.02-.12.92-1.08,1.67-2.14,1.67Z"/>
    <path d="M1026.03,821.83c-21.4,0-42.79,0-64.19,0-1.06,0-1.91-.75-1.89-1.67.11-5.61.16-8.41.27-14.02.02-.92.89-1.67,1.94-1.67h63.55c1.05,0,1.92.75,1.94,1.67.11,5.61.16,8.41.27,14.02.02.92-.83,1.67-1.9,1.67Z"/>
    <path d="M940.71,821.83h-64.19c-1.06,0-1.88-.75-1.81-1.67.38-5.61.57-8.41.96-14.02.06-.92.97-1.67,2.02-1.67h63.55c1.05,0,1.89.75,1.86,1.67-.17,5.61-.25,8.41-.41,14.02-.03.92-.91,1.67-1.98,1.67Z"/>
    <path d="M855.4,821.83c-21.4,0-42.79,0-64.19,0-1.06,0-1.84-.75-1.73-1.67.66-5.61.99-8.41,1.65-14.02.11-.92,1.05-1.67,2.1-1.67h63.55c1.05,0,1.85.75,1.78,1.67-.44,5.61-.66,8.41-1.1,14.02-.07.92-.99,1.67-2.06,1.67Z"/>
    <path d="M599.45,821.83h-64.19c-1.06,0-1.73-.75-1.49-1.67,1.48-5.61,2.22-8.41,3.7-14.02.24-.92,1.3-1.67,2.35-1.67h63.55c1.05,0,1.74.75,1.53,1.67-1.26,5.61-1.89,8.41-3.16,14.02-.21.92-1.24,1.67-2.3,1.67Z"/>
    <path d="M684.77,821.83h-64.19c-1.06,0-1.77-.75-1.57-1.67,1.21-5.61,1.81-8.41,3.02-14.02.2-.92,1.21-1.67,2.27-1.67h63.55c1.05,0,1.78.75,1.61,1.67-.99,5.61-1.48,8.41-2.47,14.02-.16.92-1.16,1.67-2.22,1.67Z"/>
    <path d="M514.14,821.83c-21.4,0-42.79,0-64.19,0-1.06,0-1.69-.75-1.41-1.67,1.76-5.61,2.63-8.41,4.39-14.02.29-.92,1.38-1.67,2.43-1.67,21.18,0,42.37,0,63.55,0,1.05,0,1.7.75,1.45,1.67-1.54,5.61-2.3,8.41-3.84,14.02-.25.92-1.32,1.67-2.39,1.67Z"/>
    <path d="M428.83,821.83h-64.19c-1.06,0-1.66-.75-1.32-1.67,2.03-5.61,3.04-8.41,5.07-14.02.33-.92,1.46-1.67,2.51-1.67h63.55c1.05,0,1.67.75,1.37,1.67-1.81,5.61-2.72,8.41-4.53,14.02-.3.92-1.4,1.67-2.47,1.67Z"/>
    <path d="M1452.6,821.83c-21.4,0-42.79,0-64.19,0-1.06,0-2.1-.75-2.3-1.67-1.26-5.61-1.89-8.41-3.16-14.02-.21-.92.48-1.67,1.53-1.67h63.55c1.05,0,2.11.75,2.35,1.67,1.48,5.61,2.22,8.41,3.7,14.02.24.92-.42,1.67-1.49,1.67Z"/>
    <path d="M1537.92,821.83c-21.4,0-42.79,0-64.19,0-1.06,0-2.13-.75-2.38-1.67-1.54-5.61-2.31-8.41-3.84-14.02-.25-.92.4-1.67,1.45-1.67,21.18,0,42.36,0,63.55,0,1.05,0,2.14.75,2.43,1.67,1.75,5.61,2.63,8.41,4.39,14.02.29.92-.34,1.67-1.41,1.67Z"/>
    <path d="M1623.23,821.83c-21.4,0-42.79,0-64.19,0-1.06,0-2.17-.75-2.47-1.67-1.81-5.61-2.72-8.41-4.53-14.02-.3-.92.32-1.67,1.37-1.67h63.55c1.05,0,2.18.75,2.51,1.67,2.03,5.61,3.04,8.41,5.07,14.02.33.92-.26,1.67-1.32,1.67Z"/>
    <path d="M1367.29,821.83h-64.19c-1.06,0-2.06-.75-2.22-1.67-.99-5.61-1.48-8.41-2.47-14.02-.16-.92.56-1.67,1.61-1.67h63.55c1.05,0,2.07.75,2.27,1.67,1.21,5.61,1.81,8.41,3.02,14.02.2.92-.5,1.67-1.57,1.67Z"/>
    <path d="M1196.66,821.83h-64.19c-1.06,0-1.99-.75-2.06-1.67-.44-5.61-.66-8.41-1.1-14.02-.07-.92.72-1.67,1.78-1.67h63.55c1.05,0,2,.75,2.1,1.67.66,5.61.99,8.41,1.65,14.02.11.92-.67,1.67-1.73,1.67Z"/>
    <path d="M1281.97,821.83h-64.19c-1.06,0-2.02-.75-2.14-1.67-.71-5.61-1.07-8.41-1.78-14.02-.12-.92.64-1.67,1.7-1.67h63.55c1.05,0,2.03.75,2.19,1.67.93,5.61,1.4,8.41,2.33,14.02.15.92-.59,1.67-1.65,1.67Z"/>
    <path d="M1111.34,821.83h-64.19c-1.06,0-1.95-.75-1.98-1.67-.16-5.61-.25-8.41-.41-14.02-.03-.92.81-1.67,1.86-1.67h63.55c1.05,0,1.96.75,2.02,1.67.38,5.61.58,8.41.96,14.02.06.92-.75,1.67-1.81,1.67Z"/>
  </g>
  <g>
    <path d="M323.98,903.94h-65.77c-1.08,0-1.65-1.18-1.26-2.63,2.36-8.77,3.53-13.15,5.89-21.92.39-1.45,1.58-2.63,2.65-2.63,21.7,0,43.41,0,65.11,0,1.07,0,1.66,1.18,1.3,2.63-2.13,8.77-3.2,13.15-5.33,21.92-.35,1.45-1.52,2.63-2.6,2.63Z"/>
    <path d="M1722.15,903.94c-21.92,0-43.84,0-65.77,0-1.08,0-2.25-1.18-2.6-2.63-2.13-8.77-3.2-13.15-5.33-21.92-.35-1.45.23-2.63,1.3-2.63,21.7,0,43.41,0,65.11,0,1.07,0,2.26,1.18,2.65,2.63,2.36,8.77,3.54,13.15,5.89,21.92.39,1.45-.17,2.63-1.26,2.63Z"/>
    <path d="M760.91,903.94c-21.92,0-43.84,0-65.77,0-1.08,0-1.83-1.18-1.68-2.63.95-8.77,1.43-13.15,2.38-21.92.16-1.45,1.16-2.63,2.23-2.63h65.11c1.07,0,1.84,1.18,1.72,2.63-.73,8.77-1.09,13.15-1.82,21.92-.12,1.45-1.1,2.63-2.18,2.63Z"/>
    <path d="M1023.07,903.94h-65.77c-1.08,0-1.95-1.18-1.93-2.63.11-8.77.17-13.15.28-21.92.02-1.45.9-2.63,1.98-2.63h65.11c1.07,0,1.96,1.18,1.98,2.63.11,8.77.17,13.15.28,21.92.02,1.45-.85,2.63-1.93,2.63Z"/>
    <path d="M935.68,903.94h-65.77c-1.08,0-1.91-1.18-1.84-2.63.39-8.77.59-13.15.98-21.92.07-1.45.99-2.63,2.06-2.63h65.11c1.07,0,1.92,1.18,1.89,2.63-.17,8.77-.25,13.15-.42,21.92-.03,1.45-.93,2.63-2.01,2.63Z"/>
    <path d="M848.3,903.94c-21.92,0-43.84,0-65.77,0-1.08,0-1.87-1.18-1.76-2.63.67-8.77,1.01-13.15,1.68-21.92.11-1.45,1.07-2.63,2.15-2.63h65.11c1.07,0,1.88,1.18,1.81,2.63-.45,8.77-.67,13.15-1.12,21.92-.07,1.45-1.01,2.63-2.1,2.63Z"/>
    <path d="M586.14,903.94c-21.92,0-43.84,0-65.77,0-1.08,0-1.76-1.18-1.51-2.63,1.52-8.77,2.27-13.15,3.79-21.92.25-1.45,1.32-2.63,2.4-2.63,21.7,0,43.41,0,65.11,0,1.07,0,1.77,1.18,1.56,2.63-1.29,8.77-1.94,13.15-3.23,21.92-.21,1.45-1.27,2.63-2.35,2.63Z"/>
    <path d="M673.52,903.94c-21.92,0-43.84,0-65.77,0-1.08,0-1.8-1.18-1.59-2.63,1.23-8.77,1.85-13.15,3.09-21.92.2-1.45,1.24-2.63,2.31-2.63h65.11c1.07,0,1.81,1.18,1.64,2.63-1.01,8.77-1.52,13.15-2.53,21.92-.17,1.45-1.18,2.63-2.27,2.63Z"/>
    <path d="M498.75,903.94c-21.92,0-43.84,0-65.77,0-1.08,0-1.72-1.18-1.42-2.63,1.8-8.77,2.69-13.15,4.49-21.92.3-1.45,1.41-2.63,2.48-2.63h65.11c1.07,0,1.73,1.18,1.47,2.63-1.57,8.77-2.36,13.15-3.93,21.92-.26,1.45-1.35,2.63-2.43,2.63Z"/>
    <path d="M411.37,903.94h-65.77c-1.08,0-1.68-1.18-1.34-2.63,2.08-8.77,3.11-13.15,5.19-21.92.34-1.45,1.49-2.63,2.57-2.63h65.11c1.07,0,1.69,1.18,1.39,2.63-1.85,8.77-2.78,13.15-4.63,21.92-.31,1.45-1.43,2.63-2.52,2.63Z"/>
    <path d="M1459.99,903.94c-21.92,0-43.84,0-65.77,0-1.08,0-2.14-1.18-2.35-2.63-1.29-8.77-1.94-13.15-3.23-21.92-.21-1.45.48-2.63,1.56-2.63,21.7,0,43.41,0,65.11,0,1.07,0,2.15,1.18,2.4,2.63,1.51,8.77,2.27,13.15,3.79,21.92.25,1.45-.42,2.63-1.51,2.63Z"/>
    <path d="M1547.38,903.94c-21.92,0-43.84,0-65.77,0-1.08,0-2.17-1.18-2.43-2.63-1.57-8.77-2.36-13.15-3.93-21.92-.26-1.45.4-2.63,1.47-2.63h65.11c1.07,0,2.18,1.18,2.48,2.63,1.79,8.77,2.69,13.15,4.49,21.92.3,1.45-.34,2.63-1.42,2.63Z"/>
    <path d="M1634.76,903.94c-21.92,0-43.84,0-65.77,0-1.08,0-2.21-1.18-2.52-2.63-1.85-8.77-2.78-13.15-4.63-21.92-.31-1.45.32-2.63,1.39-2.63h65.11c1.07,0,2.22,1.18,2.56,2.63,2.07,8.77,3.11,13.15,5.19,21.92.34,1.45-.26,2.63-1.34,2.63Z"/>
    <path d="M1372.61,903.94h-65.77c-1.08,0-2.1-1.18-2.27-2.63-1.01-8.77-1.52-13.15-2.53-21.92-.17-1.45.57-2.63,1.64-2.63h65.11c1.07,0,2.11,1.18,2.31,2.63,1.23,8.77,1.85,13.15,3.09,21.92.2,1.45-.51,2.63-1.59,2.63Z"/>
    <path d="M1197.84,903.94h-65.77c-1.08,0-2.02-1.18-2.1-2.63-.45-8.77-.67-13.15-1.12-21.92-.07-1.45.74-2.63,1.81-2.63h65.11c1.07,0,2.03,1.18,2.14,2.63.67,8.77,1.01,13.15,1.68,21.92.11,1.45-.68,2.63-1.76,2.63Z"/>
    <path d="M1285.22,903.94h-65.77c-1.08,0-2.06-1.18-2.18-2.63-.73-8.77-1.1-13.15-1.82-21.92-.12-1.45.65-2.63,1.72-2.63h65.11c1.07,0,2.07,1.18,2.23,2.63.95,8.77,1.43,13.15,2.38,21.92.16,1.45-.59,2.63-1.68,2.63Z"/>
    <path d="M1110.45,903.94c-21.92,0-43.84,0-65.77,0-1.08,0-1.99-1.18-2.01-2.63-.17-8.77-.25-13.15-.42-21.92-.03-1.45.82-2.63,1.89-2.63h65.11c1.07,0,2,1.18,2.06,2.63.39,8.77.59,13.15.98,21.92.06,1.45-.76,2.63-1.84,2.63Z"/>
  </g>
  <g>
    <path d="M382.58,973.95c-1.98,8.58-2.97,12.87-4.95,21.44-.33,1.41-1.49,2.55-2.61,2.55h-133.44c-1.12,0-1.7-1.13-1.3-2.55,2.42-8.58,3.63-12.87,6.05-21.44.4-1.41,1.61-2.55,2.72-2.55,44.04,0,88.07,0,132.11,0,1.11,0,1.74,1.13,1.41,2.55Z"/>
    <path d="M747.7,997.94h-66.9c-1.27,0-2.18-1.01-2.03-2.25,1.04-8.81,1.56-13.22,2.6-22.04.15-1.24,1.28-2.25,2.54-2.25h66.24c1.26,0,2.18,1.01,2.07,2.25-.8,8.82-1.2,13.22-2,22.04-.11,1.24-1.23,2.25-2.5,2.25Z"/>
    <path d="M1027.41,997.94h-66.9c-1.27,0-2.29-1.01-2.27-2.25.11-8.81.17-13.22.28-22.04.02-1.24,1.05-2.25,2.3-2.25h66.24c1.26,0,2.29,1.01,2.31,2.25.12,8.82.18,13.22.31,22.04.02,1.24-1,2.25-2.27,2.25Z"/>
    <path d="M934.17,997.94h-66.9c-1.27,0-2.25-1.01-2.19-2.25.42-8.81.63-13.22,1.05-22.04.06-1.24,1.13-2.25,2.38-2.25h66.24c1.26,0,2.25,1.01,2.23,2.25-.19,8.82-.28,13.22-.46,22.04-.03,1.24-1.08,2.25-2.35,2.25Z"/>
    <path d="M840.93,997.94h-66.9c-1.27,0-2.22-1.01-2.11-2.25.73-8.81,1.09-13.22,1.82-22.04.1-1.24,1.21-2.25,2.46-2.25h66.24c1.26,0,2.22,1.01,2.15,2.25-.49,8.82-.74,13.22-1.23,22.04-.07,1.24-1.16,2.25-2.42,2.25Z"/>
    <path d="M561.22,997.94h-66.9c-1.27,0-2.11-1.01-1.88-2.25,1.66-8.81,2.48-13.22,4.14-22.04.23-1.24,1.44-2.25,2.7-2.25,22.08,0,44.16,0,66.24,0,1.26,0,2.11,1.01,1.91,2.25-1.42,8.82-2.13,13.22-3.54,22.04-.2,1.24-1.39,2.25-2.66,2.25Z"/>
    <path d="M654.46,997.94h-66.9c-1.27,0-2.14-1.01-1.96-2.25,1.35-8.81,2.02-13.22,3.37-22.04.19-1.24,1.36-2.25,2.62-2.25h66.24c1.26,0,2.15,1.01,1.99,2.25-1.11,8.82-1.66,13.22-2.77,22.04-.16,1.24-1.31,2.25-2.58,2.25Z"/>
    <path d="M467.99,997.94h-66.9c-1.27,0-2.07-1.01-1.8-2.25,1.96-8.81,2.94-13.22,4.91-22.04.28-1.24,1.52-2.25,2.78-2.25h66.24c1.26,0,2.08,1.01,1.84,2.25-1.73,8.82-2.59,13.22-4.32,22.04-.24,1.24-1.47,2.25-2.74,2.25Z"/>
    <path d="M1493.59,997.94h-66.9c-1.27,0-2.46-1.01-2.66-2.25-1.43-8.81-2.14-13.22-3.57-22.04-.2-1.24.65-2.25,1.91-2.25,22.08,0,44.16,0,66.24,0,1.26,0,2.47,1.01,2.7,2.25,1.66,8.82,2.5,13.22,4.16,22.04.23,1.24-.61,2.25-1.87,2.25Z"/>
    <path d="M1586.83,997.94h-66.9c-1.27,0-2.5-1.01-2.74-2.25-1.73-8.81-2.6-13.22-4.34-22.04-.24-1.24.58-2.25,1.83-2.25,22.08,0,44.16,0,66.24,0,1.26,0,2.5,1.01,2.78,2.25,1.97,8.82,2.96,13.22,4.93,22.04.28,1.24-.53,2.25-1.8,2.25Z"/>
    <path d="M1738.74,973.95c2.42,8.58,3.63,12.87,6.05,21.44.4,1.41-.18,2.55-1.3,2.55h-130.6c-1.12,0-2.28-1.13-2.61-2.55-1.99-8.58-2.98-12.87-4.97-21.45-.33-1.41.3-2.55,1.41-2.55,43.1,0,86.2,0,129.3,0,1.11,0,2.32,1.13,2.72,2.55Z"/>
    <path d="M1400.35,997.94h-66.9c-1.27,0-2.43-1.01-2.58-2.25-1.12-8.81-1.68-13.22-2.8-22.04-.16-1.24.73-2.25,1.99-2.25,22.08,0,44.16,0,66.24,0,1.26,0,2.43,1.01,2.62,2.25,1.36,8.82,2.03,13.22,3.39,22.04.19,1.24-.68,2.25-1.95,2.25Z"/>
    <path d="M1213.88,997.94h-66.9c-1.27,0-2.36-1.01-2.43-2.25-.5-8.81-.75-13.22-1.26-22.04-.07-1.24.89-2.25,2.15-2.25h66.24c1.26,0,2.36,1.01,2.46,2.25.74,8.82,1.11,13.22,1.85,22.04.1,1.24-.84,2.25-2.11,2.25Z"/>
    <path d="M1307.12,997.94h-66.9c-1.27,0-2.39-1.01-2.51-2.25-.81-8.81-1.22-13.22-2.03-22.04-.11-1.24.81-2.25,2.07-2.25h66.24c1.26,0,2.4,1.01,2.54,2.25,1.05,8.82,1.57,13.22,2.62,22.04.15,1.24-.76,2.25-2.03,2.25Z"/>
    <path d="M1120.64,997.94h-66.9c-1.27,0-2.32-1.01-2.35-2.25-.19-8.81-.29-13.22-.49-22.04-.03-1.24.97-2.25,2.23-2.25h66.24c1.26,0,2.32,1.01,2.39,2.25.43,8.82.65,13.22,1.08,22.04.06,1.24-.92,2.25-2.19,2.25Z"/>
  </g>
  <g>
    <path d="M319.4,1055.93h-88.16c-1.56,0-2.53-1.26-2.16-2.81,2.44-10.22,3.66-15.32,6.09-25.54.37-1.55,1.93-2.81,3.47-2.81h87.3c1.55,0,2.54,1.26,2.21,2.81-2.14,10.22-3.21,15.32-5.34,25.54-.33,1.55-1.86,2.81-3.42,2.81Z"/>
    <path d="M738.72,1055.93h-118.21c-1.8,0-3.09-1.45-2.88-3.24,1.15-9.87,1.73-14.8,2.89-24.68.21-1.79,1.83-3.24,3.61-3.24h117.06c1.78,0,3.12,1.45,2.98,3.24-.77,9.87-1.16,14.81-1.92,24.68-.14,1.79-1.71,3.24-3.52,3.24Z"/>
    <path d="M1247.19,1028.31c.8,9.88,1.2,14.81,1.99,24.69.13,1.62-.98,2.93-2.5,2.93h-91.25c-1.52,0-2.88-2.93-2.88-2.93,0,0-1.07,2.93-2.59,2.93h-91.25c-1.52,0-2.79-2.93-2.79-2.93,0,0-1.16,2.93-2.68,2.93h-91.25c-.89,0-1.66-.45-2.16-1.15-.51.7-1.29,1.15-2.18,1.15h-177.57c-1.52,0-2.68-1.31-2.57-2.93.66-9.88.99-14.81,1.65-24.69.11-1.59,1.43-2.93,2.93-2.93,58.62,0,117.25,0,175.87,0,.88,0,1.67.48,2.14,1.18.48-.7,1.28-1.18,2.16-1.18h90.38c1.5,0,2.77,2.93,2.77,2.93,0,0,1.15-2.93,2.65-2.93h90.38c1.5,0,2.86,2.93,2.86,2.93,0,0,1.06-2.93,2.56-2.93h90.38c1.5,0,2.82,1.34,2.95,2.93Z"/>
    <path d="M579.14,1055.93h-84.64c-1.53,0-2.58-1.24-2.34-2.76,1.6-10.26,2.41-15.39,4.01-25.65.24-1.52,1.66-2.76,3.18-2.76h83.81c1.52,0,2.59,1.23,2.4,2.76-1.31,10.26-1.97,15.39-3.28,25.65-.2,1.52-1.6,2.76-3.13,2.76Z"/>
    <path d="M453.49,1055.93h-93.02c-1.6,0-2.65-1.29-2.33-2.89,2.01-10.16,3.02-15.23,5.03-25.39.32-1.59,1.86-2.89,3.45-2.89,30.7,0,61.41,0,92.11,0,1.59,0,2.66,1.29,2.39,2.89-1.7,10.16-2.55,15.23-4.25,25.39-.27,1.59-1.78,2.89-3.39,2.89Z"/>
    <g>
      <path d="M1752.44,1055.93h-68.34c-1.14,0-2.26-.92-2.5-2.05-1.49-6.91-2.24-10.36-3.73-17.26-.24-1.13.47-2.05,1.6-2.05,22.63,0,45.25,0,67.88,0,1.13,0,2.26.92,2.53,2.05,1.65,6.91,2.47,10.36,4.12,17.26.27,1.13-.43,2.05-1.57,2.05Z"/>
      <path d="M1570.73,1055.93h-68.34c-1.14,0-2.2-.92-2.38-2.05-1.1-6.91-1.65-10.36-2.75-17.26-.18-1.13.59-2.05,1.72-2.05,22.63,0,45.25,0,67.88,0,1.13,0,2.21.92,2.42,2.05,1.26,6.91,1.88,10.36,3.14,17.26.21,1.13-.55,2.05-1.69,2.05Z"/>
      <path d="M1657.26,1034.02h-68.39c-.98,0-1.93-.8-2.12-1.78-.95-5.07-1.43-7.6-2.38-12.67-.18-.99.46-1.78,1.44-1.78,22.68,0,45.36,0,68.04,0,.98,0,1.94.8,2.15,1.78,1.07,5.07,1.6,7.6,2.66,12.67.21.99-.42,1.78-1.41,1.78Z"/>
      <path d="M1661.86,1055.93h-68.88c-.99,0-1.94-.8-2.12-1.78-.94-5.02-1.41-7.53-2.35-12.55-.18-.98.46-1.78,1.45-1.78h68.53c.98,0,1.95.8,2.15,1.78,1.05,5.02,1.58,7.53,2.64,12.55.21.98-.43,1.78-1.41,1.78Z"/>
    </g>
    <path d="M1462.54,1055.93h-67.53c-1.36,0-2.6-1.1-2.77-2.45-1.29-10.26-1.93-15.39-3.22-25.66-.17-1.35.79-2.45,2.13-2.45h66.89c1.35,0,2.6,1.1,2.8,2.45,1.52,10.26,2.28,15.4,3.8,25.66.2,1.35-.74,2.45-2.1,2.45Z"/>
    <path d="M1354.75,1055.93h-67.53c-1.36,0-2.56-1.1-2.69-2.45-.94-10.26-1.41-15.39-2.35-25.66-.12-1.35.87-2.45,2.21-2.45,22.3,0,44.59,0,66.89,0,1.35,0,2.56,1.1,2.72,2.45,1.17,10.26,1.76,15.4,2.94,25.66.15,1.35-.82,2.45-2.18,2.45Z"/>
  </g>
</svg>