<?xml version="1.0" encoding="UTF-8"?>
<svg id="Layer_1" data-name="Layer 1" xmlns="http://www.w3.org/2000/svg" xmlns:xlink="http://www.w3.org/1999/xlink" viewBox="0 0 1920 1080">
  <defs>
    <style>
      .cls-1, .cls-2, .cls-3, .cls-4, .cls-5, .cls-6, .cls-7, .cls-8 {
        fill: none;
      }

      .cls-9 {
        stroke-width: 2.02px;
      }

      .cls-9, .cls-10, .cls-11, .cls-12, .cls-13, .cls-14, .cls-2, .cls-3, .cls-4, .cls-5, .cls-6, .cls-7, .cls-8, .cls-15 {
        stroke-miterlimit: 10;
      }

      .cls-9, .cls-16 {
        fill: #fff;
      }

      .cls-9, .cls-14, .cls-2, .cls-3, .cls-4, .cls-5, .cls-6 {
        stroke: #ccc;
      }

      .cls-17 {
        fill: #603813;
      }

      .cls-18 {
        fill: gray;
      }

      .cls-19 {
        fill: url(#Grid_.5_inch_Lines);
      }

      .cls-10 {
        fill: #ff7bac;
        stroke: #9e005d;
        stroke-width: 1.51px;
      }

      .cls-20, .cls-14 {
        fill: #ccc;
      }

      .cls-21 {
        stroke: #c1272d;
        stroke-width: 6px;
      }

      .cls-21, .cls-22 {
        fill: red;
      }

      .cls-11 {
        stroke-width: .58px;
      }

      .cls-11, .cls-12, .cls-13 {
        fill: #333;
      }

      .cls-11, .cls-12, .cls-13, .cls-7 {
        stroke: #000;
      }

      .cls-12 {
        stroke-width: .49px;
      }

      .cls-13 {
        stroke-width: .44px;
      }

      .cls-14 {
        stroke-width: 8.65px;
      }

      .cls-23 {
        fill: #f2f2f2;
      }

      .cls-24 {
        fill: #b3b3b3;
      }

      .cls-2 {
        stroke-width: 7.03px;
      }

      .cls-3 {
        stroke-width: 7.46px;
      }

      .cls-4 {
        stroke-width: 7.65px;
      }

      .cls-5 {
        stroke-width: 6.93px;
      }

      .cls-6 {
        stroke-width: 6.12px;
      }

      .cls-25 {
        fill: url(#Mezzotint);
      }

      .cls-26 {
        fill: #fbb03b;
      }

      .cls-27 {
        fill: #736357;
      }

      .cls-7 {
        stroke-width: 14.35px;
      }

      .cls-8 {
        stroke: #006837;
        stroke-width: 1.54px;
      }

      .cls-15 {
        fill: #c69c6d;
        stroke: #c69c6d;
        stroke-width: 13.69px;
      }
    </style>
    <pattern id="Grid_.5_inch_Lines" data-name="Grid .5 inch Lines" x="0" y="0" width="72.5" height="72.5" patternUnits="userSpaceOnUse" viewBox="0 0 72.5 72.5">
      <g>
        <rect class="cls-1" width="72.5" height="72.5"/>
        <line class="cls-21" y1="18.25" x2="72.5" y2="18.25"/>
        <line class="cls-21" x1="54.25" y1="0" x2="54.25" y2="72.5"/>
        <line class="cls-21" y1="54.25" x2="72.5" y2="54.25"/>
        <line class="cls-21" x1="18.25" y1="0" x2="18.25" y2="72.5"/>
      </g>
    </pattern>
    <pattern id="Mezzotint" x="0" y="0" width="72" height="72" patternUnits="userSpaceOnUse" viewBox="0 0 72 72">
      <g>
        <rect class="cls-1" width="72" height="72"/>
        <g>
          <path class="cls-16" d="M6.59,71.39c-5,3.1.9,6.6,1,10,1.4.4,2-1.3,3-2,.3-.9-.5-1.4-1-2l-1,1c-.3-1.7.8-4-1-5,.9.3,1.4-.5,2-1-1.8.7-.7,2.7-1,4,.7,1,2.4,1.6,2,3l-2,2,1,1c-.5.6-1.3,1.1-1,2,1.6,1.6,3.9,4.6,6,2l-1,1c2.5.5-3.1.4-4-1-1-2.6-1.6-6.3-5-7l1,1c2.7-1.7-.7-3.3-1-5h-1c1-1.3,2-3.5,3-4Z"/>
          <path class="cls-16" d="M14.59,69.04c-.36,1.58,1.52,4.57-2.55,2.87l.51,1.39c-.81-.07-1.88-.43-2.03.33.35.78.46,1.65,1.52,2.21l-1.53-.25c-3.2-2.88,5.75-1.96,4.08-6.56Z"/>
          <path class="cls-16" d="M59.81,70.18c-.75-.2-1.93.65-2.98,1.22l-1.75,4.75,1.88-1.11.62,1.77,3.76-2.21-1.58,1.99c-2.55.81-2.36-.58-2.8-1.54l-1.88,1.11c-.26-.43-.18-1.17-1.4-.77,4.53-2.29,2.38-3.9,3.63-5.85l2.5.66Z"/>
          <path class="cls-16" d="M59.48,71.71c-.7.64-.24,1.47-.09,2.24,1.28-1.69,5.54-1.97,2.9-5.25.93.17.99,1.12,1.27,1.84-2.42.04-2.03,4.93-5.04,2.93l.97-1.75Z"/>
          <path class="cls-16" d="M44.59,76.39l-.7-.7,1-1,.7.7-1,1,2,2c-.5.6-1.3,1.1-1,2h-1c-.2-1.4,2.4-2.9,0-4h-1l2-6c-.3,2-3.7,4-1,6Z"/>
          <polygon class="cls-16" points="33.64 76.94 29.64 73.94 33.64 71.94 30.64 73.94 33.64 76.94"/>
          <path class="cls-16" d="M20.82,67.59c-1.45,1.81-1.23,3.6-3.1,5.45l-1.4.85.98-.59.4-1.67-.98.59c.06,1.25-1.21,2.81-2.2,4.2l7.3-7.99-1-.83Z"/>
          <path class="cls-16" d="M25.21,75.26l-.19-3.69c-3.19,2.9-4.25,1.2-6.16,1.55l1.61-.24-1.01,1.39c2.31-2.58,5.5.53,7.66,1.31l1.01-1.39c-1.09.91-1.99.86-2.93,1.06Z"/>
          <path class="cls-16" d="M42.76,70.57l-2,3c.4,2.1-.6-3.1-3-4l3,3,2-2Z"/>
          <path class="cls-16" d="M29.09,69.98c4.06-1.24.07,2.47.19,3.69-.91,1.25.85-1.37,2.14-5.9-.64.78-1.05,1.65-2.33,2.21Z"/>
        </g>
        <g>
          <path class="cls-16" d="M77.02,17.76c.07-.75-.14-1.7.72-1.97-.07.75.14,1.7-.72,1.97l-4.31-.74v2.79l-.72-2.21c1.87-.38,2.94-1.1,5.03.16Z"/>
          <path class="cls-16" d="M72.04,5.68l-1-.17v-1.39l1,.17v1.39l2.87.49c.07.78-.14,1.65.72,2.21l-.72.57c-1.15-1.03-.36-3.75-2.87-3.28l-.72.57-2.87-6.06c1.22,1.81.21,5.4,3.59,5.49Z"/>
          <path class="cls-16" d="M74.28,21.12l.02-.92,4.35-.44.02-.92,2.18-.22-1.08-.35c2.4-.61-6.24,2.05-8.77,3.64.67-.62,2.08-.62,3.28-.79Z"/>
          <path class="cls-16" d="M73.89,28.94l.31-1.42,1.08,1.49-3.63.54c.61-.83,1.46-.58,2.24-.61Z"/>
          <path class="cls-16" d="M67.96,62.23c2.73.52,4.43-.57,6.57-.87l-3.36.75-1.37-.88c1.36-1.02-2,.38-1.84,1Z"/>
          <polygon class="cls-16" points="67.54 40.25 67.06 39.95 71.41 39.51 71.43 38.59 73.61 38.37 72.53 38.02 67.54 40.25"/>
        </g>
        <g>
          <polygon class="cls-16" points="5.14 61.69 4.61 60.38 7.24 59.33 3.82 62.22 5.14 61.69"/>
          <path class="cls-16" d="M6.59-.61c-5,3.1.9,6.6,1,10,1.4.4,2-1.3,3-2,.3-.9-.5-1.4-1-2l-1,1c-.3-1.7.8-4-1-5,.9.3,1.4-.5,2-1-1.8.7-.7,2.7-1,4,.7,1,2.4,1.6,2,3l-2,2,1,1c-.5.6-1.3,1.1-1,2,1.6,1.6,3.9,4.6,6,2l-1,1c2.5.5-3.1.4-4-1-1-2.6-1.6-6.3-5-7l1,1c2.7-1.7-.7-3.3-1-5h-1C4.59,2.09,5.59-.11,6.59-.61Z"/>
          <path class="cls-16" d="M51.59,3.39l-.7-.7,1-1,.7.7-1,1c-1-.7-1.6-2.4-3-2-.5.6-1.3,1.1-1,2,2.6,2.5-1.3-.8,0-2,1.9-.6,2.8.9,4,2Z"/>
          <path class="cls-16" d="M13.59,8.14c-.9-.3-1.4.5-2,1-.3.9.5,1.4,1,2,2.1-.3,3.3-2.7,5-4-.6-1.2-1.9-1-3-1,1.1,0,2.4.2,3-1l-1,1,1,1-3,3,1,1c0,2.5.2-1-1-1-1.1,1.3-2.6,1.5-4,2l1-1-1-1c1.8-1.2,2.3-2.9,2-5,0,1.1-.2,2.4,1,3Z"/>
          <path class="cls-16" d="M56.09,13.64c.6,1.9-.9,2.8-2,4l1,1c-.5.6-1.3,1.1-1,2-2-2.7-4,.7-6,1-1.2,1.4,2.2-1.4,1-3-.3.9.5,1.4,1,2l5-2-1-1,2-2-2-2h2Z"/>
          <path class="cls-16" d="M59.84,20.64c3.4,2.1,1.75,2.75,1.75,3.75l-2,2c2.7,4,4.8-7.2,7.3-3.7,2.5,1.3-.3.3-1-1l-6.3,6.7,1-1-1-1c1.3-2.7,4.05-3.25.25-6.75l1-1c.3.9-.5,1.4-1,2Z"/>
          <path class="cls-16" d="M64.82,25.25c2.15.69-1.89,3.41-2.82,5.14,1.16-.83,2.05-.72,3-.85.64.32-.32,1.19-.85,1.91-1.81,1.25-3.08.67-4.63.98l3.51.33c.69-.73,1.17-1.57,2.48-2.04-3.71-1.18.87-4.18.41-6.79l-1.11,1.32Z"/>
          <path class="cls-16" d="M56.59,35.39c.6-.5,1.1-1.3,2-1l1,1,1-1v2c-1.2-2.1-3.3-2.3-5-1v-1l1,1Z"/>
          <path class="cls-16" d="M54.84,38.89c-.6-.5-1.3-.25-2.2.05,1.9-1.2-1.9-3.8,0-5-1.3,1.6,1.5,2.95,2.2,4.95Z"/>
          <path class="cls-16" d="M58.04,50.59c1.1,0,2.4-.2,3,1l-.7-.7,2-2,.7.7-3,3c.3-.9-.5-1.4-1-2h-1Z"/>
          <path class="cls-16" d="M19.59,59.39c-.6-1.2-1.9-1-3-1-2,1,.3,2.8,1,4l-.7-.7,1-1,.7.7-1,1c-1.5-.1-.9-4.5-4-3l-1,1c.5.6,1.3,1.1,1,2l-1,1,3,2c-.6-.5-1.1-1.3-2-1l-1,1c.3-.9-.5-1.4-1-2,.9.3,1.4-.5,2-1-.5-1.4-.7-2.9-2-4,1.2,1,5.3,2.2,5-1,1.4-.4,2,1.3,3,2Z"/>
          <path class="cls-16" d="M10.59,61.39c-.5.6-1.3,1.1-1,2-.6-.5-1.1-1.3-2-1l.7.7-1,1-.7-.7,2-2,1,1,1-1Z"/>
          <path class="cls-16" d="M3.59,66.39c1.9,2.7,3.6-.9,6,0-.5.6-1.3,1.1-1,2-.6-.5-1.1-1.3-2-1-.5.6-1.3,1.1-1,2,1,0-5.7-2.7-1-6,0,1.1.2,2.4-1,3Z"/>
          <path class="cls-16" d="M4.9,45.03c1.03,1.71,2.7,1.18,4.32,1.14l.09,1.41c.78.02,1.68-.25,2.16.57-.7-3.29,3.17-2.54,4.72-3.84,1.84.03-2.5.73-2.91-1.23.87.37.72,1.3.84,2.07l-4.81,2.43-.09-1.41-2.82.18-.18-2.82-1.32,1.5Z"/>
          <path class="cls-16" d="M6.23,25.04l.81,1.16,2.32-1.62.81,1.16,1.16-.81-.18.98c1.6-.42-4.56.5-7.07-.25.83.45,1.47-.25,2.15-.63Z"/>
          <path class="cls-16" d="M57.44,6.32c3.8,1.25-1.08,4.5.81,6.66-1.44-2.21,1.74-4.58-.81-6.66Z"/>
          <polygon class="cls-16" points="61.64 15.94 60.1 17.23 63.39 10.94 61.64 15.94"/>
          <path class="cls-16" d="M7.89,28.94l1,1-3,3,1,1h-1v-2c.9.3,1.4-.5,2-1,.3-.9-.5-1.4-1-2,.6-.5,1.1-1.3,2-1l-1,1Z"/>
          <path class="cls-16" d="M14.14,34.44c.6.5,1.1,1.3,2,1,1.2-.6,1-1.9,1-3h1l-1,1,.7-.7,2,2-.7.7c-.6-.5-1.1-1.3-2-1l-2,2,1,1-1,1c1.5-2.6-3-4,0-6-.5.6-1.3,1.1-1,2Z"/>
          <polygon class="cls-16" points="5.14 36.44 7.14 35.44 9.14 37.44 5.14 36.44"/>
          <path class="cls-16" d="M13.14,36.44c-1,1.3-3.1,2.2-3,4v1h-2v-1c1.4.4,2-1.3,3-2v-3c.6.5,1.1,1.3,2,1Z"/>
          <path class="cls-16" d="M66.65,9.14l.97.23.14,1.67-.97-.23c-.15-1.99-.1-1.33,1.25-2.25-.47-.62.69-2.34-.25-2.25l.74-.84-1.88,3.67Z"/>
          <path class="cls-16" d="M49.39,71.44c-1.1.5,4.1-2.5,3-5,1.1,2.5-2,3.3-3,5Z"/>
          <path class="cls-16" d="M61.15,54.53v-1.41c2.33.62,3.94-.74,4.21-2.86,1.47-1.5-2.32,1.79.02,2.83-2.62-.9-4.02,1.38-5.63,2.88v1.41c4.25-.46-2.1,1.15,0-1.41v.99s-1.41.01-1.41.01v-.99c1.27.41,2.04-.65,2.81-1.44Z"/>
          <path class="cls-16" d="M62.14,67.44l-3,5c-3.3,1.7,6.8-7.2-1-4l-.7.7-1-1,.7-.7c1,2,2.8-.3,4-1-2.4-1.2-2.4-3.8,0-5-3,.9-1.5,4.4,1,6Z"/>
          <path class="cls-16" d="M53.89,55.94h1v2h-1c-.6-1.9.9-2.8,2-4-.6-.5-1.1-1.3-2-1l1-1c-1-1-3.3-2.8-1-4-3.3,3.4,7.6,6.5,0,8Z"/>
          <path class="cls-16" d="M51.64,27.19v1c-.6-1.2-1.9-1-3-1l-1,1c2.7.1,1.4-1.65,1.5-3.25,2.7,3-.8.75,2.5,2.25Z"/>
          <path class="cls-16" d="M57.39,31.94c.6-.5,1.1-1.3,2-1-.6.5-1.1,1.3-2,1l-3-3-2,2,1-2c1.8.8,3.2.9,4,3Z"/>
          <path class="cls-16" d="M62.14,5.19l1,1c-1.4-.4-2,1.3-3,2l2,2c1.3-1,2.2-3.1,4-3-1.6-.5-3.7,5.1-6,2,.7-1.8,2.1-4.2,3-5l-1,1Z"/>
          <path class="cls-16" d="M55.64,5.19c.2,1.5-1.7,2.3-1,4l1,1-.7-.7,1-1,.7.7c-1.2.6-1,1.9-1,3l-2-7h2Z"/>
          <path class="cls-16" d="M58.89,18.19c-1.2-.6-1-1.9-1-3,1.4.4,2-1.3,3-2l-1-2c3.5,2.7-3.3,3.6-1,7Z"/>
          <path class="cls-16" d="M4.14,47.94l1.44.25-1.44,1.15-.72-3.61c.86.57.65,1.43.72,2.21Z"/>
          <path class="cls-16" d="M48.24,14.76c2.09.06,1.02-4.78,4.12-7.87l-4.85-.2,3.38.34.62-1.42c1.11,2.8-.84,5.51-3.26,9.14Z"/>
          <path class="cls-16" d="M5.69,52.71c-.5-2.38,2.15-2.42,3.59-2.87v1.39c-2.37-1.03-4.02,0-4.31,2.05l-.72-.82,1.44.25Z"/>
          <path class="cls-16" d="M2.27,53.92v1.39l2.87.49v1.39l1.44.25-.72.57c1.58.83-4.09-2.86-5.74-5.16.43.91,1.36.86,2.15,1.06Z"/>
          <path class="cls-16" d="M14.7,54.7v-1.39l1.44.25v1.39c2.73,1.02-5.6-2.49-4.31,2.05-1.87,1.07,2.01-.49.72-1.97l-2.15.33c1.36-.39,2.58-1.09,4.31-.66Z"/>
          <path class="cls-16" d="M49.14,32.31c1.65.07,3.8,1.28,5.03.16-.86,3.19,3.16,1.66,4.31,3.52-.43.76-1.36.39-2.15.33.14-1.65-2.58-2.95-4.31-3.52l-2.87-.49.72,3.61-.72-5v1.39Z"/>
          <path class="cls-16" d="M15.58,23.32c-2.59.53-.93,3.53-1.44,5.33-.43-.91-1.36-.86-2.15-1.07-.86.27-.65,1.21-.72,1.97.72,1.38,2.37.89,3.59,1.31l-3.59.08c-.07-.78.14-1.65-.72-2.21,4.45-.91,2.51-4.24,5.03-6.8v1.39Z"/>
          <path class="cls-16" d="M3.8,38.05l-.97-.31.2-1.38.97.31-.2,1.38,2.77.9c-.04.78-.38,1.61.39,2.29l-.79.46c-.99-1.19.18-3.77-2.37-3.66l-.79.46-1.84-5.46c.95,1.97-.7,4.42,2.63,4.99Z"/>
          <path class="cls-16" d="M9.55,33.29c.49-3.51-.27,2.19,2.17.15l-3,.25.83-.4Z"/>
          <path class="cls-16" d="M5.02,17.76c.07-.75-.14-1.7.72-1.97-.07.75.14,1.7-.72,1.97l-4.31-.74v2.79L0,17.6c1.87-.38,2.94-1.1,5.03.16Z"/>
          <path class="cls-16" d="M8.27,16.63c.71-.27,1.45-.89,2.08-.24l.42,1.39,1.25-.62-.82,2.02c-.14-2.58-1.81-3.59-3.76-2.93l.41-1.01.42,1.39Z"/>
          <path class="cls-16" d="M18.04,29.56l1.13-.85-.28,1.98-2.69-2.4c.93-.17,1.32.69,1.84,1.27Z"/>
          <path class="cls-16" d="M1.24,10.57l1.44.25c-1.29.47-.5,2.21-.72,3.36l2.87.49c.22-1.56-.65-3.8.72-4.75-1.51.51,1.01,6.3-2.87,5.08-.79-1.88-1.51-4.64-1.44-5.82v1.39Z"/>
          <path class="cls-16" d="M.05,5.68l-1-.17v-1.39l1,.17v1.39l2.87.49c.07.78-.14,1.65.72,2.21l-.72.57c-1.15-1.03-.36-3.75-2.87-3.28l-.72.57L-3.54.19c1.22,1.81.21,5.4,3.59,5.49Z"/>
          <path class="cls-16" d="M63.89,47.19c.07-.75-.14-1.7.72-1.97-.07.75.14,1.7-.72,1.97l-4.31-.74v2.79l-.72-2.21c1.87-.38,2.94-1.1,5.03.16Z"/>
          <path class="cls-16" d="M66.48,33.68c-.93,1.58-.14,4.57-3.59,2.87v1.39c-.79-.07-1.72-.43-2.15.33.07.78-.14,1.65.72,2.21l-1.44-.25c-2.15-2.88,6.46-1.96,6.46-6.56Z"/>
          <path class="cls-16" d="M14.59-2.96c-.36,1.58,1.52,4.57-2.55,2.87l.51,1.39c-.81-.07-1.88-.43-2.03.33.35.78.46,1.65,1.52,2.21l-1.53-.25c-3.2-2.88,5.75-1.96,4.08-6.56Z"/>
          <path class="cls-16" d="M65.72,12c-2.39.53.35,3.53.5,5.33-.76-.91-1.68-.86-2.54-1.06-.76.27-.21,1.21,0,1.97,1.22,1.38,2.7.89,4.07,1.31l-3.56.08c-.35-.78-.46-1.65-1.52-2.21,4.12-.91.97-4.24,2.55-6.8l.51,1.39Z"/>
          <path class="cls-16" d="M67.89,63.62c-3.2-1.7-3.46,1.15-3.06,3.44,1.52.64,1.98-.27,2.54-.9-.76.27-.21,1.21,0,1.97l.51-.57,1.02.82-.51.57c3.86.56-1.47.09-2.03-1.64-3.97-1.42-.1,2.87-1.53,3.69l-.5-5.33.36.97-1.52-.25-.36-.97c4.17,1.39-.2-4.49,5.09-1.8Z"/>
          <path class="cls-16" d="M56.59,38.04c-.36,1.58,1.52,4.57-2.55,2.87l.51,1.39c-.81-.07-1.88-.43-2.03.33.35.78.46,1.65,1.52,2.21l-1.53-.25c-3.2-2.88,5.75-1.96,4.08-6.56Z"/>
          <path class="cls-16" d="M52.56,24.35c1.63,1.11,1.47,2.86,3.56,3.85l1.53.25-1.07-.17-.51-1.39,1.07.17c0,1.18,1.42,2.13,2.54,3.03l-8.13-4.59,1.02-1.15Z"/>
          <path class="cls-16" d="M59.61,19.26c-3.56.87-.16,6.07-3.57,5.98l-1.07-.17-.51-1.39,1.07.17.51,1.39c3.61,1.24.97-2.47,1.53-3.69l-1.52-.25,3.56-2.05Z"/>
          <path class="cls-16" d="M10.71,23.51l-.19-3.69c-3.19,2.9-4.25,1.2-6.16,1.55l1.61-.24-1.01,1.39c2.31-2.58,5.5.53,7.66,1.31l1.01-1.39c-1.09.91-1.99.86-2.93,1.06Z"/>
          <path class="cls-16" d="M2.28,21.12l.02-.92,4.35-.44.02-.92,2.18-.22-1.08-.35c2.4-.61-6.24,2.05-8.77,3.64.67-.62,2.08-.62,3.28-.79Z"/>
          <path class="cls-16" d="M1.89,28.94l.31-1.42,1.08,1.49-3.63.54c.61-.83,1.46-.58,2.24-.61Z"/>
          <polygon class="cls-16" points="10.11 44.26 11.76 44.76 7.69 42.33 7.25 42.8 9.67 44.74 10.11 44.26"/>
          <path class="cls-16" d="M15.89,50.19c-.84.07-2.04.43-1.92-.33.43-1.18,2.2-2.13,3.64-3.03l-.3-.57-1.01,1.39.71-.98-3.23.49-.71.98c.84-.06,2.04-.43,1.92.33l-2.03,2.79-1.62.25-1.01,1.39c2.97-2.99,6.16-1.56,7.89-4.92-.64.78-1.06,1.65-2.33,2.21Z"/>
          <path class="cls-16" d="M77.49,31.1c-3.09,1.77-5.74.55-9.33-.9-.29,2.04,4.96-.2,7.9,2.05l1.44-1.15Z"/>
          <path class="cls-16" d="M71.76,46.83c3.66.56-1.51.09-1.44-1.64-3.45-1.42-1.15,2.87-2.87,3.69l1.44-5.33v.97l-1.44-.25v-.97c3.66,1.39,1.44-4.49,5.74-1.8-2.58-1.69-3.88,1.15-4.31,3.44,1.29.64,2.08-.27,2.87-.9v2.79Z"/>
          <path class="cls-16" d="M73.5,59.43c-.43-2.58-5.89.53-8.62,1.31v-1.39c.43.91,1.36.86,2.15,1.07l2.87-3.69c1.08,2.9,3.38,1.2,5.03,1.56l-1.44,1.15Z"/>
          <path class="cls-16" d="M71.39,36.69c-1.65.34-2.94-2.38-4.31-.74v-1.39l4.31,2.13Z"/>
          <path class="cls-16" d="M72.3,14.14c-.07-.78.14-1.65-.72-2.21-2.51-1.33-1.72,1.66-2.87,2.29-1.79,1.43.86-.41,0-1.39l-1.44-.25c1.01,2.4,4.52-3.05,2.15-5.9l2.87,7.45Z"/>
          <path class="cls-16" d="M70.81,51.72l-.51-1.39c2.75,1.03,4.02,0,3.56-2.05,1.07-1.21-1.88,1.33,1.01,2.78-3.15-1.36-3.87.62-5.09,1.8l.51,1.39c4.42.32-1.88.75-.51-1.39l.35.98-1.52-.25-.35-.98c1.52.64,1.98-.27,2.54-.9Z"/>
          <path class="cls-16" d="M69.48,15.66l-1.31.82c1.76-.64,1.89.27,2.22.9l-1.01,1.39c-.94-1.47.44,2.84,2.52,1.48-4.75.91.56-3.92-2.4-4.59Z"/>
          <path class="cls-16" d="M70.78,23.67l-.71.98c.84-.06,2.04-.43,1.92.33l-2.03,2.79-1.62.25-1.01,1.39c2.97-2.99,6.16-1.56,7.89-4.92-.64.78-1.06,1.65-2.33,2.21-.84.07-2.04.43-1.92-.33l-.19-2.7Z"/>
          <path class="cls-16" d="M55.01,45.94l-1.31.82c1.76-.64,1.89.27,2.22.9l-1.01,1.39c-.94-1.47.44,2.84,2.52,1.47-4.75.91.56-3.92-2.4-4.59Z"/>
          <path class="cls-16" d="M55.16,72.04c.48-.75,1.38-1.7.71-1.97l-1.62.25,1.01-1.39-2.63,1.64c3.12-1.03,4.01,0,2.82,2.05l-.3-.57Z"/>
          <path class="cls-16" d="M56.84,43.74c4.06-1.24.07,2.47.19,3.69-.91,1.25.85-1.37,2.14-5.9-.64.78-1.05,1.65-2.33,2.21Z"/>
          <path class="cls-16" d="M59.81-1.82c-.75-.2-1.93.65-2.98,1.22l-1.75,4.75,1.88-1.11.62,1.77,3.76-2.21-1.58,1.99c-2.55.81-2.36-.58-2.8-1.54l-1.88,1.11c-.26-.43-.18-1.17-1.4-.77,4.53-2.29,2.38-3.9,3.63-5.85l2.5.66Z"/>
          <path class="cls-16" d="M65.23,2.11c-.49.58-1.31,1.09-.9,1.89l1.18.85-.99.98,2.17-.12c-2.4-.97-2.81-2.87-1.56-4.51l-1.09.06,1.18.85Z"/>
          <path class="cls-16" d="M59.48-.29c-.7.64-.24,1.47-.09,2.24,1.28-1.69,5.54-1.97,2.9-5.25.93.17.99,1.12,1.27,1.84-2.42.04-2.03,4.93-5.04,2.93l.97-1.75Z"/>
          <path class="cls-16" d="M62.51,43.24l.73.68-1.37,1.46-.73-.69c.87-1.79,2.57-1.42,4.2-1.54-.09-.78.09-1.7-.77-2.1l1.41-.04c-.04-1.41-.48-4.3,2.01-3.6-4.73.21,1.08,9.94-5.48,5.83Z"/>
          <path class="cls-16" d="M56.48,58.69c-.96,3.22-6.01-2.22-6.02,1.22l.14,1.13,1.36,1.05-.14-1.13-1.36-1.05c-1.12-4.09,2.47,0,3.69-.09l.2,1.62,2.13-2.76Z"/>
          <path class="cls-16" d="M64.39,54.94c-.9-.3-1.4.5-2,1,2.1.3,4.4,3.9,6,0,.3.9-.5,1.4-1,2-1.2-2.1-5.3.6-5-3h2Z"/>
          <path class="cls-16" d="M58.29,61.02l-.26-1.39,1.39-.26.26,1.39c2.74.06-5.71-.51-3.65,3.56-1.54,1.73,1.79-1.2.3-2.22l-1.95,1.09c1.2-.87,2.21-2,3.91-2.17Z"/>
          <path class="cls-16" d="M72.89,63.94c-1.4-.4-2,1.3-3,2,0,2.5.2-1-1-1l-1,1,1-2c-.3.9.5,1.4,1,2l2-3,1,1Z"/>
          <polygon class="cls-16" points="62.44 61.8 61.09 59.12 63.33 61.35 63.78 62.24 62.89 62.69 62.44 61.8"/>
          <polygon class="cls-16" points="68.39 50.94 66.51 51.63 70.52 48.04 68.39 50.94"/>
          <path class="cls-16" d="M-4.04,62.23c2.73.52,4.43-.57,6.57-.87l-3.36.75-1.37-.88c1.36-1.02-2,.38-1.84,1Z"/>
          <path class="cls-16" d="M1.86,73.33c-4.06,1.24-.07-2.47-.19-3.69l1.62-.25-2.82-2.05c3.25.87-2.05,6.07,1.39,5.98Z"/>
          <path class="cls-16" d="M7.39,52.69c1.39,1.14.64,3.3.92,4.91l-.12-2.82-1.41.06c-.77,1.87-.14-1.62.61-2.15Z"/>
          <path class="cls-16" d="M1.14,43.94c.62-1.15,2.67-2.88,1.73-3.36l-1.73,3.36c2.38-1.79-1.6,3.28,4.24-1.88-1.44.9-3.09,2.08-4.24,1.88Z"/>
          <polygon class="cls-16" points="67.89 70.44 66.17 70.32 70.67 71.81 70.99 71.25 68.22 69.89 67.89 70.44"/>
          <path class="cls-16" d="M48.31,69.43c.22-1.08.28-2.39,1.58-2.74l-.83.55-1.56-2.36.83-.55,2.34,3.54c-.82-.47-1.47.21-2.16.58l-.2.98Z"/>
          <polygon class="cls-16" points="10.79 67.97 10.06 69.93 13.29 69.47 10.79 67.97"/>
          <path class="cls-16" d="M66.14,27.69l2-3,1,1c-1.4-.4-2,1.3-3,2Z"/>
          <path class="cls-16" d="M68.14,3.32c0,2.5.2-1-1-1l-1,1,1-2c-.3.9.5,1.4,1,2Z"/>
          <path class="cls-16" d="M70.96,34.45c-1.35-.91-4.39-.29-3.85-3.19.25,1.07.36,2.38,1.67,2.68.95.08,1.25-.81,1.71-1.44l1.67,2.68-1.21-.74Z"/>
          <polygon class="cls-16" points="72.53 38.02 67.54 40.25 67.06 39.95 71.41 39.51 72.53 38.02"/>
          <polygon class="cls-16" points="-4.46 40.25 -4.94 39.95 -.59 39.51 -.57 38.59 1.61 38.37 .53 38.02 -4.46 40.25"/>
          <polygon class="cls-16" points="51.38 23.17 53.42 21.69 50.37 22.58 51.38 23.17"/>
          <polygon class="cls-16" points="52.17 53.69 52.2 51.4 50.91 51.6 52.17 53.69"/>
          <path class="cls-16" d="M44.59,4.39l-.7-.7,1-1,.7.7-1,1,2,2c-.5.6-1.3,1.1-1,2h-1c-.2-1.4,2.4-2.9,0-4h-1l2-6c-.3,2-3.7,4-1,6Z"/>
          <path class="cls-16" d="M42.59,17.64l-2.01.05-.74.95c.1-1.8-2-2.7-3-4l-1,1c-.2-1.4,3.9-2.9,0-4h-1l1-3c.6,3.4,1.3,8.65,6.75,9Z"/>
          <path class="cls-16" d="M49.14,8.94c-4.05.77-5.03,5.93-8.39,5.76l-.97-.2.28-1.39.97.2.47,1.14c2.91,1.31,2.36-2.41,3.61-3.6l-1.39-.28,5.41-1.63Z"/>
          <path class="cls-16" d="M41.09,21.64l4.45-.83c-1.2,2.7,2.45,2.63,3.55,3.83l-1-1-1,1c1.5-2.1-6.92-4.21-9.42-4.21l.5-1.75c-.3.9,2.42,2.36,2.92,2.96Z"/>
          <path class="cls-16" d="M25.59,22.39c-2.5-1.1-3.3,2-5,3,.3-.9-.5-1.4-1-2-.9-.3-1.4.5-2,1-.4,1.4,1.3,2,2,3l-3-2c.5-.6,1.3-1.1,1-2,4.3,1.9,5.1-1.6,9-2l-1,1Z"/>
          <path class="cls-16" d="M39.59,22.39c-1.9.6-3.4,3.2-5,0l-1,1c-.6-.5-1.1-1.3-2-1-.5.6-1.3,1.1-1,2l-1-1c.3-3.3,6.7,2.3,10-1Z"/>
          <path class="cls-16" d="M25.59,31.39c.3-.9-.5-1.4-1-2l-4,2,4,4c.5-.6,1.3-1.1,1-2l1,1c-.9-.3-1.4.5-2,1,0,2.6,2.5,1.6,3,4-3.6-1.3-2.5-7.1-7-8,1.2-1.6,5.3-.6,4-4l1,4Z"/>
          <path class="cls-16" d="M42.59,33.89c3.8.4.5-5.6,5-4l-5,4Z"/>
          <path class="cls-16" d="M30.24,40.58l-.74,1.21,2.41,1.48-.74,1.2,1.2.74-.97.23c1.03,1.3-2.28-3.98-2.59-6.58-.08.94.81,1.25,1.43,1.71Z"/>
          <path class="cls-16" d="M32.59,35.39c1.3-2,3.5-.5,5,0l-1,1c-1.2-2.1-3.3-2.3-5-1v-1l1,1Z"/>
          <path class="cls-16" d="M43.53,40.18c-1.2-2.96-2.11,1.51-5.1.11-1.04.73,1.24-.69,6.43-1.9-.6.5-1.47.86-1.33,1.79Z"/>
          <path class="cls-16" d="M33.59,42.89l1,1h-2l2-3c.3.9-.5,1.4-1,2Z"/>
          <path class="cls-16" d="M30.59,47.39c1.7-1.3-4.2-2.7-5-6l-4,3,3-2-1-1c3.8.5,5.1,2.9,7,6Z"/>
          <path class="cls-16" d="M43.59,44.89c.3-.9-.5-1.4-1-2l1,1,1-2-1,3Z"/>
          <path class="cls-16" d="M46.59,47.39c1-.7,1.6-2.4,3-2l-3,2c.4-1.9-3,1.9-1-3,0,1.1-.2,2.4,1,3Z"/>
          <path class="cls-16" d="M20.59,47.39c0,1.1.2,2.4-1,3l2,2c2.1-1.2,2.3-3.3,1-5l1,3c-1.6,3.2-3.1.6-5,0-1.2,1.7,5.1-2.9,0-3-2.4,2.1.8.1,0-1,.6.5,1.1,1.3,2,1Z"/>
          <path class="cls-16" d="M39.34,54.14c-1.6-.7-.7-3.4-3-3l1-1,2,4Z"/>
          <path class="cls-16" d="M42.09,52.14c-2,2.5,1.3-.3-1-1,1.4.4,2-1.3,3-2l-2-1h2l-2,4Z"/>
          <path class="cls-16" d="M27.79,55.09c1.3,1,2.2,3.1,4,3-3,1.8,1.4,3,1,5-.9.3-1.4-.5-2-1,1.3-1.1,0-3.6-1-5l-2-2-2,3,3-4-1,1Z"/>
          <path class="cls-16" d="M33.59,56.14c-4.37,5.12,4.47-2.88-1-1.75l5,.75-4,1Z"/>
          <path class="cls-16" d="M34.59,58.89c3.3,2.7-2.3,5.3,1,8h-2c.3-2.7,3.7-5.3,1-8h-1l6-3-5,3Z"/>
          <path class="cls-16" d="M29.09,59.39c-2.7,2.2-1.2,6.2-5,8-1.4,1.7,2.8-2.2,3-4,0-1.6-.4-4.3,2-4Z"/>
          <path class="cls-16" d="M46.89,62.14c-1.59-1.1-2.63.93-3.88,1.41-1.12,3.17-.39,4.61,2.53,5.53.91-.25.88-1.2,1.1-1.95-.25-.91-1.2-.88-1.95-1.1.91-.26.88-1.2,1.1-1.95-.63,2.11,1.68,3.57.31,5.82l-4.45-3.03c1.38-.45.93-2.2,1.37-3.34l-3.05.85,6.36-3.09.56.83Z"/>
          <path class="cls-16" d="M38.59,47.39c-.6-.5-1.1-1.3-2-1,1.9-1.2-1.9-3.8,0-5-1.3,1.6,1.3,4,2,6Z"/>
          <path class="cls-16" d="M41.25,23.76c-2.43,3.33,1.47,6.82-1.1,8.99l-.84.52-.74-1.2.84-.52.74,1.2c3.02-1.03.08-3.37.18-5.09l-1.2.74,2.12-4.64Z"/>
          <path class="cls-16" d="M27.93,8.33l-.48,1.33,2.66.96-.48,1.33,1.33.48-.9.43c1.27,1.06-3.05-3.43-3.89-5.91.11.94,1.05,1.05,1.76,1.38Z"/>
          <polygon class="cls-16" points="33.64 4.94 29.64 1.94 33.64 -.06 30.64 1.94 33.64 4.94"/>
          <path class="cls-16" d="M47.26,50.27c-.62.72-.07,1.49.17,2.23,1.07-1.83,5.28-2.59,2.28-5.55.95.06,1.11,1,1.47,1.68-2.4.31-1.46,5.13-4.67,3.49l.76-1.85Z"/>
          <path class="cls-16" d="M47.89,54.44l1-1,1,1-1,1c1.5,2.3-2.8-5-5-1-2.3-.3,2,.8,2-1l-2-1c1.4.5,2.9.7,4,2Z"/>
          <polygon class="cls-16" points="44.14 27.69 43.14 28.69 44.14 25.69 45.14 25.69 45.14 27.69 44.14 27.69"/>
          <path class="cls-16" d="M20.89,7.69c.1,1.8-2,2.7-3,4l2-2-1-1c-1.9.7,1.1-1.2,2-1Z"/>
          <polygon class="cls-16" points="21.89 16.69 18.89 16.69 21.89 15.69 22.89 15.69 22.89 16.69 21.89 16.69"/>
          <path class="cls-16" d="M29.14,19.19c.5-.6,1.3-1.1,1-2-1.1-2.4-2.6.2-4,0-2.5,0,1,.2,1-1l-1-1c-.9,2.3,5.9.4,6-3l-3,7Z"/>
          <path class="cls-16" d="M37.89,27.69c-.9-2.7-4-1.4-6,0,.6,1.2,1.9,1,3,1-.9-.3-1.4.5-2,1h1v1h-1c2.6,2.5-1.3-.8,0-2-1.8-3-3,1.4-5,1l5-3-.7.7-1-1,.7-.7c2,3.1,4.4-2.4,6,2Z"/>
          <path class="cls-16" d="M34.31,9.3c-.43-.91-1.37-.86-2.16-1.07v1.39c-1.44-1.22-2.3-3.74-4.31-3.52.86-.27.65-1.21.72-1.97-.79,1.61,1.44,2.61,2.15,3.85,1.22.42,2.87-.07,3.59,1.31Z"/>
          <path class="cls-16" d="M46.22,33.27c2.24,1.21,2.39,2.81,3.05,4.42l1.53.25c.36.78.46,1.65,1.52,2.21-3.76-1.06-1.33,2.87-2.04,4.26.81,1.84-.3-2.41-2.54-3.03.76.91,1.68.86,2.54,1.06l.51-4.51-1.53-.25-1.01-2.79-3.05-.49,1.02-1.15Z"/>
          <path class="cls-16" d="M26.99,66.37c1.09-.91,1.99-.86,2.93-1.07l-1.62.25,2.33-2.21-3.64,3.03Z"/>
          <path class="cls-16" d="M22.79,55.62c-.86.27-.65,1.21-.72,1.96"/>
          <path class="cls-16" d="M31.69,70.02c.84-.07,2.04-.43,1.92.33,1-2.07,5.56-2.02,6.57-4.1-1.71,2.06-5.65,2.53-8.49,3.77Z"/>
          <path class="cls-16" d="M42.14,59.94c-.84.07-2.04.43-1.92-.33.43-1.18,2.2-2.13,3.64-3.03l-.3-.57-1.01,1.39.71-.98-3.23.49-.71.98c.84-.06,2.04-.43,1.92.33l-2.03,2.79-1.62.25-1.01,1.39c2.97-2.99,6.16-1.56,7.89-4.92-.64.78-1.06,1.65-2.33,2.21Z"/>
          <path class="cls-16" d="M20.82-4.41c-1.45,1.81-1.23,3.6-3.1,5.45l-1.4.85.98-.59.4-1.67-.98.59c.06,1.25-1.21,2.81-2.2,4.2l7.3-7.99-1-.83Z"/>
          <path class="cls-16" d="M19.59,44.23l-1.7-.29-1.87-2.68-1.7-.29-.94-1.34-.38.52c-1.71-1.59,5.3,4.26,8.84,6.22-1.3-.58-1.65-1.4-2.25-2.15Z"/>
          <path class="cls-16" d="M22.79,55.62c-.79-.07-1.72-.43-2.15.33.5-2.07-4.09-2.02-3.59-4.1.21,2.06,3.81,2.53,5.74,3.77Z"/>
          <path class="cls-16" d="M25.31,45.27c1.79,1.21,1.36,2.81,1.44,4.42l1.44.25c.07.78-.14,1.65.72,2.21-3.37-1.06-2.37,2.87-3.59,4.26.14,1.84.57-2.41-1.44-3.03.43.91,1.36.86,2.15,1.06l2.15-4.51-1.44-.25v-2.79l-2.87-.49,1.44-1.15Z"/>
          <path class="cls-16" d="M36.32,47.37c-2.59-1.7-3.88,1.15-4.31,3.44,1.29.64,2.08-.27,2.87-.9-.86.27-.65,1.21-.72,1.97l.72-.57.72.82-.72.57c3.66.56-1.51.09-1.44-1.64-3.45-1.42-1.15,2.87-2.87,3.69l1.44-5.33v.97l-1.44-.25v-.97c3.66,1.39,1.44-4.49,5.74-1.8Z"/>
          <path class="cls-16" d="M23.14,59.94l1,1h-2l2-3c.3.9-.5,1.4-1,2Z"/>
          <path class="cls-16" d="M15.56,67.66l3.27-3.34c.75,3,3.22,1.57,4.82,2.11l-1.4-.4-.16,1.38c-.14-2.61-5.91-.13-8.71.34l.16-1.38c.33.95,1.26,1.01,2.02,1.3Z"/>
          <path class="cls-16" d="M23.13,64.02c.35-3.53-.19,2.2,2.21-.32l-3.04.88.82-.57Z"/>
          <path class="cls-16" d="M18.72,38.46c1.12.41,2.53.73,2.71,1.97l2.75-.95c-.48-2.23-2.56-3.19-4.76-2.72l3.42.28c2.71,2.56-.49,2.85-1.78,4.24,1.31,1.65-1.15-5.41-3.07-1.12,1.3,2.82.39-.64-1.02-.38.72-.32,1.72-.45,1.73-1.32Z"/>
          <path class="cls-16" d="M14.54,21.16l2.87-3.69c1.08,2.9,3.38,1.2,5.03,1.56l-1.44-.25v1.39c-.43-2.58-5.89.53-8.62,1.31v-1.39c.43.91,1.36.86,2.15,1.07Z"/>
          <path class="cls-16" d="M25.35,19.1l.78,1.33,2.2-1.38.78,1.33,1.1-.69-.16,1.01c1.52-.23-4.34-.09-6.74-1.22.8.59,1.39-.06,2.04-.37Z"/>
          <polygon class="cls-16" points="27.28 24.85 27.87 23.59 27.89 26.94 26.99 27.16 26.39 25.07 27.28 24.85"/>
          <path class="cls-16" d="M46.67,38.62c-.07-.75.14-1.7-.72-1.97l-1.44.25v-1.39l-1.44,1.64c2.37-1.03,4.02,0,4.31,2.05l.72-.82-1.44.25Z"/>
          <path class="cls-16" d="M37.55,32.77c-.43-.91-1.37-.86-2.15-1.06l1.44.25-.72-2.21,1.44,3.03Z"/>
          <path class="cls-16" d="M39.02,37.58v-1.39l1.44.25v1.39c2.73,1.02-5.6-2.49-4.31,2.05-1.87,1.07,2.01-.49.72-1.97l-2.15.33c1.36-.39,2.59-1.09,4.31-.66Z"/>
          <path class="cls-16" d="M45.39,19.44c-1.2-.6-1-1.9-1-3,1.4.4,2-1.3,3-2l-1-2c3.5,2.7-3.3,3.6-1,7Z"/>
          <path class="cls-16" d="M24.22,6.71c-.73-.19-1.7-.12-1.83-1.01l.46-1.38-1.38-.21,1.84-1.17c-1.38,2.18-.61,3.97,1.37,4.57l-.92.58.46-1.38Z"/>
          <path class="cls-16" d="M31.85,6.2c-.49.58-1.31,1.09-.9,1.89l1.18.85-.99.98,2.17-.13c-2.4-.96-2.81-2.87-1.56-4.51l-1.09.06,1.18.85Z"/>
          <path class="cls-16" d="M52.54,13.33l.72.82c-1.29-.64-2.08.27-2.87.9v1.39c2.01-1.47-2.51,2.84-3.59,1.47,4.09.91,2.3-3.92,5.74-4.59Z"/>
          <path class="cls-16" d="M42.04,24.56c.39-.64,1.08-1.04,2.06-1.23l.72.82c-1.29-.64-2.08.27-2.87.9l.09-.49Z"/>
          <path class="cls-16" d="M25.64,13.19c-.2-1.15-1.62-2.88-.5-3.36l.5,3.36c-1.73-1.79.4,3.28-3.56-1.88,1.12.9,2.34,2.08,3.56,1.88Z"/>
          <path class="cls-16" d="M20.59,13.76c-.2-.75-.76-1.7,0-1.97.2.75.76,1.7,0,1.97l-4.58-.74,1.01,2.79-1.52-2.21c1.73-.38,2.54-1.1,5.08.16Z"/>
          <path class="cls-16" d="M35.16,20.65c2.34-1.85-4.97-5.29-1.24-7.22l1.24,7.22Z"/>
          <path class="cls-16" d="M34.8,1.42c1.12.9,2.54,1.85,2.54,3.03l3.05.49c-.15-2.19-2.18-4.02-4.57-4.67l3.56,1.88c2.44,3.54-.97,2.27-2.55,2.87,1.12,2.08-.35-5.3-3.05-2.46.91,3.1.51-.38-1.02-.82.81.06,1.88.43,2.04-.33Z"/>
          <path class="cls-16" d="M46.19,59.12c2.15,4.12,7.68,4.75,8.57,7.99l.1.91-1.6-.56-.1-.91,1.6.56c.49-2.58-3.39-2.81-5.09-4.28l.14,1.3-3.63-5.01Z"/>
          <path class="cls-16" d="M40.39,47.94c-.6,1.05,2.62-4.67.26-6.06,2.35,1.39-.44,4.1-.26,6.06Z"/>
          <path class="cls-16" d="M38.45,9.67c.81.07,1.88.43,2.04-.33,0-1.18-1.42-2.13-2.54-3.03l.51-.57.51,1.39-.35-.97,3.05.49.36.98c-.81-.07-1.88-.43-2.04.33l1.01,2.79,1.53.25.51,1.39c-1.88-2.99-5.59-1.56-6.1-4.91.36.78.46,1.65,1.52,2.21Z"/>
          <path class="cls-16" d="M25.21,3.26l-.19-3.69c-3.19,2.9-4.25,1.2-6.16,1.55l1.61-.24-1.01,1.39c2.31-2.58,5.5.53,7.66,1.31l1.01-1.39c-1.09.91-1.99.86-2.93,1.06Z"/>
          <polygon class="cls-16" points="18.78 4.52 19.69 6.24 20.1 3.7 19.8 3.13 18.48 3.94 18.78 4.52"/>
          <path class="cls-16" d="M14.52,76.41l7.3-7.99-1-.83c-1.45,1.81-1.23,3.6-3.1,5.45l-3.2,3.37Z"/>
          <polygon class="cls-16" points="42.99 61.41 43.71 59.44 40.48 59.93 42.99 61.41"/>
          <polygon class="cls-16" points="27.89 70.19 28.6 68.23 25.37 68.72 27.89 70.19"/>
          <path class="cls-16" d="M45.69,58.31c.84-.07,2.04-.43,1.92.33,1-2.07,5.56-2.02,6.57-4.1-1.71,2.06-5.65,2.53-8.49,3.77Z"/>
          <path class="cls-16" d="M28.01,33.21l.05,1.63,3.79,3.51.05,1.63.6-.23-1.32-2.8c-.35.63-1.18-.38-1.87-.94-.77-1.19-.62-2.08-.71-3.03-.69-.56-1.52-1.57-1.87-.94l1.26,1.17Z"/>
          <polygon class="cls-16" points="31.14 32.03 31.14 33.44 29.72 30.61 30.43 29.91 31.84 31.32 31.14 32.03"/>
          <polygon class="cls-16" points="22.01 27.43 21.24 28.98 24.32 25.37 23.92 24.85 21.61 26.92 22.01 27.43"/>
          <path class="cls-16" d="M42.76-1.43l-2,3c.4,2.1-.6-3.1-3-4l3,3,2-2Z"/>
          <path class="cls-16" d="M29.09-2.01c4.06-1.24.07,2.47.19,3.69-.91,1.25.85-1.37,2.14-5.9-.64.78-1.05,1.65-2.33,2.21Z"/>
          <polygon class="cls-16" points="38.44 65.25 37.66 65.73 36.3 64.01 36.58 65.11 38.44 65.25"/>
          <polygon class="cls-16" points="41.13 69.47 41.42 68.69 40.12 68.88 41.13 69.47"/>
          <path class="cls-16" d="M32.25,18.13c.6.44.94,1.17,1.04,2.17l-.88.64c.75-1.23-.08-2.1-.64-2.94l.48.13Z"/>
          <path class="cls-16" d="M34.42,6.69c-2.7-2.3,1.7,1.4,1-2l-1,3v-1Z"/>
          <polygon class="cls-16" points="43.23 18.99 43.72 19.37 43.18 19.99 42.18 19.94 42.23 18.94 43.23 18.99"/>
          <polygon class="cls-16" points="39.23 43.24 39.72 43.62 39.18 44.24 38.18 44.19 38.23 43.19 39.23 43.24"/>
          <polygon class="cls-16" points="39.17 49.68 39.09 49.06 39.91 49.01 40.58 49.74 39.85 50.42 39.17 49.68"/>
        </g>
        <g>
          <path class="cls-16" d="M5.49,31.1c-3.09,1.77-5.74.55-9.33-.9-.29,2.04,4.96-.2,7.9,2.05l1.44-1.15Z"/>
          <path class="cls-16" d="M-.24,46.83c3.66.56-1.51.09-1.44-1.64-3.45-1.42-1.15,2.87-2.87,3.69l1.44-5.33v.97l-1.44-.25v-.97c3.66,1.39,1.44-4.49,5.74-1.8-2.58-1.69-3.88,1.15-4.31,3.44,1.29.64,2.08-.27,2.87-.9v2.79Z"/>
          <path class="cls-16" d="M1.5,59.43c-.43-2.58-5.89.53-8.62,1.31v-1.39c.43.91,1.36.86,2.15,1.07l2.87-3.69c1.08,2.9,3.38,1.2,5.03,1.56l-1.44,1.15Z"/>
          <path class="cls-16" d="M.3,14.14c-.07-.78.14-1.65-.72-2.21-2.51-1.33-1.72,1.66-2.87,2.29-1.79,1.43.86-.41,0-1.39l-1.44-.25c1.01,2.4,4.52-3.05,2.15-5.9L.3,14.14Z"/>
          <path class="cls-16" d="M-1.19,51.72l-.51-1.39c2.75,1.03,4.02,0,3.56-2.05,1.07-1.21-1.88,1.33,1.01,2.78-3.15-1.36-3.87.62-5.09,1.8l.51,1.39c4.42.32-1.88.75-.51-1.39l.35.98-1.52-.25-.35-.98c1.52.64,1.98-.27,2.54-.9Z"/>
          <path class="cls-16" d="M-1.22,23.67l-.71.98c.84-.06,2.04-.43,1.92.33l-2.03,2.79-1.62.25-1.01,1.39c2.97-2.99,6.16-1.56,7.89-4.92-.64.78-1.06,1.65-2.33,2.21-.84.07-2.04.43-1.92-.33l-.19-2.7Z"/>
          <path class="cls-16" d="M.89,63.94c-1.4-.4-2,1.3-3,2,0,2.5.2-1-1-1l-1,1,1-2c-.3.9.5,1.4,1,2L-.11,62.94l1,1Z"/>
          <path class="cls-16" d="M-1.04,34.45c-1.35-.91-4.39-.29-3.85-3.19.25,1.07.36,2.38,1.67,2.68.95.08,1.25-.81,1.71-1.44l1.67,2.68-1.21-.74Z"/>
          <polygon class="cls-16" points=".53 38.02 -4.46 40.25 -4.94 39.95 -.59 39.51 .53 38.02"/>
        </g>
        <g>
          <path class="cls-16" d="M62.14-4.55l-3,5c-3.3,1.7,6.8-7.2-1-4l-.7.7-1-1,.7-.7c1,2,2.8-.3,4-1-2.4-1.2-2.4-3.8,0-5-3,.9-1.5,4.4,1,6Z"/>
          <path class="cls-16" d="M55.16.04c.48-.75,1.38-1.7.71-1.97l-1.62.25,1.01-1.39-2.63,1.64c3.12-1.03,4.01,0,2.82,2.05l-.3-.57Z"/>
          <path class="cls-16" d="M1.86,1.34c-4.06,1.24-.07-2.47-.19-3.69l1.62-.25L.47-4.64C3.72-3.78-1.58,1.43,1.86,1.34Z"/>
          <path class="cls-16" d="M14.52,4.41l7.3-7.99-1-.83c-1.45,1.81-1.23,3.6-3.1,5.45l-3.2,3.37Z"/>
        </g>
      </g>
    </pattern>
  </defs>
  <g>
    <rect class="cls-27" x=".57" y="542.36" width="821.71" height="48.67"/>
    <path d="M821.71,542.93v47.52H1.14v-47.52h820.57M822.85,541.79H0v49.8h822.85v-49.8h0Z"/>
  </g>
  <polygon class="cls-24" points="348.85 549.16 2.03 549.16 23.19 468.05 327.69 468.05 348.85 549.16"/>
  <g>
    <path class="cls-16" d="M25.54,465.26v-148.78c0-3.82,3.11-6.94,6.94-6.94h285.93c3.82,0,6.94,3.11,6.94,6.94v148.78H25.54Z"/>
    <path d="M318.41,312.34c2.29,0,4.15,1.86,4.15,4.15v145.99H28.33v-145.99c0-2.29,1.86-4.15,4.15-4.15h285.93M318.41,306.76H32.48c-5.37,0-9.72,4.35-9.72,9.72v151.56h305.37v-151.56c0-5.37-4.35-9.72-9.72-9.72h0Z"/>
  </g>
  <rect class="cls-20" x="1.82" y="549.16" width="347.25" height="2.66"/>
  <path class="cls-18" d="M1.82,551.82h347.25v.36c0,3.59-2.91,6.5-6.5,6.5H8.34c-3.6,0-6.52-2.92-6.52-6.52v-.34h0Z"/>
  <polygon points="221.26 543.95 129.63 543.95 135.01 529.78 215.87 529.78 221.26 543.95"/>
  <g>
    <path d="M50.5,498.42c-.41,1.78-.61,2.67-1.01,4.44-.07.29-.3.53-.53.53-10.82,0-16.23,0-27.05,0-.23,0-.35-.24-.27-.53.49-1.78.74-2.67,1.24-4.44.08-.29.33-.53.56-.53h26.78c.23,0,.36.24.29.53Z"/>
    <path d="M328.72,503.39h-13.62c-.27,0-.55-.2-.61-.44-.47-1.85-.7-2.77-1.16-4.61-.06-.24.11-.44.38-.44,5.39,0,8.09,0,13.48,0,.27,0,.55.2.61.44.51,1.85.77,2.77,1.28,4.61.07.24-.1.44-.37.44Z"/>
    <path d="M123.5,503.39h-13.62c-.27,0-.47-.2-.44-.44.22-1.85.33-2.77.55-4.61.03-.24.27-.44.54-.44h13.48c.27,0,.47.2.45.44-.17,1.85-.26,2.77-.43,4.61-.02.24-.26.44-.54.44Z"/>
    <path d="M179.47,503.39h-13.62c-.27,0-.49-.2-.49-.44.03-1.85.05-2.77.08-4.61,0-.24.23-.44.5-.44h13.48c.27,0,.49.2.49.44.02,1.85.02,2.77.04,4.61,0,.24-.22.44-.49.44Z"/>
    <path d="M160.81,503.39h-13.62c-.27,0-.49-.2-.47-.44.1-1.85.14-2.77.24-4.61.01-.24.24-.44.51-.44h13.48c.27,0,.49.2.48.44-.05,1.85-.07,2.77-.12,4.61,0,.24-.23.44-.51.44Z"/>
    <path d="M142.15,503.39h-13.62c-.27,0-.48-.2-.46-.44.16-1.85.24-2.77.4-4.61.02-.24.26-.44.53-.44h13.48c.27,0,.48.2.46.44-.11,1.85-.16,2.77-.27,4.61-.01.24-.25.44-.52.44Z"/>
    <path d="M86.18,503.39h-13.62c-.27,0-.46-.2-.41-.44.34-1.85.52-2.77.86-4.61.05-.24.3-.44.57-.44h13.48c.27,0,.46.2.42.44-.3,1.85-.44,2.77-.74,4.61-.04.24-.29.44-.57.44Z"/>
    <path d="M104.84,503.39h-13.62c-.27,0-.47-.2-.43-.44.28-1.85.42-2.77.71-4.61.04-.24.29-.44.56-.44,5.39,0,8.09,0,13.48,0,.27,0,.47.2.43.44-.23,1.85-.35,2.77-.58,4.61-.03.24-.28.44-.55.44Z"/>
    <path d="M67.53,503.39h-13.62c-.27,0-.45-.2-.4-.44.41-1.85.61-2.77,1.02-4.61.05-.24.32-.44.59-.44h13.48c.27,0,.45.2.41.44-.36,1.85-.54,2.77-.9,4.61-.05.24-.31.44-.58.44Z"/>
    <path d="M272.75,503.39h-13.62c-.27,0-.53-.2-.56-.44-.28-1.85-.42-2.77-.7-4.61-.04-.24.15-.44.42-.44h13.48c.27,0,.53.2.57.44.33,1.85.49,2.77.82,4.61.04.24-.14.44-.42.44Z"/>
    <path d="M291.41,503.39c-5.45,0-8.17,0-13.62,0-.27,0-.53-.2-.58-.44-.34-1.85-.51-2.77-.85-4.61-.04-.24.14-.44.41-.44h13.48c.27,0,.53.2.58.44.39,1.85.58,2.77.97,4.61.05.24-.13.44-.4.44Z"/>
    <path d="M310.06,503.39h-13.62c-.27,0-.54-.2-.59-.44-.4-1.85-.6-2.77-1.01-4.61-.05-.24.12-.44.39-.44h13.48c.27,0,.54.2.6.44.45,1.85.68,2.77,1.13,4.61.06.24-.11.44-.39.44Z"/>
    <path d="M254.09,503.39h-13.62c-.27,0-.52-.2-.55-.44-.22-1.85-.32-2.77-.54-4.61-.03-.24.17-.44.44-.44h13.48c.27,0,.52.2.55.44.26,1.85.4,2.77.66,4.61.03.24-.16.44-.43.44Z"/>
    <path d="M216.78,503.39h-13.62c-.27,0-.51-.2-.52-.44-.09-1.85-.14-2.77-.23-4.61-.01-.24.2-.44.47-.44h13.48c.27,0,.51.2.52.44.14,1.85.21,2.77.35,4.61.02.24-.19.44-.46.44Z"/>
    <path d="M235.44,503.39h-13.62c-.27,0-.51-.2-.53-.44-.15-1.85-.23-2.77-.38-4.61-.02-.24.18-.44.45-.44h13.48c.27,0,.51.2.54.44.2,1.85.3,2.77.51,4.61.03.24-.17.44-.45.44Z"/>
    <path d="M198.12,503.39h-13.62c-.27,0-.5-.2-.5-.44-.03-1.85-.04-2.77-.07-4.61,0-.24.21-.44.48-.44h13.48c.27,0,.5.2.51.44.08,1.85.12,2.77.19,4.61.01.24-.2.44-.48.44Z"/>
  </g>
  <g>
    <path d="M38.57,485.26c-5.35,0-8.02,0-13.37,0-.25,0-.39-.18-.32-.41.5-1.57.74-2.35,1.24-3.92.07-.23.33-.41.58-.41h13.24c.25,0,.39.18.33.41-.45,1.57-.67,2.35-1.12,3.92-.06.23-.32.41-.57.41Z"/>
    <path d="M324.96,485.26c-5.35,0-8.02,0-13.37,0-.25,0-.5-.18-.57-.41-.45-1.57-.67-2.35-1.12-3.92-.06-.23.08-.41.33-.41h13.24c.25,0,.5.18.58.41.5,1.57.74,2.35,1.24,3.92.07.23-.07.41-.32.41Z"/>
    <path d="M129.65,485.26h-13.37c-.25,0-.43-.18-.4-.41.2-1.57.29-2.35.49-3.92.03-.23.25-.41.5-.41h13.24c.25,0,.43.18.41.41-.15,1.57-.22,2.35-.37,3.92-.02.23-.24.41-.49.41Z"/>
    <path d="M184.3,485.26h-13.37c-.25,0-.45-.18-.45-.41.02-1.57.02-2.35.04-3.92,0-.23.2-.41.45-.41h13.24c.25,0,.45.18.46.41.03,1.57.05,2.35.08,3.92,0,.23-.19.41-.44.41Z"/>
    <path d="M166.08,485.26h-13.37c-.25,0-.44-.18-.43-.41.08-1.57.11-2.35.19-3.92.01-.23.22-.41.47-.41h13.24c.25,0,.44.18.44.41-.03,1.57-.04,2.35-.07,3.92,0,.23-.21.41-.46.41Z"/>
    <path d="M147.87,485.26c-5.35,0-8.02,0-13.37,0-.25,0-.44-.18-.42-.41.14-1.57.2-2.35.34-3.92.02-.23.24-.41.48-.41h13.24c.25,0,.44.18.42.41-.09,1.57-.13,2.35-.22,3.92-.01.23-.22.41-.47.41Z"/>
    <path d="M93.22,485.26h-13.37c-.25,0-.41-.18-.37-.41.32-1.57.47-2.35.79-3.92.05-.23.28-.41.53-.41h13.24c.25,0,.42.18.38.41-.27,1.57-.4,2.35-.67,3.92-.04.23-.27.41-.52.41Z"/>
    <path d="M111.43,485.26h-13.37c-.25,0-.42-.18-.38-.41.26-1.57.38-2.35.64-3.92.04-.23.27-.41.51-.41h13.24c.25,0,.42.18.39.41-.21,1.57-.31,2.35-.52,3.92-.03.23-.26.41-.51.41Z"/>
    <path d="M75,485.26h-13.37c-.25,0-.41-.18-.35-.41.38-1.57.56-2.35.94-3.92.05-.23.3-.41.54-.41,5.3,0,7.94,0,13.24,0,.25,0,.41.18.36.41-.33,1.57-.49,2.35-.82,3.92-.05.23-.29.41-.54.41Z"/>
    <path d="M56.78,485.26h-13.37c-.25,0-.4-.18-.34-.41.44-1.57.65-2.35,1.09-3.92.06-.23.31-.41.56-.41h13.24c.25,0,.4.18.35.41-.39,1.57-.58,2.35-.97,3.92-.06.23-.3.41-.55.41Z"/>
    <path d="M275.39,485.26h-13.37c-.25,0-.48-.18-.53-.41-.29-1.57-.43-2.35-.71-3.92-.04-.23.13-.41.37-.41h13.24c.25,0,.49.18.53.41.33,1.57.5,2.35.83,3.92.05.23-.12.41-.36.41Z"/>
    <g>
      <path d="M293.6,485.26h-13.37c-.25,0-.49-.18-.54-.41-.34-1.57-.52-2.35-.86-3.92-.05-.23.11-.41.36-.41,5.3,0,7.94,0,13.24,0,.25,0,.49.18.55.41.39,1.57.59,2.35.98,3.92.06.23-.1.41-.35.41Z"/>
      <path d="M306.75,485.26h-13.37c-.25,0-.5-.18-.55-.41-.39-1.57-.58-2.35-.97-3.92-.06-.23.1-.41.35-.41h13.24c.25,0,.5.18.56.41.44,1.57.65,2.35,1.09,3.92.06.23-.09.41-.34.41Z"/>
    </g>
    <path d="M257.17,485.26h-13.37c-.25,0-.48-.18-.51-.41-.23-1.57-.34-2.35-.56-3.92-.03-.23.14-.41.39-.41h13.24c.25,0,.48.18.52.41.27,1.57.41,2.35.68,3.92.04.23-.13.41-.38.41Z"/>
    <path d="M220.73,485.26h-13.37c-.25,0-.46-.18-.48-.41-.1-1.57-.16-2.35-.26-3.92-.02-.23.17-.41.42-.41h13.24c.25,0,.46.18.49.41.15,1.57.23,2.35.38,3.92.02.23-.16.41-.41.41Z"/>
    <path d="M238.95,485.26h-13.37c-.25,0-.47-.18-.49-.41-.16-1.57-.25-2.35-.41-3.92-.02-.23.16-.41.4-.41h13.24c.25,0,.47.18.5.41.21,1.57.32,2.35.53,3.92.03.23-.15.41-.4.41Z"/>
    <path d="M202.52,485.26h-13.37c-.25,0-.46-.18-.46-.41-.04-1.57-.07-2.35-.11-3.92,0-.23.19-.41.43-.41h13.24c.25,0,.46.18.47.41.09,1.57.14,2.35.23,3.92.01.23-.18.41-.43.41Z"/>
  </g>
  <g>
    <path d="M41.45,476.58h-13.26c-.22,0-.33-.15-.26-.34.48-1.16.71-1.74,1.19-2.9.08-.19.32-.34.54-.34h13.13c.22,0,.34.15.27.34-.43,1.16-.65,1.74-1.08,2.9-.07.19-.31.34-.53.34Z"/>
    <path d="M323.52,476.58c-5.31,0-7.96,0-13.26,0-.22,0-.46-.15-.53-.34-.43-1.16-.65-1.74-1.08-2.9-.07-.19.05-.34.27-.34h13.13c.22,0,.46.15.54.34.48,1.16.71,1.74,1.19,2.9.08.19-.04.34-.26.34Z"/>
    <path d="M129.6,476.58c-5.31,0-7.96,0-13.26,0-.22,0-.37-.15-.34-.34.19-1.16.29-1.74.48-2.9.03-.19.23-.34.45-.34h13.13c.22,0,.37.15.35.34-.15,1.16-.22,1.74-.37,2.9-.02.19-.22.34-.44.34Z"/>
    <path d="M182.49,476.58h-13.26c-.22,0-.4-.15-.39-.34.02-1.16.03-1.74.06-2.9,0-.19.18-.34.4-.34h13.13c.22,0,.4.15.4.34.02,1.16.03,1.74.06,2.9,0,.19-.17.34-.39.34Z"/>
    <path d="M164.86,476.58h-13.26c-.22,0-.39-.15-.37-.34.08-1.16.12-1.74.2-2.9.01-.19.2-.34.42-.34h13.13c.22,0,.39.15.38.34-.03,1.16-.05,1.74-.09,2.9,0,.19-.19.34-.41.34Z"/>
    <path d="M147.23,476.58h-13.26c-.22,0-.38-.15-.36-.34.14-1.16.2-1.74.34-2.9.02-.19.22-.34.43-.34h13.13c.22,0,.38.15.37.34-.09,1.16-.14,1.74-.23,2.9-.01.19-.21.34-.43.34Z"/>
    <path d="M94.34,476.58h-13.26c-.22,0-.36-.15-.31-.34.31-1.16.46-1.74.76-2.9.05-.19.27-.34.49-.34h13.13c.22,0,.36.15.32.34-.26,1.16-.39,1.74-.65,2.9-.04.19-.26.34-.48.34Z"/>
    <path d="M111.97,476.58h-13.26c-.22,0-.37-.15-.32-.34.25-1.16.37-1.74.62-2.9.04-.19.25-.34.47-.34h13.13c.22,0,.37.15.33.34-.2,1.16-.31,1.74-.51,2.9-.03.19-.24.34-.46.34Z"/>
    <path d="M76.71,476.58h-13.26c-.22,0-.35-.15-.29-.34.36-1.16.54-1.74.91-2.9.06-.19.28-.34.5-.34h13.13c.22,0,.35.15.3.34-.32,1.16-.48,1.74-.79,2.9-.05.19-.27.34-.49.34Z"/>
    <path d="M59.08,476.58h-13.26c-.22,0-.34-.15-.27-.34.42-1.16.63-1.74,1.05-2.9.07-.19.3-.34.52-.34h13.13c.22,0,.34.15.28.34-.37,1.16-.56,1.74-.94,2.9-.06.19-.29.34-.51.34Z"/>
    <path d="M270.63,476.58h-13.26c-.22,0-.43-.15-.48-.34-.26-1.16-.39-1.74-.65-2.9-.04-.19.1-.34.32-.34h13.13c.22,0,.44.15.49.34.31,1.16.46,1.74.77,2.9.05.19-.09.34-.31.34Z"/>
    <path d="M288.26,476.58h-13.26c-.22,0-.44-.15-.49-.34-.32-1.16-.48-1.74-.79-2.9-.05-.19.08-.34.3-.34h13.13c.22,0,.44.15.5.34.36,1.16.54,1.74.91,2.9.06.19-.07.34-.29.34Z"/>
    <path d="M305.89,476.58c-5.31,0-7.96,0-13.26,0-.22,0-.45-.15-.51-.34-.37-1.16-.56-1.74-.94-2.9-.06-.19.07-.34.28-.34h13.13c.22,0,.45.15.52.34.42,1.16.63,1.74,1.05,2.9.07.19-.05.34-.27.34Z"/>
    <path d="M253,476.58c-5.31,0-7.96,0-13.26,0-.22,0-.43-.15-.46-.34-.2-1.16-.31-1.74-.51-2.9-.03-.19.12-.34.33-.34h13.13c.22,0,.43.15.47.34.25,1.16.37,1.74.62,2.9.04.19-.1.34-.32.34Z"/>
    <path d="M217.74,476.58h-13.26c-.22,0-.41-.15-.43-.34-.09-1.16-.14-1.74-.23-2.9-.01-.19.15-.34.37-.34h13.13c.22,0,.41.15.43.34.14,1.16.2,1.74.34,2.9.02.19-.14.34-.36.34Z"/>
    <path d="M235.37,476.58h-13.26c-.22,0-.42-.15-.44-.34-.15-1.16-.22-1.74-.37-2.9-.02-.19.13-.34.35-.34h13.13c.22,0,.42.15.45.34.19,1.16.29,1.74.48,2.9.03.19-.12.34-.34.34Z"/>
    <path d="M200.11,476.58c-5.31,0-7.96,0-13.26,0-.22,0-.4-.15-.41-.34-.03-1.16-.05-1.74-.09-2.9,0-.19.17-.34.38-.34h13.13c.22,0,.4.15.42.34.08,1.16.12,1.74.2,2.9.01.19-.15.34-.37.34Z"/>
  </g>
  <g>
    <path d="M37.42,493.55h-13.59c-.22,0-.34-.24-.26-.54.49-1.81.73-2.72,1.22-4.53.08-.3.33-.54.55-.54h13.45c.22,0,.34.24.27.54-.44,1.81-.66,2.72-1.1,4.53-.07.3-.31.54-.54.54Z"/>
    <path d="M326.33,493.55c-5.44,0-8.15,0-13.59,0-.22,0-.46-.24-.54-.54-.44-1.81-.66-2.72-1.1-4.53-.07-.3.05-.54.27-.54h13.45c.22,0,.47.24.55.54.49,1.81.73,2.72,1.22,4.53.08.3-.04.54-.26.54Z"/>
    <path d="M127.7,493.55h-13.59c-.22,0-.38-.24-.35-.54.2-1.81.3-2.72.49-4.53.03-.3.24-.54.46-.54h13.45c.22,0,.38.24.36.54-.15,1.81-.23,2.72-.38,4.53-.02.3-.23.54-.45.54Z"/>
    <path d="M181.87,493.55c-5.44,0-8.15,0-13.59,0-.22,0-.4-.24-.4-.54.02-1.81.03-2.72.06-4.53,0-.3.19-.54.41-.54h13.45c.22,0,.4.24.41.54.02,1.81.03,2.72.06,4.53,0,.3-.17.54-.4.54Z"/>
    <path d="M163.82,493.55h-13.59c-.22,0-.39-.24-.38-.54.08-1.81.12-2.72.2-4.53.01-.3.2-.54.43-.54h13.45c.22,0,.4.24.39.54-.04,1.81-.05,2.72-.09,4.53,0,.3-.19.54-.42.54Z"/>
    <path d="M145.76,493.55c-5.44,0-8.15,0-13.59,0-.22,0-.39-.24-.36-.54.14-1.81.21-2.72.35-4.53.02-.3.22-.54.44-.54h13.45c.22,0,.39.24.37.54-.09,1.81-.14,2.72-.23,4.53-.02.3-.21.54-.43.54Z"/>
    <path d="M91.59,493.55h-13.59c-.22,0-.36-.24-.31-.54.31-1.81.47-2.72.78-4.53.05-.3.27-.54.5-.54h13.45c.22,0,.37.24.32.54-.27,1.81-.4,2.72-.67,4.53-.04.3-.26.54-.49.54Z"/>
    <path d="M109.64,493.55c-5.44,0-8.15,0-13.59,0-.22,0-.37-.24-.33-.54.26-1.81.38-2.72.64-4.53.04-.3.26-.54.48-.54h13.45c.22,0,.37.24.34.54-.21,1.81-.31,2.72-.52,4.53-.03.3-.24.54-.47.54Z"/>
    <path d="M73.53,493.55h-13.59c-.22,0-.36-.24-.29-.54.37-1.81.56-2.72.93-4.53.06-.3.29-.54.51-.54,5.38,0,8.07,0,13.45,0,.22,0,.36.24.3.54-.32,1.81-.49,2.72-.81,4.53-.05.3-.28.54-.5.54Z"/>
    <path d="M55.47,493.55c-5.44,0-8.15,0-13.59,0-.22,0-.35-.24-.28-.54.43-1.81.64-2.72,1.07-4.53.07-.3.31-.54.53-.54h13.45c.22,0,.35.24.29.54-.38,1.81-.57,2.72-.96,4.53-.06.3-.3.54-.52.54Z"/>
    <path d="M272.16,493.55c-5.44,0-8.15,0-13.59,0-.22,0-.44-.24-.49-.54-.27-1.81-.4-2.72-.67-4.53-.04-.3.1-.54.32-.54h13.45c.22,0,.44.24.5.54.31,1.81.47,2.72.78,4.53.05.3-.09.54-.31.54Z"/>
    <path d="M290.21,493.55h-13.59c-.22,0-.45-.24-.5-.54-.32-1.81-.49-2.72-.81-4.53-.05-.3.08-.54.3-.54,5.38,0,8.07,0,13.45,0,.22,0,.45.24.51.54.37,1.81.56,2.72.93,4.53.06.3-.07.54-.29.54Z"/>
    <path d="M308.27,493.55h-13.59c-.22,0-.46-.24-.52-.54-.38-1.81-.57-2.72-.96-4.53-.06-.3.07-.54.29-.54h13.45c.22,0,.46.24.53.54.43,1.81.64,2.72,1.07,4.53.07.3-.05.54-.28.54Z"/>
    <path d="M254.1,493.55h-13.59c-.22,0-.43-.24-.47-.54-.21-1.81-.31-2.72-.52-4.53-.03-.3.12-.54.34-.54h13.45c.22,0,.44.24.48.54.25,1.81.38,2.72.64,4.53.04.3-.11.54-.33.54Z"/>
    <path d="M217.99,493.55h-13.59c-.22,0-.42-.24-.43-.54-.09-1.81-.14-2.72-.23-4.53-.02-.3.15-.54.37-.54h13.45c.22,0,.42.24.44.54.14,1.81.21,2.72.35,4.53.02.3-.14.54-.36.54Z"/>
    <path d="M236.04,493.55h-13.59c-.22,0-.43-.24-.45-.54-.15-1.81-.23-2.72-.38-4.53-.02-.3.13-.54.36-.54h13.45c.22,0,.43.24.46.54.2,1.81.3,2.72.49,4.53.03.3-.12.54-.35.54Z"/>
    <path d="M199.93,493.55h-13.59c-.22,0-.41-.24-.42-.54-.03-1.81-.05-2.72-.09-4.53,0-.3.17-.54.39-.54h13.45c.22,0,.41.24.43.54.08,1.81.12,2.72.2,4.53.01.3-.16.54-.38.54Z"/>
  </g>
  <g>
    <path d="M49.53,508.02c-.41,1.77-.61,2.66-1.02,4.43-.07.29-.31.53-.54.53h-27.57c-.23,0-.35-.23-.27-.53.5-1.77.75-2.66,1.25-4.43.08-.29.33-.53.56-.53,10.92,0,16.38,0,27.3,0,.23,0,.36.23.29.53Z"/>
    <path d="M124.97,512.97h-13.82c-.26,0-.45-.21-.42-.46.21-1.82.32-2.73.54-4.55.03-.26.27-.46.52-.46h13.69c.26,0,.45.21.43.46-.17,1.82-.25,2.73-.41,4.55-.02.26-.25.46-.52.46Z"/>
    <path d="M182.77,512.97h-13.82c-.26,0-.47-.21-.47-.46.02-1.82.04-2.73.06-4.55,0-.26.22-.46.48-.46h13.69c.26,0,.47.21.48.46.03,1.82.04,2.73.06,4.55,0,.26-.21.46-.47.46Z"/>
    <path d="M163.5,512.97h-13.82c-.26,0-.46-.21-.45-.46.09-1.82.13-2.73.22-4.55.01-.26.23-.46.49-.46h13.69c.26,0,.47.21.46.46-.04,1.82-.06,2.73-.1,4.55,0,.26-.22.46-.48.46Z"/>
    <path d="M144.24,512.97h-13.82c-.26,0-.46-.21-.44-.46.15-1.82.23-2.73.38-4.55.02-.26.25-.46.51-.46h13.69c.26,0,.46.21.44.46-.1,1.82-.15,2.73-.25,4.55-.01.26-.24.46-.5.46Z"/>
    <path d="M86.44,512.97h-13.82c-.26,0-.44-.21-.39-.46.34-1.82.51-2.73.85-4.55.05-.26.3-.46.56-.46h13.69c.26,0,.44.21.4.46-.29,1.82-.44,2.73-.73,4.55-.04.26-.29.46-.55.46Z"/>
    <path d="M105.71,512.97h-13.82c-.26,0-.44-.21-.4-.46.28-1.82.42-2.73.7-4.55.04-.26.28-.46.54-.46,5.47,0,8.21,0,13.69,0,.26,0,.44.21.41.46-.23,1.82-.34,2.73-.57,4.55-.03.26-.27.46-.53.46Z"/>
    <path d="M67.17,512.97h-13.82c-.26,0-.43-.21-.37-.46.41-1.82.61-2.73,1.01-4.55.06-.26.31-.46.57-.46h13.69c.26,0,.43.21.38.46-.36,1.82-.53,2.73-.89,4.55-.05.26-.3.46-.57.46Z"/>
    <path d="M279.1,512.97h-13.82c-.26,0-.51-.21-.55-.46-.29-1.82-.44-2.73-.74-4.55-.04-.26.14-.46.39-.46h13.69c.26,0,.51.21.56.46.34,1.82.52,2.73.86,4.55.05.26-.13.46-.39.46Z"/>
    <path d="M298.37,512.97h-13.82c-.26,0-.52-.21-.57-.46-.36-1.82-.54-2.73-.9-4.55-.05-.26.12-.46.38-.46,5.47,0,8.21,0,13.69,0,.26,0,.52.21.57.46.41,1.82.61,2.73,1.02,4.55.06.26-.11.46-.37.46Z"/>
    <path d="M329.76,508.02c.5,1.77.75,2.66,1.25,4.43.08.29-.04.53-.27.53h-26.99c-.23,0-.47-.23-.54-.53-.41-1.77-.62-2.66-1.03-4.43-.07-.29.06-.53.29-.53h26.72c.23,0,.48.23.56.53Z"/>
    <path d="M259.83,512.97h-13.82c-.26,0-.5-.21-.53-.46-.23-1.82-.35-2.73-.58-4.55-.03-.26.15-.46.41-.46h13.69c.26,0,.5.21.54.46.28,1.82.42,2.73.7,4.55.04.26-.14.46-.4.46Z"/>
    <path d="M221.3,512.97h-13.82c-.26,0-.49-.21-.5-.46-.1-1.82-.16-2.73-.26-4.55-.01-.26.18-.46.44-.46h13.69c.26,0,.49.21.51.46.15,1.82.23,2.73.38,4.55.02.26-.17.46-.44.46Z"/>
    <path d="M240.57,512.97h-13.82c-.26,0-.49-.21-.52-.46-.17-1.82-.25-2.73-.42-4.55-.02-.26.17-.46.43-.46h13.69c.26,0,.49.21.53.46.22,1.82.32,2.73.54,4.55.03.26-.16.46-.42.46Z"/>
    <path d="M202.04,512.97h-13.82c-.26,0-.48-.21-.49-.46-.04-1.82-.06-2.73-.1-4.55,0-.26.2-.46.46-.46h13.69c.26,0,.48.21.49.46.09,1.82.13,2.73.22,4.55.01.26-.19.46-.45.46Z"/>
  </g>
  <g>
    <path d="M36.47,524.96c-7.29,0-10.93,0-18.22,0-.32,0-.52-.26-.45-.58.5-2.11.76-3.17,1.26-5.28.08-.32.4-.58.72-.58h18.04c.32,0,.52.26.46.58-.44,2.11-.66,3.17-1.1,5.28-.07.32-.38.58-.71.58Z"/>
    <path d="M123.12,524.96h-24.43c-.37,0-.64-.3-.6-.67.24-2.04.36-3.06.6-5.1.04-.37.38-.67.75-.67h24.19c.37,0,.64.3.62.67-.16,2.04-.24,3.06-.4,5.1-.03.37-.35.67-.73.67Z"/>
    <path d="M228.19,519.25c.16,2.04.25,3.06.41,5.1.03.34-.2.61-.52.61h-18.86c-.31,0-.6-.61-.6-.61,0,0-.22.61-.53.61h-18.86c-.31,0-.58-.61-.58-.61,0,0-.24.61-.55.61h-18.86c-.18,0-.34-.09-.45-.24-.11.14-.27.24-.45.24h-36.69c-.31,0-.55-.27-.53-.61.14-2.04.2-3.06.34-5.1.02-.33.3-.61.61-.61h36.34c.18,0,.35.1.44.24.1-.14.26-.24.45-.24h18.68c.31,0,.57.61.57.61,0,0,.24-.61.55-.61h18.68c.31,0,.59.61.59.61,0,0,.22-.61.53-.61h18.68c.31,0,.58.28.61.61Z"/>
    <path d="M90.14,524.96h-17.49c-.32,0-.53-.26-.48-.57.33-2.12.5-3.18.83-5.3.05-.31.34-.57.66-.57,6.93,0,10.39,0,17.32,0,.31,0,.54.26.49.57-.27,2.12-.41,3.18-.68,5.3-.04.31-.33.57-.65.57Z"/>
    <path d="M64.18,524.96h-19.22c-.33,0-.55-.27-.48-.6.42-2.1.62-3.15,1.04-5.25.07-.33.38-.6.71-.6h19.03c.33,0,.55.27.49.6-.35,2.1-.53,3.15-.88,5.25-.06.33-.37.6-.7.6Z"/>
    <g>
      <path d="M332.59,524.96h-14.12c-.24,0-.47-.19-.52-.42-.31-1.43-.46-2.14-.77-3.57-.05-.23.1-.42.33-.42h14.03c.23,0,.47.19.52.42.34,1.43.51,2.14.85,3.57.06.23-.09.42-.32.42Z"/>
      <path d="M295.04,524.96h-14.12c-.24,0-.46-.19-.49-.42-.23-1.43-.34-2.14-.57-3.57-.04-.23.12-.42.36-.42h14.03c.23,0,.46.19.5.42.26,1.43.39,2.14.65,3.57.04.23-.11.42-.35.42Z"/>
      <path d="M312.92,520.43h-14.13c-.2,0-.4-.17-.44-.37-.2-1.05-.29-1.57-.49-2.62-.04-.2.09-.37.3-.37h14.06c.2,0,.4.17.44.37.22,1.05.33,1.57.55,2.62.04.2-.09.37-.29.37Z"/>
      <path d="M313.87,524.96c-5.69,0-8.54,0-14.23,0-.2,0-.4-.16-.44-.37-.19-1.04-.29-1.56-.49-2.59-.04-.2.1-.37.3-.37h14.16c.2,0,.4.16.44.37.22,1.04.33,1.56.55,2.59.04.2-.09.37-.29.37Z"/>
    </g>
    <path d="M272.68,524.96h-13.95c-.28,0-.54-.23-.57-.51-.27-2.12-.4-3.18-.67-5.3-.04-.28.16-.51.44-.51h13.82c.28,0,.54.23.58.51.31,2.12.47,3.18.79,5.3.04.28-.15.51-.43.51Z"/>
    <path d="M250.41,524.96h-13.95c-.28,0-.53-.23-.56-.51-.19-2.12-.29-3.18-.49-5.3-.03-.28.18-.51.46-.51h13.82c.28,0,.53.23.56.51.24,2.12.36,3.18.61,5.3.03.28-.17.51-.45.51Z"/>
  </g>
  <line class="cls-7" x1="571.89" y1="902.05" x2="1367.66" y2="73.44"/>
  <rect class="cls-15" x="994.02" y="513.63" width="919.39" height="349.2"/>
  <rect class="cls-16" x="987.44" y="588.14" width="932.56" height="198.19"/>
  <rect class="cls-19" x="987.44" y="588.14" width="932.56" height="198.19"/>
  <circle class="cls-23" cx="1476.99" cy="696.35" r="126.68"/>
  <circle class="cls-2" cx="1476.99" cy="696.35" r="113.81"/>
  <path class="cls-14" d="M1657.2,777.54c0-47.4.87-78.2.87-125.6l-.87-27.74s-12.03,20.06-13.04,23.49c0,0,0,.02-.02.06-1.46,4.43-1.67,9.55-.62,14.23.01.05.02.1.03.15,2.35,10.38,6.58,19.55,12.15,26.57l2.17,2.74"/>
  <g>
    <path class="cls-6" d="M1274.08,611.04c4.79,25.21,14.69,63.96,30.55,65.32.63.06,1.27.05,1.93-.02,2.95-.31,5.48-2,7.65-4.69,9-11.23,11.68-40.07,12.41-60.62"/>
    <polyline class="cls-4" points="1311.05 790.69 1304.62 676.36 1300.95 611.04"/>
    <line class="cls-5" x1="1294.32" y1="669.64" x2="1286.49" y2="611.04"/>
    <polyline class="cls-3" points="1313.48 611.04 1314.2 671.65 1314.2 671.94"/>
  </g>
  <rect class="cls-17" x="1397.02" y="621.7" width="74.2" height="123.66"/>
  <rect class="cls-17" x="1483.4" y="653.11" width="72.52" height="120.87"/>
  <ellipse class="cls-9" cx="1435.89" cy="652.57" rx="26.97" ry="37.75" transform="translate(-87.39 1061.53) rotate(-39.47)"/>
  <ellipse class="cls-26" cx="1435.89" cy="652.57" rx="14.52" ry="18.45" transform="translate(-104.59 991.02) rotate(-36.83)"/>
  <ellipse class="cls-9" cx="1431.38" cy="707.19" rx="26.97" ry="37.75" transform="translate(-123.14 1071.11) rotate(-39.47)"/>
  <ellipse class="cls-26" cx="1431.38" cy="707.19" rx="14.52" ry="18.45" transform="translate(-138.23 999.22) rotate(-36.83)"/>
  <line class="cls-8" x1="1428.7" y1="639.42" x2="1431.15" y2="645.4"/>
  <line class="cls-8" x1="1440.81" y1="650.52" x2="1443.26" y2="656.5"/>
  <line class="cls-8" x1="1420.07" y1="650.52" x2="1422.51" y2="656.5"/>
  <line class="cls-8" x1="1431.93" y1="660.37" x2="1434.38" y2="666.34"/>
  <line class="cls-8" x1="1445.74" y1="666.18" x2="1448.18" y2="672.16"/>
  <line class="cls-8" x1="1424.59" y1="670.91" x2="1427.03" y2="676.89"/>
  <line class="cls-8" x1="1453.51" y1="658.44" x2="1455.95" y2="664.42"/>
  <line class="cls-8" x1="1442.81" y1="635.94" x2="1445.25" y2="641.92"/>
  <line class="cls-8" x1="1436.36" y1="680.69" x2="1438.81" y2="686.67"/>
  <line class="cls-8" x1="1425.96" y1="680.22" x2="1428.41" y2="674.24"/>
  <line class="cls-8" x1="1438.07" y1="669.12" x2="1440.52" y2="663.14"/>
  <line class="cls-8" x1="1417.33" y1="669.12" x2="1419.78" y2="663.14"/>
  <line class="cls-8" x1="1429.19" y1="659.27" x2="1431.64" y2="653.29"/>
  <line class="cls-8" x1="1443" y1="653.46" x2="1445.44" y2="647.48"/>
  <line class="cls-8" x1="1421.85" y1="648.73" x2="1424.29" y2="642.75"/>
  <line class="cls-8" x1="1450.77" y1="661.2" x2="1453.22" y2="655.22"/>
  <line class="cls-8" x1="1440.07" y1="683.7" x2="1442.51" y2="677.72"/>
  <line class="cls-8" x1="1433.63" y1="638.95" x2="1436.07" y2="632.97"/>
  <line class="cls-8" x1="1426.41" y1="680.93" x2="1428.86" y2="686.9"/>
  <line class="cls-8" x1="1438.52" y1="692.02" x2="1440.97" y2="698"/>
  <line class="cls-8" x1="1417.78" y1="692.02" x2="1420.22" y2="698"/>
  <line class="cls-8" x1="1429.64" y1="701.87" x2="1432.08" y2="707.85"/>
  <line class="cls-8" x1="1443.44" y1="707.68" x2="1445.89" y2="713.66"/>
  <line class="cls-8" x1="1422.29" y1="712.41" x2="1424.74" y2="718.39"/>
  <line class="cls-8" x1="1451.22" y1="699.94" x2="1453.66" y2="705.92"/>
  <line class="cls-8" x1="1440.51" y1="677.44" x2="1442.96" y2="683.42"/>
  <line class="cls-8" x1="1434.07" y1="722.19" x2="1436.52" y2="728.17"/>
  <line class="cls-8" x1="1423.67" y1="721.72" x2="1426.12" y2="715.74"/>
  <line class="cls-8" x1="1435.78" y1="710.62" x2="1438.23" y2="704.64"/>
  <line class="cls-8" x1="1415.04" y1="710.62" x2="1417.48" y2="704.64"/>
  <line class="cls-8" x1="1426.9" y1="700.77" x2="1429.34" y2="694.8"/>
  <line class="cls-8" x1="1440.7" y1="694.96" x2="1443.15" y2="688.98"/>
  <line class="cls-8" x1="1419.55" y1="690.23" x2="1422" y2="684.25"/>
  <line class="cls-8" x1="1448.48" y1="702.7" x2="1450.92" y2="696.73"/>
  <line class="cls-8" x1="1437.77" y1="725.2" x2="1440.22" y2="719.22"/>
  <line class="cls-8" x1="1431.33" y1="680.45" x2="1433.78" y2="674.47"/>
  <circle class="cls-10" cx="1517.84" cy="679.45" r="29.78"/>
  <circle class="cls-25" cx="1517.84" cy="679.45" r="29.78"/>
  <g>
    <path class="cls-22" d="M82.04,383.77l-4.18-12.8h1.79l1.99,6.31c.55,1.73,1.03,3.29,1.37,4.79h.04c.36-1.48.89-3.1,1.46-4.77l2.17-6.33h1.77l-4.58,12.8h-1.82Z"/>
    <path class="cls-22" d="M91.48,370.96v12.8h-1.65v-12.8h1.65Z"/>
    <path class="cls-22" d="M104.11,383.2c-.74.27-2.2.7-3.93.7-1.94,0-3.53-.49-4.79-1.69-1.1-1.06-1.79-2.77-1.79-4.77.02-3.82,2.64-6.61,6.93-6.61,1.48,0,2.64.32,3.19.59l-.4,1.35c-.68-.3-1.54-.55-2.83-.55-3.12,0-5.15,1.94-5.15,5.15s1.96,5.17,4.94,5.17c1.08,0,1.82-.15,2.2-.34v-3.82h-2.6v-1.33h4.22v6.16Z"/>
    <path class="cls-22" d="M109.07,372.37h-3.89v-1.41h9.48v1.41h-3.91v11.4h-1.67v-11.4Z"/>
    <path class="cls-22" d="M117.74,370.96v12.8h-1.65v-12.8h1.65Z"/>
    <path class="cls-22" d="M130.37,383.2c-.74.27-2.2.7-3.93.7-1.94,0-3.53-.49-4.79-1.69-1.1-1.06-1.79-2.77-1.79-4.77.02-3.82,2.64-6.61,6.93-6.61,1.48,0,2.64.32,3.19.59l-.4,1.35c-.68-.3-1.54-.55-2.83-.55-3.12,0-5.15,1.94-5.15,5.15s1.96,5.17,4.94,5.17c1.08,0,1.82-.15,2.2-.34v-3.82h-2.6v-1.33h4.22v6.16Z"/>
    <path class="cls-22" d="M138.58,370.96v12.8h-1.65v-12.8h1.65Z"/>
    <path class="cls-22" d="M141.47,383.77v-12.8h1.8l4.1,6.48c.95,1.5,1.69,2.85,2.3,4.16l.04-.02c-.15-1.71-.19-3.27-.19-5.26v-5.36h1.56v12.8h-1.67l-4.07-6.5c-.89-1.42-1.75-2.89-2.39-4.27l-.06.02c.09,1.61.13,3.15.13,5.28v5.47h-1.56Z"/>
    <path class="cls-22" d="M153.97,370.96h6.9v1.39h-5.24v4.26h4.84v1.37h-4.84v5.79h-1.65v-12.8Z"/>
    <path class="cls-22" d="M174.17,377.23c0,4.41-2.68,6.74-5.95,6.74s-5.76-2.62-5.76-6.5c0-4.07,2.53-6.73,5.95-6.73s5.76,2.68,5.76,6.48ZM164.23,377.44c0,2.74,1.48,5.19,4.08,5.19s4.1-2.41,4.1-5.32c0-2.55-1.33-5.21-4.08-5.21s-4.1,2.53-4.1,5.34Z"/>
    <path class="cls-22" d="M176.32,371.13c.84-.17,2.03-.27,3.17-.27,1.77,0,2.91.32,3.7,1.04.65.57,1.01,1.44,1.01,2.43,0,1.69-1.06,2.81-2.41,3.27v.06c.99.34,1.58,1.25,1.88,2.58.42,1.79.72,3.02.99,3.51h-1.71c-.21-.36-.49-1.46-.85-3.06-.38-1.77-1.06-2.43-2.56-2.49h-1.56v5.55h-1.65v-12.63ZM177.97,376.97h1.69c1.77,0,2.89-.97,2.89-2.43,0-1.65-1.2-2.38-2.94-2.39-.8,0-1.37.08-1.63.15v4.67Z"/>
    <path class="cls-22" d="M197.33,378.14c-.1-1.79-.21-3.93-.19-5.53h-.06c-.44,1.5-.97,3.1-1.61,4.86l-2.26,6.21h-1.25l-2.07-6.1c-.61-1.8-1.12-3.46-1.48-4.98h-.04c-.04,1.6-.13,3.74-.25,5.66l-.34,5.49h-1.58l.89-12.8h2.11l2.18,6.19c.53,1.58.97,2.98,1.29,4.31h.06c.32-1.29.78-2.7,1.35-4.31l2.28-6.19h2.11l.8,12.8h-1.61l-.32-5.62Z"/>
    <path class="cls-22" d="M203.69,379.74l-1.33,4.03h-1.71l4.35-12.8h1.99l4.37,12.8h-1.77l-1.37-4.03h-4.54ZM207.89,378.45l-1.25-3.69c-.28-.84-.48-1.6-.67-2.34h-.04c-.19.76-.4,1.54-.65,2.32l-1.25,3.7h3.86Z"/>
    <path class="cls-22" d="M214.22,372.37h-3.89v-1.41h9.48v1.41h-3.91v11.4h-1.67v-11.4Z"/>
    <path class="cls-22" d="M222.88,370.96v12.8h-1.65v-12.8h1.65Z"/>
    <path class="cls-22" d="M236.71,377.23c0,4.41-2.68,6.74-5.95,6.74s-5.76-2.62-5.76-6.5c0-4.07,2.53-6.73,5.95-6.73s5.76,2.68,5.76,6.48ZM226.78,377.44c0,2.74,1.48,5.19,4.08,5.19s4.1-2.41,4.1-5.32c0-2.55-1.33-5.21-4.08-5.21s-4.1,2.53-4.1,5.34Z"/>
    <path class="cls-22" d="M238.86,383.77v-12.8h1.8l4.1,6.48c.95,1.5,1.69,2.85,2.3,4.16l.04-.02c-.15-1.71-.19-3.27-.19-5.26v-5.36h1.56v12.8h-1.67l-4.07-6.5c-.89-1.42-1.75-2.89-2.39-4.27l-.06.02c.09,1.61.13,3.15.13,5.28v5.47h-1.56Z"/>
    <path class="cls-22" d="M250.98,382.8c0-.68.47-1.18,1.12-1.18.68,0,1.12.49,1.12,1.18s-.44,1.18-1.12,1.18-1.12-.51-1.12-1.18ZM251.46,380.08l-.27-9.12h1.82l-.27,9.12h-1.29Z"/>
    <path class="cls-22" d="M255.35,382.8c0-.68.47-1.18,1.12-1.18.68,0,1.12.49,1.12,1.18s-.44,1.18-1.12,1.18-1.12-.51-1.12-1.18ZM255.83,380.08l-.27-9.12h1.82l-.27,9.12h-1.29Z"/>
    <path class="cls-22" d="M259.72,382.8c0-.68.47-1.18,1.12-1.18.68,0,1.12.49,1.12,1.18s-.44,1.18-1.12,1.18-1.12-.51-1.12-1.18ZM260.2,380.08l-.27-9.12h1.82l-.27,9.12h-1.29Z"/>
    <path class="cls-22" d="M264.09,382.8c0-.68.47-1.18,1.12-1.18.68,0,1.12.49,1.12,1.18s-.44,1.18-1.12,1.18-1.12-.51-1.12-1.18ZM264.57,380.08l-.27-9.12h1.82l-.27,9.12h-1.29Z"/>
    <path class="cls-22" d="M268.47,382.8c0-.68.47-1.18,1.12-1.18.68,0,1.12.49,1.12,1.18s-.44,1.18-1.12,1.18-1.12-.51-1.12-1.18ZM268.94,380.08l-.27-9.12h1.82l-.27,9.12h-1.29Z"/>
    <path class="cls-22" d="M272.84,382.8c0-.68.47-1.18,1.12-1.18.68,0,1.12.49,1.12,1.18s-.44,1.18-1.12,1.18-1.12-.51-1.12-1.18ZM273.31,380.08l-.27-9.12h1.82l-.27,9.12h-1.29Z"/>
    <path class="cls-22" d="M277.21,382.8c0-.68.47-1.18,1.12-1.18.68,0,1.12.49,1.12,1.18s-.44,1.18-1.12,1.18-1.12-.51-1.12-1.18ZM277.68,380.08l-.27-9.12h1.82l-.27,9.12h-1.29Z"/>
    <path class="cls-22" d="M281.58,382.8c0-.68.47-1.18,1.12-1.18.68,0,1.12.49,1.12,1.18s-.44,1.18-1.12,1.18-1.12-.51-1.12-1.18ZM282.05,380.08l-.27-9.12h1.82l-.27,9.12h-1.29Z"/>
    <path class="cls-22" d="M285.95,382.8c0-.68.47-1.18,1.12-1.18.68,0,1.12.49,1.12,1.18s-.44,1.18-1.12,1.18-1.12-.51-1.12-1.18ZM286.42,380.08l-.27-9.12h1.82l-.27,9.12h-1.29Z"/>
    <path class="cls-22" d="M290.32,382.8c0-.68.47-1.18,1.12-1.18.68,0,1.12.49,1.12,1.18s-.44,1.18-1.12,1.18-1.12-.51-1.12-1.18ZM290.79,380.08l-.27-9.12h1.82l-.27,9.12h-1.29Z"/>
    <path class="cls-22" d="M294.69,382.8c0-.68.47-1.18,1.12-1.18.68,0,1.12.49,1.12,1.18s-.44,1.18-1.12,1.18-1.12-.51-1.12-1.18ZM295.16,380.08l-.27-9.12h1.82l-.27,9.12h-1.29Z"/>
  </g>
  <circle class="cls-10" cx="1517.84" cy="709.23" r="29.78"/>
  <circle class="cls-25" cx="1517.84" cy="709.23" r="29.78"/>
  <circle class="cls-10" cx="1517.84" cy="746.77" r="29.78"/>
  <circle class="cls-25" cx="1517.84" cy="746.77" r="29.78"/>
  <g>
    <path class="cls-13" d="M251.81,604.89c5.24,31.53,13.95,59.9,25.23,83.34-78.23-6.89-133.4-23.55-133.4-43,0-17.28,43.57-32.36,108.17-40.34Z"/>
    <path class="cls-13" d="M570.95,645.23c0,19.45-55.17,36.11-133.41,43,11.28-23.44,19.99-51.81,25.23-83.34,64.62,7.98,108.18,23.05,108.18,40.34Z"/>
    <path class="cls-11" d="M411.88,342.7c33.73,37.97,56.48,110,56.48,192.63,0,24.31-1.97,47.69-5.6,69.56-5.24,31.53-13.95,59.9-25.23,83.34-15.97,33.25-37.12,56.58-60.86,64.9-6.3,2.2-12.77,3.36-19.38,3.36s-13.08-1.14-19.37-3.36c-23.74-8.31-44.89-31.65-60.87-64.9-11.28-23.44-19.99-51.81-25.23-83.34-3.63-21.87-5.6-45.25-5.6-69.56,0-85.15,24.17-159.06,59.6-196.02-28.47-11.71-47.26-31.87-47.26-54.75,0-36.2,46.97-65.55,104.92-65.55s104.9,29.35,104.9,65.55c0,25.28-22.92,47.22-56.48,58.14Z"/>
    <path class="cls-12" d="M450.83,878.86c-1.42,1.42-3.05,2.62-4.85,3.53,2.23,3.28,3.54,7.24,3.54,11.53,0,11.31-9.16,20.46-20.46,20.46s-20.46-9.16-20.46-20.46c0-3.38.81-6.57,2.28-9.38h-34.2v10.47c0,10.7-8.67,19.37-19.38,19.37s-19.37-8.67-19.37-19.37v-10.47h-34.65c1.46,2.81,2.28,6,2.28,9.38,0,11.31-9.16,20.46-20.46,20.46s-20.46-9.16-20.46-20.46c0-4.35,1.35-8.38,3.67-11.69-6.08-3.27-10.2-9.69-10.2-17.06,0-10.71,8.69-19.38,19.38-19.38h60.45v-92.65c6.3,2.21,12.77,3.36,19.37,3.36s13.09-1.16,19.38-3.36v92.65h60.45c10.7,0,19.37,8.67,19.37,19.38,0,5.35-2.17,10.19-5.67,13.69Z"/>
  </g>
</svg>