<?xml version="1.0" encoding="UTF-8"?>
<svg id="Layer_1" data-name="Layer 1" xmlns="http://www.w3.org/2000/svg" viewBox="0 0 1920 1080">
  <defs>
    <style>
      .cls-1 {
        fill: gray;
      }

      .cls-2 {
        fill: #009245;
      }

      .cls-3, .cls-4, .cls-5, .cls-6, .cls-7, .cls-8, .cls-9, .cls-10, .cls-11 {
        stroke-miterlimit: 10;
      }

      .cls-3, .cls-7 {
        stroke: #333;
        stroke-width: 3px;
      }

      .cls-3, .cls-7, .cls-8, .cls-9, .cls-10 {
        fill: none;
      }

      .cls-12 {
        fill: #ccc;
      }

      .cls-4 {
        stroke-width: .91px;
      }

      .cls-4, .cls-5, .cls-6, .cls-9, .cls-10, .cls-11 {
        stroke: #000;
      }

      .cls-4, .cls-5, .cls-6, .cls-13 {
        fill: #333;
      }

      .cls-5 {
        stroke-width: .68px;
      }

      .cls-6 {
        stroke-width: .77px;
      }

      .cls-14 {
        fill: #fff;
      }

      .cls-7, .cls-10 {
        stroke-linecap: round;
      }

      .cls-15 {
        fill: #b3b3b3;
      }

      .cls-8 {
        stroke: #754c24;
      }

      .cls-8, .cls-9, .cls-11 {
        stroke-width: 13px;
      }

      .cls-16 {
        fill: #736357;
      }

      .cls-10 {
        stroke-width: 25px;
      }
    </style>
  </defs>
  <polyline class="cls-9" points="313.6 164.55 359.97 118.92 387.93 164.55"/>
  <g>
    <path class="cls-16" d="M279.88,810.53v-93.17h1226.95c4.32,10.96,11.58,17.48,19.53,17.48s15.22-6.52,19.53-17.48h35.81c4.09,12.41,11.88,20.08,20.47,20.08s16.38-7.67,20.47-20.08h230.59v93.17H279.88Z"/>
    <path d="M1852.13,718.45v90.99H280.98v-90.99h1225.12c4.52,10.98,12.02,17.48,20.27,17.48s15.76-6.5,20.27-17.48h34.29c4.31,12.43,12.36,20.08,21.25,20.08s16.94-7.65,21.25-20.08h228.71M1854.32,716.26h-232.48c-3.73,11.94-11.14,20.08-19.67,20.08s-15.94-8.14-19.67-20.08h-37.36c-3.94,10.51-10.88,17.48-18.78,17.48s-14.83-6.97-18.78-17.48H278.79v95.36h1575.53v-95.36h0Z"/>
  </g>
  <polygon class="cls-15" points="1204.05 736.51 661.46 736.51 694.57 609.61 1170.94 609.61 1204.05 736.51"/>
  <g>
    <path class="cls-14" d="M698.24,605.26v-232.76c0-5.98,4.87-10.85,10.85-10.85h447.32c5.98,0,10.85,4.87,10.85,10.85v232.76h-469.02Z"/>
    <path d="M1156.41,366.01c3.58,0,6.49,2.91,6.49,6.49v228.4h-460.3v-228.4c0-3.58,2.91-6.49,6.49-6.49h447.32M1156.41,357.29h-447.32c-8.4,0-15.21,6.81-15.21,15.21v237.12h477.74v-237.12c0-8.4-6.81-15.21-15.21-15.21h0Z"/>
  </g>
  <rect class="cls-12" x="661.12" y="736.51" width="543.26" height="4.15"/>
  <path class="cls-1" d="M661.12,740.66h543.26v.56c0,5.62-4.56,10.17-10.17,10.17h-522.88c-5.63,0-10.2-4.57-10.2-10.2v-.54h0Z"/>
  <polygon points="1004.43 728.36 861.08 728.36 869.5 706.18 996 706.18 1004.43 728.36"/>
  <g>
    <path d="M737.29,657.13c-.63,2.78-.95,4.17-1.58,6.95-.1.46-.48.83-.83.83h-42.31c-.36,0-.54-.37-.42-.83.77-2.78,1.16-4.17,1.94-6.95.13-.46.51-.83.87-.83,13.96,0,27.93,0,41.89,0,.35,0,.56.37.45.83Z"/>
    <path d="M1172.54,664.9h-21.31c-.43,0-.85-.31-.95-.69-.73-2.89-1.09-4.33-1.82-7.22-.1-.38.17-.69.59-.69h21.09c.42,0,.85.31.96.69.8,2.89,1.21,4.33,2.01,7.22.11.38-.15.69-.58.69Z"/>
    <path d="M851.49,664.9h-21.31c-.43,0-.74-.31-.69-.69.34-2.89.52-4.33.86-7.22.05-.38.43-.69.85-.69h21.09c.42,0,.74.31.7.69-.27,2.89-.4,4.33-.67,7.22-.04.38-.41.69-.84.69Z"/>
    <path d="M939.05,664.9h-21.31c-.43,0-.77-.31-.76-.69.05-2.89.08-4.33.13-7.22,0-.38.36-.69.78-.69h21.09c.42,0,.77.31.77.69.02,2.89.04,4.33.06,7.22,0,.38-.34.69-.77.69Z"/>
    <path d="M909.86,664.9h-21.31c-.43,0-.76-.31-.74-.69.15-2.89.22-4.33.37-7.22.02-.38.38-.69.8-.69h21.09c.42,0,.76.31.75.69-.07,2.89-.11,4.33-.18,7.22,0,.38-.36.69-.79.69Z"/>
    <path d="M880.67,664.9h-21.31c-.43,0-.75-.31-.72-.69.25-2.89.37-4.33.62-7.22.03-.38.4-.69.83-.69h21.09c.42,0,.75.31.73.69-.17,2.89-.26,4.33-.43,7.22-.02.38-.39.69-.82.69Z"/>
    <path d="M793.11,664.9h-21.31c-.43,0-.72-.31-.65-.69.54-2.89.81-4.33,1.35-7.22.07-.38.47-.69.9-.69h21.09c.42,0,.72.31.66.69-.46,2.89-.7,4.33-1.16,7.22-.06.38-.46.69-.89.69Z"/>
    <path d="M822.3,664.9h-21.31c-.43,0-.73-.31-.67-.69.44-2.89.66-4.33,1.11-7.22.06-.38.45-.69.87-.69h21.09c.42,0,.73.31.68.69-.37,2.89-.55,4.33-.91,7.22-.05.38-.43.69-.86.69Z"/>
    <path d="M763.92,664.9h-21.31c-.43,0-.71-.31-.62-.69.64-2.89.96-4.33,1.59-7.22.08-.38.5-.69.92-.69,8.44,0,12.66,0,21.09,0,.42,0,.71.31.63.69-.56,2.89-.84,4.33-1.4,7.22-.07.38-.48.69-.91.69Z"/>
    <path d="M1084.98,664.9h-21.31c-.43,0-.82-.31-.88-.69-.44-2.89-.65-4.33-1.09-7.22-.06-.38.24-.69.66-.69h21.09c.42,0,.82.31.89.69.51,2.89.77,4.33,1.28,7.22.07.38-.22.69-.65.69Z"/>
    <path d="M1114.17,664.9h-21.31c-.43,0-.83-.31-.9-.69-.53-2.89-.8-4.33-1.33-7.22-.07-.38.22-.69.64-.69,8.44,0,12.66,0,21.09,0,.42,0,.83.31.91.69.61,2.89.91,4.33,1.52,7.22.08.38-.2.69-.63.69Z"/>
    <path d="M1143.36,664.9h-21.31c-.43,0-.84-.31-.93-.69-.63-2.89-.95-4.33-1.58-7.22-.08-.38.19-.69.62-.69h21.09c.42,0,.84.31.94.69.71,2.89,1.06,4.33,1.77,7.22.09.38-.18.69-.61.69Z"/>
    <path d="M1055.8,664.9h-21.31c-.43,0-.81-.31-.86-.69-.34-2.89-.51-4.33-.84-7.22-.04-.38.26-.69.69-.69h21.09c.42,0,.81.31.87.69.41,2.89.62,4.33,1.04,7.22.05.38-.25.69-.68.69Z"/>
    <path d="M997.42,664.9h-21.31c-.43,0-.79-.31-.81-.69-.14-2.89-.21-4.33-.36-7.22-.02-.38.31-.69.73-.69h21.09c.42,0,.79.31.82.69.22,2.89.33,4.33.55,7.22.03.38-.29.69-.72.69Z"/>
    <path d="M1026.61,664.9h-21.31c-.43,0-.8-.31-.83-.69-.24-2.89-.36-4.33-.6-7.22-.03-.38.29-.69.71-.69h21.09c.42,0,.8.31.84.69.32,2.89.47,4.33.79,7.22.04.38-.27.69-.7.69Z"/>
    <path d="M968.23,664.9h-21.31c-.43,0-.78-.31-.79-.69-.05-2.89-.07-4.33-.11-7.22,0-.38.33-.69.76-.69h21.09c.42,0,.78.31.8.69.12,2.89.18,4.33.3,7.22.02.38-.32.69-.75.69Z"/>
  </g>
  <g>
    <path d="M718.62,636.54h-20.92c-.39,0-.62-.29-.5-.64.77-2.46,1.16-3.68,1.94-6.14.11-.35.51-.64.9-.64h20.71c.39,0,.62.29.52.64-.7,2.46-1.05,3.68-1.75,6.14-.1.35-.5.64-.89.64Z"/>
    <path d="M1166.67,636.54h-20.92c-.39,0-.79-.29-.89-.64-.7-2.46-1.05-3.68-1.75-6.14-.1-.35.13-.64.52-.64h20.71c.39,0,.79.29.9.64.78,2.46,1.16,3.68,1.94,6.14.11.35-.11.64-.5.64Z"/>
    <path d="M861.11,636.54h-20.92c-.39,0-.67-.29-.63-.64.31-2.46.46-3.68.76-6.14.04-.35.39-.64.78-.64h20.71c.39,0,.67.29.64.64-.23,2.46-.35,3.68-.58,6.14-.03.35-.38.64-.77.64Z"/>
    <path d="M946.61,636.54h-20.92c-.39,0-.7-.29-.7-.64.02-2.46.04-3.68.06-6.14,0-.35.32-.64.7-.64h20.71c.39,0,.7.29.71.64.05,2.46.07,3.68.12,6.14,0,.35-.3.64-.69.64Z"/>
    <path d="M918.11,636.54h-20.92c-.39,0-.69-.29-.68-.64.12-2.46.18-3.68.29-6.14.02-.35.34-.64.73-.64h20.71c.39,0,.69.29.69.64-.04,2.46-.07,3.68-.11,6.14,0,.35-.33.64-.72.64Z"/>
    <path d="M889.61,636.54h-20.92c-.39,0-.68-.29-.65-.64.21-2.46.32-3.68.53-6.14.03-.35.37-.64.75-.64h20.71c.39,0,.68.29.66.64-.14,2.46-.21,3.68-.34,6.14-.02.35-.35.64-.74.64Z"/>
    <path d="M804.11,636.54h-20.92c-.39,0-.65-.29-.58-.64.49-2.46.74-3.68,1.23-6.14.07-.35.44-.64.83-.64h20.71c.39,0,.65.29.59.64-.42,2.46-.63,3.68-1.05,6.14-.06.35-.43.64-.82.64Z"/>
    <path d="M832.61,636.54h-20.92c-.39,0-.66-.29-.6-.64.4-2.46.6-3.68,1-6.14.06-.35.42-.64.8-.64h20.71c.39,0,.66.29.61.64-.33,2.46-.49,3.68-.81,6.14-.05.35-.4.64-.79.64Z"/>
    <path d="M775.61,636.54c-8.37,0-12.55,0-20.92,0-.39,0-.64-.29-.55-.64.59-2.46.88-3.68,1.47-6.14.08-.35.47-.64.85-.64h20.71c.39,0,.64.29.57.64-.51,2.46-.77,3.68-1.28,6.14-.07.35-.45.64-.84.64Z"/>
    <path d="M747.12,636.54h-20.92c-.39,0-.63-.29-.53-.64.68-2.46,1.02-3.68,1.7-6.14.1-.35.49-.64.88-.64h20.71c.39,0,.63.29.54.64-.61,2.46-.91,3.68-1.52,6.14-.09.35-.47.64-.86.64Z"/>
    <path d="M1089.11,636.54h-20.92c-.39,0-.76-.29-.82-.64-.45-2.46-.67-3.68-1.11-6.14-.06-.35.2-.64.58-.64h20.71c.39,0,.76.29.83.64.52,2.46.78,3.68,1.3,6.14.07.35-.18.64-.57.64Z"/>
    <g>
      <path d="M1117.61,636.54c-8.37,0-12.55,0-20.92,0-.39,0-.77-.29-.85-.64-.54-2.46-.81-3.68-1.35-6.14-.08-.35.17-.64.56-.64h20.71c.39,0,.77.29.86.64.61,2.46.92,3.68,1.53,6.14.09.35-.16.64-.55.64Z"/>
      <path d="M1138.17,636.54h-20.92c-.39,0-.78-.29-.86-.64-.61-2.46-.91-3.68-1.52-6.14-.09-.35.15-.64.54-.64h20.71c.39,0,.78.29.88.64.68,2.46,1.02,3.68,1.7,6.14.1.35-.14.64-.53.64Z"/>
    </g>
    <path d="M1060.61,636.54h-20.92c-.39,0-.75-.29-.8-.64-.35-2.46-.53-3.68-.88-6.14-.05-.35.22-.64.61-.64h20.71c.39,0,.75.29.81.64.43,2.46.64,3.68,1.06,6.14.06.35-.21.64-.59.64Z"/>
    <path d="M1003.61,636.54h-20.92c-.39,0-.72-.29-.75-.64-.16-2.46-.25-3.68-.41-6.14-.02-.35.27-.64.66-.64h20.71c.39,0,.73.29.76.64.24,2.46.36,3.68.59,6.14.03.35-.25.64-.64.64Z"/>
    <path d="M1032.11,636.54h-20.92c-.39,0-.74-.29-.77-.64-.26-2.46-.39-3.68-.64-6.14-.04-.35.25-.64.63-.64h20.71c.39,0,.74.29.79.64.33,2.46.5,3.68.83,6.14.05.35-.23.64-.62.64Z"/>
    <path d="M975.11,636.54h-20.92c-.39,0-.71-.29-.72-.64-.07-2.46-.11-3.68-.18-6.14-.01-.35.29-.64.68-.64h20.71c.39,0,.72.29.74.64.14,2.46.22,3.68.36,6.14.02.35-.28.64-.67.64Z"/>
  </g>
  <g>
    <path d="M723.13,622.97h-20.75c-.34,0-.52-.24-.4-.54.74-1.81,1.12-2.72,1.86-4.53.12-.3.5-.54.84-.54h20.54c.34,0,.53.24.42.54-.67,1.81-1.01,2.72-1.68,4.53-.11.3-.48.54-.82.54Z"/>
    <path d="M1164.41,622.97h-20.75c-.34,0-.71-.24-.82-.54-.67-1.81-1.01-2.72-1.69-4.53-.11-.3.08-.54.42-.54h20.54c.34,0,.72.24.84.54.74,1.81,1.12,2.72,1.86,4.53.12.3-.06.54-.4.54Z"/>
    <path d="M861.03,622.97h-20.75c-.34,0-.58-.24-.53-.54.3-1.81.45-2.72.75-4.53.05-.3.37-.54.71-.54h20.54c.34,0,.59.24.55.54-.23,1.81-.35,2.72-.58,4.53-.04.3-.35.54-.69.54Z"/>
    <path d="M943.77,622.97h-20.75c-.34,0-.62-.24-.61-.54.04-1.81.05-2.72.09-4.53,0-.3.29-.54.63-.54h20.54c.34,0,.62.24.63.54.04,1.81.05,2.72.09,4.53,0,.3-.27.54-.61.54Z"/>
    <path d="M916.19,622.97h-20.75c-.34,0-.61-.24-.59-.54.12-1.81.19-2.72.31-4.53.02-.3.31-.54.65-.54h20.54c.34,0,.61.24.6.54-.05,1.81-.08,2.72-.13,4.53,0,.3-.29.54-.64.54Z"/>
    <path d="M888.61,622.97h-20.75c-.34,0-.59-.24-.56-.54.21-1.81.32-2.72.53-4.53.03-.3.34-.54.68-.54h20.54c.34,0,.6.24.57.54-.14,1.81-.21,2.72-.36,4.53-.02.3-.32.54-.67.54Z"/>
    <path d="M805.87,622.97h-20.75c-.34,0-.56-.24-.48-.54.48-1.81.72-2.72,1.2-4.53.08-.3.42-.54.76-.54h20.54c.34,0,.56.24.5.54-.41,1.81-.61,2.72-1.02,4.53-.07.3-.4.54-.74.54Z"/>
    <path d="M833.45,622.97c-8.3,0-12.45,0-20.75,0-.34,0-.57-.24-.51-.54.39-1.81.58-2.72.98-4.53.06-.3.39-.54.73-.54h20.54c.34,0,.57.24.52.54-.32,1.81-.48,2.72-.8,4.53-.05.3-.37.54-.72.54Z"/>
    <path d="M778.29,622.97h-20.75c-.34,0-.55-.24-.45-.54.57-1.81.85-2.72,1.42-4.53.09-.3.45-.54.79-.54h20.54c.34,0,.55.24.47.54-.5,1.81-.74,2.72-1.24,4.53-.08.3-.43.54-.77.54Z"/>
    <path d="M750.71,622.97h-20.75c-.34,0-.54-.24-.43-.54.66-1.81.98-2.72,1.64-4.53.11-.3.47-.54.81-.54,8.22,0,12.33,0,20.54,0,.34,0,.54.24.44.54-.59,1.81-.88,2.72-1.46,4.53-.1.3-.45.54-.8.54Z"/>
    <path d="M1081.67,622.97h-20.75c-.34,0-.68-.24-.74-.54-.41-1.81-.61-2.72-1.02-4.53-.07-.3.15-.54.5-.54h20.54c.34,0,.68.24.76.54.48,1.81.72,2.72,1.2,4.53.08.3-.14.54-.48.54Z"/>
    <path d="M1109.25,622.97h-20.75c-.34,0-.69-.24-.77-.54-.5-1.81-.75-2.72-1.24-4.53-.08-.3.13-.54.47-.54h20.54c.34,0,.69.24.79.54.57,1.81.85,2.72,1.42,4.53.09.3-.11.54-.45.54Z"/>
    <path d="M1136.83,622.97c-8.3,0-12.45,0-20.75,0-.34,0-.7-.24-.8-.54-.59-1.81-.88-2.72-1.46-4.53-.1-.3.1-.54.44-.54,8.22,0,12.33,0,20.54,0,.34,0,.7.24.81.54.66,1.81.98,2.72,1.64,4.53.11.3-.08.54-.43.54Z"/>
    <path d="M1054.09,622.97h-20.75c-.34,0-.67-.24-.72-.54-.32-1.81-.48-2.72-.8-4.53-.05-.3.18-.54.52-.54h20.54c.34,0,.67.24.73.54.39,1.81.59,2.72.98,4.53.06.3-.16.54-.51.54Z"/>
    <path d="M998.93,622.97h-20.75c-.34,0-.64-.24-.67-.54-.14-1.81-.21-2.72-.36-4.53-.02-.3.23-.54.57-.54h20.54c.34,0,.65.24.68.54.21,1.81.32,2.72.53,4.53.03.3-.22.54-.56.54Z"/>
    <path d="M1026.51,622.97h-20.75c-.34,0-.65-.24-.69-.54-.23-1.81-.35-2.72-.58-4.53-.04-.3.21-.54.55-.54h20.54c.34,0,.66.24.71.54.3,1.81.45,2.72.75,4.53.05.3-.19.54-.53.54Z"/>
    <path d="M971.35,622.97c-8.3,0-12.45,0-20.75,0-.34,0-.63-.24-.64-.54-.05-1.81-.08-2.72-.13-4.53,0-.3.26-.54.6-.54h20.54c.34,0,.63.24.65.54.12,1.81.19,2.72.31,4.53.02.3-.24.54-.59.54Z"/>
  </g>
  <g>
    <path d="M716.82,649.51h-21.26c-.35,0-.53-.38-.41-.85.76-2.83,1.14-4.25,1.9-7.09.13-.47.51-.85.86-.85h21.05c.35,0,.54.38.42.85-.69,2.84-1.03,4.25-1.72,7.09-.11.47-.49.85-.84.85Z"/>
    <path d="M1168.81,649.51h-21.26c-.35,0-.73-.38-.84-.85-.69-2.83-1.03-4.25-1.72-7.09-.11-.47.07-.85.42-.85h21.05c.35,0,.73.38.86.85.76,2.84,1.14,4.25,1.9,7.09.13.47-.06.85-.41.85Z"/>
    <path d="M858.06,649.51h-21.26c-.35,0-.59-.38-.54-.85.31-2.83.46-4.25.77-7.09.05-.47.37-.85.72-.85h21.05c.35,0,.6.38.56.85-.24,2.84-.35,4.25-.59,7.09-.04.47-.35.85-.71.85Z"/>
    <path d="M942.81,649.51h-21.26c-.35,0-.63-.38-.62-.85.04-2.83.05-4.25.09-7.09,0-.47.29-.85.64-.85h21.05c.35,0,.63.38.64.85.04,2.83.05,4.25.09,7.09,0,.47-.27.85-.62.85Z"/>
    <path d="M914.56,649.51h-21.26c-.35,0-.62-.38-.6-.85.13-2.83.19-4.25.32-7.09.02-.47.32-.85.67-.85h21.05c.35,0,.62.38.61.85-.05,2.83-.08,4.25-.14,7.09,0,.47-.3.85-.65.85Z"/>
    <path d="M886.31,649.51h-21.26c-.35,0-.61-.38-.57-.85.22-2.83.33-4.25.54-7.09.04-.47.35-.85.69-.85h21.05c.35,0,.61.38.58.85-.15,2.83-.22,4.25-.36,7.09-.02.47-.33.85-.68.85Z"/>
    <path d="M801.57,649.51h-21.26c-.35,0-.57-.38-.49-.85.49-2.83.73-4.25,1.22-7.09.08-.47.43-.85.78-.85h21.05c.35,0,.57.38.5.85-.42,2.83-.63,4.25-1.04,7.09-.07.47-.41.85-.76.85Z"/>
    <path d="M829.81,649.51c-8.5,0-12.76,0-21.26,0-.35,0-.58-.38-.51-.85.4-2.83.6-4.25,1-7.09.07-.47.4-.85.75-.85h21.05c.35,0,.58.38.53.85-.33,2.83-.49,4.25-.82,7.09-.05.47-.38.85-.73.85Z"/>
    <path d="M773.32,649.51h-21.26c-.35,0-.56-.38-.46-.85.58-2.83.87-4.25,1.45-7.09.1-.47.46-.85.8-.85,8.42,0,12.63,0,21.05,0,.35,0,.56.38.48.85-.51,2.84-.76,4.25-1.27,7.09-.08.47-.44.85-.79.85Z"/>
    <path d="M745.07,649.51h-21.26c-.35,0-.54-.38-.43-.85.67-2.83,1.01-4.25,1.68-7.09.11-.47.48-.85.83-.85h21.05c.35,0,.55.38.45.85-.6,2.84-.9,4.25-1.5,7.09-.1.47-.46.85-.81.85Z"/>
    <path d="M1084.06,649.51h-21.26c-.35,0-.69-.38-.76-.85-.42-2.83-.63-4.25-1.04-7.09-.07-.47.16-.85.5-.85h21.05c.35,0,.69.38.77.85.49,2.83.73,4.25,1.22,7.09.08.47-.14.85-.49.85Z"/>
    <path d="M1112.31,649.51c-8.5,0-12.76,0-21.26,0-.35,0-.7-.38-.79-.85-.51-2.83-.76-4.25-1.27-7.09-.08-.47.13-.85.48-.85,8.42,0,12.63,0,21.05,0,.35,0,.71.38.8.85.58,2.84.87,4.25,1.45,7.09.1.47-.11.85-.46.85Z"/>
    <path d="M1140.56,649.51h-21.26c-.35,0-.71-.38-.81-.85-.6-2.83-.9-4.25-1.5-7.09-.1-.47.1-.85.45-.85h21.05c.35,0,.72.38.83.85.67,2.83,1.01,4.25,1.68,7.09.11.47-.08.85-.43.85Z"/>
    <path d="M1055.81,649.51h-21.26c-.35,0-.68-.38-.73-.85-.33-2.83-.49-4.25-.82-7.09-.05-.47.18-.85.53-.85h21.05c.35,0,.68.38.75.85.4,2.83.6,4.25,1,7.09.07.47-.16.85-.51.85Z"/>
    <path d="M999.31,649.51h-21.26c-.35,0-.65-.38-.68-.85-.15-2.83-.22-4.25-.36-7.09-.02-.47.24-.85.58-.85h21.05c.35,0,.66.38.69.85.22,2.84.33,4.25.54,7.09.04.47-.22.85-.57.85Z"/>
    <path d="M1027.56,649.51h-21.26c-.35,0-.67-.38-.71-.85-.24-2.83-.35-4.25-.59-7.09-.04-.47.21-.85.56-.85h21.05c.35,0,.67.38.72.85.31,2.83.46,4.25.77,7.09.05.47-.19.85-.54.85Z"/>
    <path d="M971.06,649.51h-21.26c-.35,0-.64-.38-.65-.85-.05-2.83-.08-4.25-.14-7.09,0-.47.27-.85.61-.85h21.05c.35,0,.65.38.67.85.13,2.83.19,4.25.32,7.09.02.47-.25.85-.6.85Z"/>
  </g>
  <g>
    <path d="M735.76,672.14c-.64,2.77-.96,4.16-1.6,6.93-.11.46-.48.82-.84.82h-43.14c-.36,0-.55-.37-.42-.82.78-2.77,1.17-4.16,1.96-6.93.13-.46.52-.82.88-.82h42.71c.36,0,.56.37.46.82Z"/>
    <path d="M853.79,679.9h-21.63c-.41,0-.7-.33-.66-.73.34-2.85.5-4.27.84-7.12.05-.4.41-.73.82-.73h21.41c.41,0,.71.33.67.73-.26,2.85-.39,4.27-.65,7.12-.04.4-.4.73-.81.73Z"/>
    <path d="M944.22,679.9h-21.63c-.41,0-.74-.33-.73-.73.04-2.85.06-4.27.09-7.12,0-.4.34-.73.75-.73h21.41c.41,0,.74.33.75.73.04,2.85.06,4.27.1,7.12,0,.4-.32.73-.73.73Z"/>
    <path d="M914.07,679.9h-21.63c-.41,0-.73-.33-.71-.73.14-2.85.2-4.27.34-7.12.02-.4.36-.73.77-.73h21.41c.41,0,.73.33.72.73-.06,2.85-.09,4.27-.15,7.12,0,.4-.35.73-.76.73Z"/>
    <path d="M883.93,679.9h-21.63c-.41,0-.72-.33-.68-.73.24-2.85.35-4.27.59-7.12.03-.4.39-.73.8-.73h21.41c.41,0,.72.33.7.73-.16,2.85-.24,4.27-.4,7.12-.02.4-.37.73-.78.73Z"/>
    <path d="M793.51,679.9h-21.63c-.41,0-.68-.33-.61-.73.54-2.85.8-4.27,1.34-7.12.08-.4.47-.73.87-.73,8.57,0,12.85,0,21.41,0,.41,0,.68.33.62.73-.46,2.85-.69,4.27-1.15,7.12-.06.4-.45.73-.86.73Z"/>
    <path d="M823.65,679.9h-21.63c-.41,0-.69-.33-.63-.73.44-2.85.65-4.27,1.09-7.12.06-.4.44-.73.85-.73h21.41c.41,0,.69.33.64.73-.36,2.85-.54,4.27-.9,7.12-.05.4-.42.73-.83.73Z"/>
    <path d="M763.37,679.9h-21.63c-.41,0-.67-.33-.58-.73.63-2.85.95-4.27,1.59-7.12.09-.4.49-.73.9-.73h21.41c.41,0,.67.33.59.73-.56,2.85-.84,4.27-1.4,7.12-.08.4-.48.73-.89.73Z"/>
    <path d="M1094.92,679.9h-21.63c-.41,0-.8-.33-.86-.73-.46-2.85-.69-4.27-1.15-7.12-.07-.4.21-.73.62-.73h21.41c.41,0,.8.33.87.73.54,2.85.81,4.27,1.34,7.12.08.4-.2.73-.61.73Z"/>
    <path d="M1125.06,679.9h-21.63c-.41,0-.81-.33-.89-.73-.56-2.85-.84-4.27-1.4-7.12-.08-.4.19-.73.59-.73,8.57,0,12.85,0,21.41,0,.41,0,.81.33.9.73.64,2.85.96,4.27,1.59,7.12.09.4-.17.73-.58.73Z"/>
    <path d="M1174.17,672.14c.78,2.77,1.17,4.16,1.96,6.93.13.46-.06.82-.42.82h-42.22c-.36,0-.74-.37-.84-.82-.64-2.77-.96-4.16-1.61-6.93-.11-.46.1-.82.46-.82,13.93,0,27.87,0,41.8,0,.36,0,.75.37.88.82Z"/>
    <path d="M1064.78,679.9h-21.63c-.41,0-.78-.33-.84-.73-.36-2.85-.54-4.27-.9-7.12-.05-.4.24-.73.64-.73h21.41c.41,0,.79.33.85.73.44,2.85.66,4.27,1.1,7.12.06.4-.22.73-.63.73Z"/>
    <path d="M1004.5,679.9h-21.63c-.41,0-.76-.33-.78-.73-.16-2.85-.24-4.27-.41-7.12-.02-.4.29-.73.69-.73h21.41c.41,0,.76.33.8.73.24,2.85.36,4.27.6,7.12.03.4-.27.73-.68.73Z"/>
    <path d="M1034.64,679.9h-21.63c-.41,0-.77-.33-.81-.73-.26-2.85-.39-4.27-.66-7.12-.04-.4.26-.73.67-.73h21.41c.41,0,.77.33.82.73.34,2.85.51,4.27.85,7.12.05.4-.25.73-.66.73Z"/>
    <path d="M974.36,679.9h-21.63c-.41,0-.75-.33-.76-.73-.06-2.85-.09-4.27-.16-7.12,0-.4.31-.73.72-.73h21.41c.41,0,.75.33.77.73.14,2.85.21,4.27.35,7.12.02.4-.3.73-.71.73Z"/>
  </g>
  <g>
    <path d="M715.34,698.65h-28.5c-.51,0-.82-.41-.7-.91.79-3.3,1.18-4.95,1.97-8.26.12-.5.62-.91,1.12-.91h28.22c.5,0,.82.41.72.91-.69,3.3-1.04,4.95-1.73,8.26-.11.5-.6.91-1.11.91Z"/>
    <path d="M850.89,698.65c-12.74,0-25.48,0-38.21,0-.58,0-1-.47-.93-1.05.37-3.19.56-4.79.93-7.98.07-.58.59-1.05,1.17-1.05h37.84c.58,0,1.01.47.96,1.05-.25,3.19-.37,4.79-.62,7.98-.05.58-.55,1.05-1.14,1.05Z"/>
    <path d="M1015.27,689.72c.26,3.19.39,4.79.64,7.98.04.53-.32.95-.81.95h-29.5c-.49,0-.93-.95-.93-.95,0,0-.35.95-.84.95h-29.5c-.49,0-.9-.95-.9-.95,0,0-.37.95-.86.95h-29.5c-.29,0-.54-.14-.7-.37-.17.23-.42.37-.71.37h-57.4c-.49,0-.87-.42-.83-.95.21-3.19.32-4.79.53-7.98.03-.52.46-.95.95-.95h56.85c.29,0,.54.15.69.38.15-.23.41-.38.7-.38h29.22c.49,0,.89.95.89.95,0,0,.37-.95.86-.95h29.22c.49,0,.92.95.92.95,0,0,.34-.95.83-.95h29.22c.49,0,.91.43.95.95Z"/>
    <path d="M799.3,698.65h-27.36c-.5,0-.83-.4-.76-.89.52-3.32.78-4.97,1.3-8.29.08-.49.54-.89,1.03-.89h27.09c.49,0,.84.4.77.89-.42,3.32-.64,4.97-1.06,8.29-.06.49-.52.89-1.01.89Z"/>
    <path d="M758.68,698.65h-30.07c-.52,0-.86-.42-.75-.93.65-3.28.98-4.92,1.63-8.21.1-.52.6-.93,1.11-.93h29.78c.51,0,.86.42.77.93-.55,3.28-.82,4.92-1.37,8.21-.09.52-.58.93-1.1.93Z"/>
    <g>
      <path d="M1178.6,698.65h-22.09c-.37,0-.73-.3-.81-.66-.48-2.23-.72-3.35-1.21-5.58-.08-.37.15-.66.52-.66,8.78,0,13.17,0,21.94,0,.37,0,.73.3.82.66.53,2.23.8,3.35,1.33,5.58.09.37-.14.66-.51.66Z"/>
      <path d="M1119.86,698.65h-22.09c-.37,0-.71-.3-.77-.66-.36-2.23-.53-3.35-.89-5.58-.06-.37.19-.66.56-.66h21.94c.37,0,.72.3.78.66.41,2.23.61,3.35,1.01,5.58.07.37-.18.66-.55.66Z"/>
      <path d="M1147.83,691.56h-22.11c-.32,0-.62-.26-.68-.58-.31-1.64-.46-2.46-.77-4.09-.06-.32.15-.58.47-.58h22c.32,0,.63.26.69.58.34,1.64.52,2.46.86,4.09.07.32-.14.58-.46.58Z"/>
      <path d="M1149.32,698.65h-22.27c-.32,0-.63-.26-.69-.57-.3-1.62-.46-2.43-.76-4.06-.06-.32.15-.57.47-.57,8.86,0,13.29,0,22.16,0,.32,0,.63.26.7.57.34,1.62.51,2.44.85,4.06.07.32-.14.57-.46.57Z"/>
    </g>
    <path d="M1084.88,698.65h-21.83c-.44,0-.84-.35-.9-.79-.42-3.32-.62-4.98-1.04-8.29-.05-.44.25-.79.69-.79h21.62c.44,0,.84.35.91.79.49,3.32.74,4.98,1.23,8.29.06.44-.24.79-.68.79Z"/>
    <path d="M1050.04,698.65c-8.73,0-13.1,0-21.83,0-.44,0-.83-.35-.87-.79-.3-3.32-.46-4.98-.76-8.29-.04-.44.28-.79.72-.79h21.62c.44,0,.83.35.88.79.38,3.32.57,4.98.95,8.29.05.44-.27.79-.71.79Z"/>
  </g>
  <g>
    <path class="cls-5" d="M767.17,823.69c8.2,49.32,21.82,93.72,39.47,130.38-122.39-10.78-208.7-36.84-208.7-67.27,0-27.04,68.16-50.63,169.23-63.12Z"/>
    <path class="cls-5" d="M1266.44,886.8c0,30.43-86.31,56.49-208.72,67.27,17.65-36.66,31.27-81.06,39.47-130.38,101.09,12.49,169.25,36.06,169.25,63.12Z"/>
    <path class="cls-4" d="M1017.6,413.51c52.77,59.4,88.36,172.09,88.36,301.35,0,38.02-3.08,74.6-8.77,108.82-8.2,49.32-21.82,93.72-39.47,130.38-24.99,52.03-58.07,88.52-95.22,101.54-9.85,3.44-19.98,5.25-30.33,5.25s-20.46-1.79-30.31-5.25c-37.15-13-70.23-49.51-95.23-101.54-17.65-36.66-31.27-81.06-39.47-130.38-5.68-34.22-8.77-70.8-8.77-108.82,0-133.21,37.82-248.85,93.24-306.66-44.53-18.32-73.93-49.86-73.93-85.66,0-56.64,73.48-102.55,164.14-102.55s164.12,45.91,164.12,102.55c0,39.56-35.85,73.88-88.36,90.96Z"/>
    <path class="cls-6" d="M1078.53,1252.31c-2.22,2.22-4.77,4.1-7.59,5.53,3.5,5.13,5.55,11.33,5.55,18.03,0,17.69-14.33,32.01-32.01,32.01s-32.01-14.33-32.01-32.01c0-5.29,1.27-10.28,3.56-14.67h-53.51v16.38c0,16.74-13.57,30.31-30.33,30.31s-30.31-13.57-30.31-30.31v-16.38h-54.21c2.29,4.39,3.56,9.39,3.56,14.67,0,17.69-14.33,32.01-32.01,32.01s-32.01-14.33-32.01-32.01c0-6.8,2.12-13.11,5.73-18.29-9.51-5.11-15.96-15.15-15.96-26.69,0-16.76,13.59-30.33,30.33-30.33h94.58v-144.95c9.85,3.46,19.98,5.25,30.31,5.25s20.48-1.81,30.33-5.25v144.95h94.58c16.74,0,30.31,13.57,30.31,30.33,0,8.37-3.39,15.95-8.87,21.42Z"/>
  </g>
  <path class="cls-11" d="M1687.83,587.78c0,24.12-6.68,46.62-18.24,65.62-11.1,18.28-26.71,33.31-45.2,43.41.02.61.03,1.22.03,1.84,0,6.36-.93,12.36-2.58,17.61-3.73,11.94-11.14,20.08-19.67,20.08s-15.94-8.14-19.67-20.08c-.6-1.9-1.1-3.89-1.49-5.96-3.88.41-7.81.61-11.79.61-7.49,0-14.82-.72-21.92-2.1-.56,2.63-1.28,5.13-2.16,7.45-3.94,10.51-10.88,17.48-18.78,17.48s-14.83-6.97-18.78-17.48c-2.2-5.84-3.47-12.78-3.47-20.22,0-1.76.07-3.49.22-5.18-32.35-21.98-53.72-59.94-53.72-103.08,0-56.62,36.8-104.31,86.92-118.7-17.03-10.6-28.37-29.48-28.37-51.02,0-15.32,5.73-29.3,15.18-39.91h-1.51l25.78-44.67,14.34,24.84,6.47,11.2,6.44-11.15,14.36-24.89,25.79,44.67h-1.91c9.45,10.61,15.18,24.59,15.18,39.91,0,21.54-11.34,40.42-28.37,51.02,50.12,14.39,86.92,62.08,86.92,118.7Z"/>
  <path class="cls-11" d="M1575.86,358.37l-6.44,11.15-6.47-11.2c2.06-.21,4.15-.32,6.27-.32,2.24,0,4.46.12,6.64.37Z"/>
  <path class="cls-10" d="M1609.26,653.47c36.8-.04,73.61-.09,110.41-.13,17.08-.02,37.92-2.35,44.79-17.99,4.25-9.68,1.02-21.22-4.91-29.98-5.93-8.76-14.25-15.56-21.53-23.23-18.03-19.01-29.79-44.27-30.9-70.45s8.9-52.99,28.15-70.76"/>
  <line class="cls-7" x1="1525.2" y1="741.9" x2="1525.77" y2="710.74"/>
  <line class="cls-7" x1="1541.37" y1="735.02" x2="1541.81" y2="711.79"/>
  <line class="cls-7" x1="1508.74" y1="733.94" x2="1509.17" y2="710.7"/>
  <line class="cls-7" x1="1604.36" y1="743.03" x2="1602.26" y2="711.93"/>
  <line class="cls-7" x1="1619.81" y1="733.91" x2="1618.25" y2="710.73"/>
  <line class="cls-7" x1="1587.24" y1="736.86" x2="1585.57" y2="712.18"/>
  <ellipse class="cls-14" cx="1601.38" cy="403.09" rx="10.59" ry="4.14"/>
  <ellipse class="cls-2" cx="1601.38" cy="403.09" rx="2.94" ry="4.03"/>
  <ellipse class="cls-14" cx="1547.41" cy="403.09" rx="10.59" ry="4.14"/>
  <ellipse class="cls-2" cx="1547.41" cy="403.09" rx="2.94" ry="4.03"/>
  <polygon class="cls-13" points="1574.43 411.07 1566.72 427.35 1582.14 427.35 1574.43 411.07"/>
  <line class="cls-3" x1="1579.33" y1="423.42" x2="1602.26" y2="415"/>
  <line class="cls-3" x1="1605.62" y1="425.16" x2="1578.44" y2="425.57"/>
  <line class="cls-3" x1="1597.69" y1="435.28" x2="1575.82" y2="425.26"/>
  <line class="cls-3" x1="1543.12" y1="422.44" x2="1569.4" y2="424.91"/>
  <line class="cls-3" x1="1544.47" y1="432.56" x2="1569.4" y2="424.91"/>
  <line class="cls-3" x1="1547.41" y1="440.93" x2="1569.4" y2="424.91"/>
  <path class="cls-11" d="M299.74,390.09c10.6-7.51,22.43-13.28,35.11-16.92-17.03-10.6-28.37-29.48-28.37-51.02,0-15.32,5.73-29.3,15.18-39.91h-1.51l25.78-44.67,14.34,24.84,6.47,11.2,6.44-11.15,14.36-24.89,25.79,44.67h-1.91c9.45,10.61,15.18,24.59,15.18,39.91,0,21.54-11.34,40.42-28.37,51.02,12.68,3.64,24.51,9.41,35.11,16.92h-133.6Z"/>
  <path class="cls-11" d="M373.18,262.46l-6.44,11.15-6.47-11.2c2.06-.21,4.15-.32,6.27-.32,2.24,0,4.46.12,6.64.37Z"/>
  <ellipse class="cls-14" cx="398.7" cy="307.18" rx="10.59" ry="4.14"/>
  <ellipse class="cls-2" cx="398.7" cy="307.18" rx="2.94" ry="4.03"/>
  <ellipse class="cls-14" cx="344.73" cy="307.18" rx="10.59" ry="4.14"/>
  <ellipse class="cls-2" cx="344.73" cy="307.18" rx="2.94" ry="4.03"/>
  <polygon class="cls-13" points="371.75 315.16 364.04 331.44 379.46 331.44 371.75 315.16"/>
  <line class="cls-3" x1="376.65" y1="327.51" x2="399.57" y2="319.09"/>
  <line class="cls-3" x1="402.94" y1="329.25" x2="375.76" y2="329.66"/>
  <line class="cls-3" x1="395" y1="339.37" x2="373.14" y2="329.35"/>
  <line class="cls-3" x1="340.44" y1="326.53" x2="366.72" y2="329"/>
  <line class="cls-3" x1="341.79" y1="336.65" x2="366.72" y2="329"/>
  <line class="cls-3" x1="344.73" y1="345.02" x2="366.72" y2="329"/>
  <path class="cls-11" d="M548.95,290.35c12.15-9.92,26.22-17.43,41.53-21.82-17.03-10.6-28.37-29.48-28.37-51.02,0-15.32,5.73-29.3,15.18-39.91h-1.51l25.78-44.67,14.34,24.84,6.47,11.2,6.44-11.15,14.36-24.89,25.79,44.67h-1.91c9.45,10.61,15.18,24.59,15.18,39.91,0,21.54-11.34,40.42-28.37,51.02,15.31,4.39,29.38,11.9,41.53,21.82h-146.44Z"/>
  <path class="cls-11" d="M628.81,157.82l-6.44,11.15-6.47-11.2c2.06-.21,4.15-.32,6.27-.32,2.24,0,4.46.12,6.64.37Z"/>
  <ellipse class="cls-14" cx="654.34" cy="202.54" rx="10.59" ry="4.14"/>
  <ellipse class="cls-2" cx="654.34" cy="202.54" rx="2.94" ry="4.03"/>
  <ellipse class="cls-14" cx="600.36" cy="202.54" rx="10.59" ry="4.14"/>
  <ellipse class="cls-2" cx="600.36" cy="202.54" rx="2.94" ry="4.03"/>
  <polygon class="cls-13" points="627.39 210.52 619.68 226.8 635.1 226.8 627.39 210.52"/>
  <line class="cls-3" x1="632.29" y1="222.87" x2="655.21" y2="214.45"/>
  <line class="cls-3" x1="658.58" y1="224.61" x2="631.4" y2="225.02"/>
  <line class="cls-3" x1="650.64" y1="234.73" x2="628.77" y2="224.71"/>
  <line class="cls-3" x1="596.07" y1="221.89" x2="622.36" y2="224.36"/>
  <line class="cls-3" x1="597.42" y1="232.01" x2="622.36" y2="224.36"/>
  <line class="cls-3" x1="600.36" y1="240.38" x2="622.36" y2="224.36"/>
  <rect class="cls-8" x="264.73" y="168.27" width="200" height="221.82"/>
  <polyline class="cls-9" points="574.59 68.54 620.95 22.91 648.92 68.54"/>
  <rect class="cls-8" x="514.75" y="68.54" width="200" height="221.81"/>
  <g>
    <path d="M1125.31,138.81c-1.86,0-3.54.12-5.16.24,1.08-2.22,1.68-3.54,1.68-10.32v-9.66c0-1.2-1.02-2.22-2.22-2.22h-13.92c-1.26,0-2.22,1.02-2.22,2.22v9.66c0,6.78.54,8.1,1.68,10.32-1.68-.12-3.48-.24-5.34-.24s-3.54.12-5.16.24c1.08-2.22,1.68-3.54,1.68-10.32v-19.8c0-6.78-.6-8.1-1.68-10.32,1.56.12,3.3.24,5.16.24s3.66-.12,5.34-.24c-1.14,2.22-1.68,3.54-1.68,10.32v5.64c0,1.2.96,2.22,2.22,2.22h13.92c1.2,0,2.22-1.02,2.22-2.22v-5.64c0-6.78-.6-8.1-1.68-10.32,1.56.12,3.3.24,5.16.24s3.66-.12,5.34-.24c-1.14,2.22-1.68,3.54-1.68,10.32v19.8c0,6.78.54,8.1,1.68,10.32-1.68-.12-3.48-.24-5.34-.24Z"/>
    <path d="M1151.47,139.05c-11.7,0-19.56-8.94-19.62-20.16,0-10.14,6.06-18.3,16.14-19.8,0,0-8.52,3.54-8.52,16.62,0,1.44.12,3.06.36,4.74,2.16,16.08,14.52,18.42,14.52,18.42-.9.12-1.8.18-2.76.18h-.12ZM1164.25,121.17c0-1.26-.06-2.58-.24-3.96-2.22-17.52-14.1-18.48-14.1-18.48,1.02-.12,1.74-.18,2.76-.18,11.94,0,19.2,9.12,19.26,20.4,0,10.02-6.12,18.12-15.96,19.68,0,0,8.28-4.62,8.28-17.46Z"/>
    <path d="M1178.77,106.65c-1.74-2.76-3.66-5.88-5.64-8.1h4.56c3.6,0,6.9,1.86,8.82,4.86l8.1,12.9c.42.66.84,1.44,1.44,1.44.42,0,.96-.36,1.62-1.44l3.3-5.64-7.8,19.26-14.4-23.28ZM1178.41,138.87c-1.86,0-3.6.06-5.28.12,2.1-1.92,2.34-9.12,2.34-10.02v-18.3h.12c1.38,15.54,8.28,22.44,8.28,28.32-1.68-.06-3.54-.12-5.46-.12ZM1209.73,138.81c-1.8,0-3.54.06-5.16.18,1.08-2.16,1.68-3.54,1.68-10.32v-19.8c0-6.78-.42-9.42-1.26-10.32,1.62.18,2.88.24,4.74.24s3.66-.06,5.34-.24c-1.08,2.22-1.68,3.54-1.68,10.32v19.8c0,6.78.6,8.16,1.68,10.32-1.68-.12-3.42-.18-5.34-.18Z"/>
    <path d="M1221.43,138.81c-1.8,0-3.54.12-5.16.24,1.14-2.22,1.68-3.54,1.68-10.32v-19.8c0-6.78-.54-8.1-1.68-10.32,1.62.12,3.36.24,5.16.24,1.92,0,3.72-.12,5.34-.24-1.08,2.22-1.68,3.54-1.68,10.32v19.8c0,6.78.6,8.1,1.68,10.32-1.62-.12-3.42-.24-5.34-.24ZM1226.89,117.75h-.12s5.64-5.22,11.4-5.22c-.24,1.92-.36,3.06-.36,4.92s.18,3.18.48,5.82c-5.22-5.28-10.44-5.52-11.4-5.52ZM1229.47,139.05c4.44-1.08,10.74-8.64,18.18-8.64-.12,1.08-.24,2.34-.24,3.72,0,1.98.06,3.24.24,4.92h-18.18ZM1229.59,98.61h17.22c-.18,1.26-.3,2.7-.3,4.2,0,1.62.12,3.12.3,4.44-6.72,0-12.48-7.62-17.22-8.64Z"/>
    <path d="M1263.49,133.11c.78-.78,1.56-1.62,2.28-2.82.84-1.56,1.5-3.24,1.86-4.8,1.5,1.14,3.72,5.16,5.22,8.04,1.38,2.7,2.76,5.1,5.58,5.52-7.02-.24-12.6-2.88-14.94-5.94ZM1286.41,131.01c0-10.56-21.66-10.62-21.66-22.5,0-7.44,7.68-9.84,13.68-9.84-2.1.36-6.66,1.92-6.66,6.96,0,9.06,22.44,9.48,22.44,23.04,0,7.62-8.28,10.02-13.56,10.38,2.04-.54,5.76-2.4,5.76-8.04ZM1287.61,111.09c-3.78-2.28-.96-11.46-6.96-12.42,5.22.36,9.24,2.64,12.3,5.94-.54.6-1.44,1.68-2.1,3-.72,1.32-1.14,3.12-1.2,4.08-.6-.12-1.32-.18-2.04-.6Z"/>
    <path d="M1311.73,139.05c-2.28,0-4.26-1.44-4.98-3.6l-8.34-25.26c-1.44-4.56-3.36-10.2-5.4-11.46,1.62.24,3.6.42,5.76.42s4.08-.18,5.7-.42c-.24.66-.54,1.62-.54,3,0,1.62.36,3.72,1.38,6.54,4.08,12.3,2.16,6.66,6.3,19.08.9,2.94,1.92,3.96,2.82,3.96,1.44,0,2.64-2.52,2.94-3.24l-1.32,4.68c-.24.78-.42,1.8-.42,2.88,0,1.38.48,2.52,1.32,3.36l.06.06h-5.28ZM1329.79,139.05c-2.28,0-4.32-1.44-4.98-3.6l-8.34-25.26c-1.44-4.56-3.36-10.2-5.4-11.46,1.62.24,3.6.42,5.76.42s4.08-.18,5.7-.42c-.3.66-.54,1.62-.54,3,0,1.62.36,3.72,1.38,6.54,4.62,14.1,2.28,7.08,6.96,21.12,1.08,3.36,2.04,7.08,4.74,9.66h-5.28ZM1337.47,114.21c0-6.84-1.5-10.56-1.5-13.26,0-.84.12-1.56.48-2.22,1.56.24,3.42.36,5.46.36s3.72-.18,5.28-.36c-1.62,1.62-3.48,6.48-4.8,9.96l-6.12,16.8c.9-4.5,1.2-8.22,1.2-11.28Z"/>
    <path d="M1353.55,138.81c-1.8,0-3.54.12-5.16.24,1.14-2.22,1.68-3.54,1.68-10.32v-19.8c0-6.78-.54-8.1-1.68-10.32,1.62.12,3.36.24,5.16.24,1.92,0,3.72-.12,5.34-.24-1.08,2.22-1.68,3.54-1.68,10.32v19.8c0,6.78.6,8.1,1.68,10.32-1.62-.12-3.42-.24-5.34-.24ZM1359.01,117.75h-.12s5.64-5.22,11.4-5.22c-.24,1.92-.36,3.06-.36,4.92s.18,3.18.48,5.82c-5.22-5.28-10.44-5.52-11.4-5.52ZM1361.59,139.05c4.44-1.08,10.74-8.64,18.18-8.64-.12,1.08-.24,2.34-.24,3.72,0,1.98.06,3.24.24,4.92h-18.18ZM1361.71,98.61h17.22c-.18,1.26-.3,2.7-.3,4.2,0,1.62.12,3.12.3,4.44-6.72,0-12.48-7.62-17.22-8.64Z"/>
    <path d="M1386.13,138.81c-1.8,0-3.54.12-5.16.24,1.14-2.22,1.68-3.54,1.68-10.32v-19.8c0-6.78-.54-8.1-1.68-10.32,1.62.12,3.36.24,5.16.24,1.92,0,3.72-.12,5.34-.24-1.08,2.22-1.68,3.54-1.68,10.32v19.8c0,6.78.6,8.1,1.68,10.32-1.62-.12-3.42-.24-5.34-.24ZM1391.59,117.75h-.12s5.64-5.22,11.4-5.22c-.24,1.92-.36,3.06-.36,4.92s.18,3.18.48,5.82c-5.22-5.28-10.44-5.52-11.4-5.52ZM1394.17,139.05c4.44-1.08,10.74-8.64,18.18-8.64-.12,1.08-.24,2.34-.24,3.72,0,1.98.06,3.24.24,4.92h-18.18ZM1394.29,98.61h17.22c-.18,1.26-.3,2.7-.3,4.2,0,1.62.12,3.12.3,4.44-6.72,0-12.48-7.62-17.22-8.64Z"/>
    <path d="M1413.91,102.33c0-1.56-.24-3-.36-3.72h10.32c-4.44,1.08-4.14,10.56-10.32,10.56.18-1.26.36-5.16.36-6.84ZM1430.29,138.81c-1.86,0-3.54.12-5.16.24,1.08-2.16,1.68-3.54,1.68-10.32v-19.8c0-6.78-.6-8.1-1.68-10.32,1.62.12,3.36.24,5.16.24,1.92,0,3.66-.12,5.34-.24-1.08,2.22-1.68,3.54-1.68,10.32v19.8c0,6.78.6,8.16,1.68,10.32-1.62-.12-3.42-.24-5.34-.24ZM1436.89,98.61h10.32c-.12.72-.36,2.16-.36,3.72,0,1.68.18,5.58.36,6.84-6.18,0-5.88-9.48-10.32-10.56Z"/>
    <path d="M1493.71,138.81c-1.86,0-3.54.12-5.16.24,1.08-2.22,1.68-3.54,1.68-10.32v-9.66c0-1.2-1.02-2.22-2.22-2.22h-13.92c-1.26,0-2.22,1.02-2.22,2.22v9.66c0,6.78.54,8.1,1.68,10.32-1.68-.12-3.48-.24-5.34-.24s-3.54.12-5.16.24c1.08-2.22,1.68-3.54,1.68-10.32v-19.8c0-6.78-.6-8.1-1.68-10.32,1.56.12,3.3.24,5.16.24s3.66-.12,5.34-.24c-1.14,2.22-1.68,3.54-1.68,10.32v5.64c0,1.2.96,2.22,2.22,2.22h13.92c1.2,0,2.22-1.02,2.22-2.22v-5.64c0-6.78-.6-8.1-1.68-10.32,1.56.12,3.3.24,5.16.24s3.66-.12,5.34-.24c-1.14,2.22-1.68,3.54-1.68,10.32v19.8c0,6.78.54,8.1,1.68,10.32-1.68-.12-3.48-.24-5.34-.24Z"/>
    <path d="M1519.87,139.05c-11.7,0-19.56-8.94-19.62-20.16,0-10.14,6.06-18.3,16.14-19.8,0,0-8.52,3.54-8.52,16.62,0,1.44.12,3.06.36,4.74,2.16,16.08,14.52,18.42,14.52,18.42-.9.12-1.8.18-2.76.18h-.12ZM1532.65,121.17c0-1.26-.06-2.58-.24-3.96-2.22-17.52-14.1-18.48-14.1-18.48,1.02-.12,1.74-.18,2.76-.18,11.94,0,19.2,9.12,19.26,20.4,0,10.02-6.12,18.12-15.96,19.68,0,0,8.28-4.62,8.28-17.46Z"/>
    <path d="M1547.17,106.65c-1.74-2.76-3.66-5.88-5.64-8.1h4.56c3.6,0,6.9,1.86,8.82,4.86l8.1,12.9c.42.66.84,1.44,1.44,1.44.42,0,.96-.36,1.62-1.44l3.3-5.64-7.8,19.26-14.4-23.28ZM1546.81,138.87c-1.86,0-3.6.06-5.28.12,2.1-1.92,2.34-9.12,2.34-10.02v-18.3h.12c1.38,15.54,8.28,22.44,8.28,28.32-1.68-.06-3.54-.12-5.46-.12ZM1578.13,138.81c-1.8,0-3.54.06-5.16.18,1.08-2.16,1.68-3.54,1.68-10.32v-19.8c0-6.78-.42-9.42-1.26-10.32,1.62.18,2.88.24,4.74.24s3.66-.06,5.34-.24c-1.08,2.22-1.68,3.54-1.68,10.32v19.8c0,6.78.6,8.16,1.68,10.32-1.68-.12-3.42-.18-5.34-.18Z"/>
    <path d="M1589.83,138.81c-1.8,0-3.54.12-5.16.24,1.14-2.22,1.68-3.54,1.68-10.32v-19.8c0-6.78-.54-8.1-1.68-10.32,1.62.12,3.36.24,5.16.24,1.92,0,3.72-.12,5.34-.24-1.08,2.22-1.68,3.54-1.68,10.32v19.8c0,6.78.6,8.1,1.68,10.32-1.62-.12-3.42-.24-5.34-.24ZM1595.29,117.75h-.12s5.64-5.22,11.4-5.22c-.24,1.92-.36,3.06-.36,4.92s.18,3.18.48,5.82c-5.22-5.28-10.44-5.52-11.4-5.52ZM1597.87,139.05c4.44-1.08,10.74-8.64,18.18-8.64-.12,1.08-.24,2.34-.24,3.72,0,1.98.06,3.24.24,4.92h-18.18ZM1597.99,98.61h17.22c-.18,1.26-.3,2.7-.3,4.2,0,1.62.12,3.12.3,4.44-6.72,0-12.48-7.62-17.22-8.64Z"/>
  </g>
</svg>