<?xml version="1.0" encoding="UTF-8"?>
<svg id="Forgrund" xmlns="http://www.w3.org/2000/svg" viewBox="0 0 1920 1080">
  <defs>
    <style>
      .cls-1 {
        font-size: 112px;
      }

      .cls-1, .cls-2 {
        font-family: Arial-Black, 'Arial Black';
        font-weight: 800;
      }

      .cls-3 {
        font-family: Alfarn, Alfarn;
        font-size: 16px;
      }

      .cls-4 {
        fill: gray;
      }

      .cls-2 {
        font-size: 25px;
      }

      .cls-5 {
        fill: #ffef57;
      }

      .cls-6 {
        stroke-width: 11px;
      }

      .cls-6, .cls-7, .cls-8 {
        fill: #fff;
      }

      .cls-6, .cls-9 {
        stroke: #000;
        stroke-miterlimit: 10;
      }

      .cls-10 {
        fill: #8cc63f;
      }

      .cls-11 {
        fill: #ccc;
      }

      .cls-12 {
        fill: #86ddfc;
      }

      .cls-8 {
        stroke: #ccc;
      }

      .cls-8, .cls-13 {
        stroke-linecap: round;
        stroke-linejoin: bevel;
        stroke-width: 7px;
      }

      .cls-14 {
        fill: #b3b3b3;
      }

      .cls-15 {
        letter-spacing: -.07em;
      }

      .cls-16 {
        fill: #736357;
      }

      .cls-17 {
        letter-spacing: -.02em;
      }

      .cls-13 {
        opacity: .5;
        stroke: #fff;
      }

      .cls-13, .cls-9 {
        fill: none;
      }

      .cls-9 {
        stroke-width: 3px;
      }
    </style>
  </defs>
  <rect class="cls-16" y="748.81" width="1920" height="331.19"/>
  <polygon class="cls-14" points="1364.48 938 555.52 938 604.88 748.81 1315.12 748.81 1364.48 938"/>
  <g>
    <path class="cls-7" d="M610.36,742.31v-347.02c0-8.92,7.26-16.18,16.18-16.18h666.93c8.92,0,16.18,7.26,16.18,16.18v347.02h-699.28Z"/>
    <path d="M1293.46,385.61c5.34,0,9.68,4.34,9.68,9.68v340.52h-686.28v-340.52c0-5.34,4.34-9.68,9.68-9.68h666.93M1293.46,372.61h-666.93c-12.52,0-22.68,10.15-22.68,22.68v353.52h712.28v-353.52c0-12.52-10.15-22.68-22.68-22.68h0Z"/>
  </g>
  <rect class="cls-11" x="555.02" y="938" width="809.96" height="6.19"/>
  <path class="cls-4" d="M555.02,944.2h809.96v.84c0,8.37-6.8,15.17-15.17,15.17h-779.58c-8.4,0-15.21-6.82-15.21-15.21v-.8h0Z"/>
  <polygon points="1066.86 925.86 853.14 925.86 865.7 892.79 1054.3 892.79 1066.86 925.86"/>
  <g>
    <path d="M668.57,819.65c-.95,4.15-1.42,6.22-2.36,10.36-.16.68-.71,1.23-1.24,1.23h-63.09c-.53,0-.81-.55-.62-1.23,1.15-4.15,1.73-6.22,2.89-10.36.19-.68.77-1.23,1.3-1.23h62.46c.53,0,.83.55.67,1.23Z"/>
    <path d="M1317.51,831.24h-31.77c-.64,0-1.27-.46-1.42-1.03-1.09-4.31-1.63-6.46-2.71-10.76-.14-.57.25-1.03.89-1.03h31.45c.63,0,1.27.46,1.43,1.03,1.2,4.31,1.8,6.46,3,10.76.16.57-.23,1.03-.87,1.03Z"/>
    <path d="M838.84,831.24h-31.77c-.64,0-1.1-.46-1.03-1.03.51-4.31.77-6.46,1.28-10.76.07-.57.64-1.03,1.27-1.03,10.48,0,20.97,0,31.45,0,.63,0,1.1.46,1.05,1.03-.4,4.31-.6,6.46-1,10.76-.05.57-.61,1.03-1.25,1.03Z"/>
    <path d="M969.38,831.24h-31.77c-.64,0-1.15-.46-1.14-1.03.08-4.31.12-6.46.19-10.76.01-.57.53-1.03,1.16-1.03h31.45c.63,0,1.15.46,1.15,1.03.04,4.31.05,6.46.09,10.76,0,.57-.51,1.03-1.15,1.03Z"/>
    <path d="M925.87,831.24h-31.77c-.64,0-1.13-.46-1.1-1.03.22-4.31.33-6.46.56-10.76.03-.57.57-1.03,1.2-1.03h31.45c.63,0,1.13.46,1.12,1.03-.11,4.31-.16,6.46-.27,10.76-.01.57-.54,1.03-1.18,1.03Z"/>
    <path d="M882.35,831.24h-31.77c-.64,0-1.12-.46-1.07-1.03.37-4.31.55-6.46.92-10.76.05-.57.6-1.03,1.23-1.03h31.45c.63,0,1.12.46,1.08,1.03-.26,4.31-.38,6.46-.64,10.76-.03.57-.58,1.03-1.22,1.03Z"/>
    <path d="M751.8,831.24h-31.77c-.64,0-1.07-.46-.96-1.03.8-4.31,1.21-6.46,2.01-10.76.11-.57.7-1.03,1.34-1.03h31.45c.63,0,1.07.46.98,1.03-.69,4.31-1.04,6.46-1.73,10.76-.09.57-.68,1.03-1.32,1.03Z"/>
    <path d="M795.32,831.24h-31.77c-.64,0-1.09-.46-1-1.03.66-4.31.99-6.46,1.65-10.76.09-.57.67-1.03,1.3-1.03h31.45c.63,0,1.09.46,1.01,1.03-.55,4.31-.82,6.46-1.36,10.76-.07.57-.65,1.03-1.29,1.03Z"/>
    <path d="M708.29,831.24h-31.77c-.64,0-1.05-.46-.93-1.03.95-4.31,1.42-6.46,2.38-10.76.13-.57.74-1.03,1.37-1.03h31.45c.63,0,1.06.46.94,1.03-.84,4.31-1.25,6.46-2.09,10.76-.11.57-.72,1.03-1.36,1.03Z"/>
    <path d="M1186.96,831.24h-31.77c-.64,0-1.23-.46-1.31-1.03-.65-4.31-.97-6.46-1.62-10.76-.09-.57.36-1.03.99-1.03h31.45c.63,0,1.23.46,1.33,1.03.76,4.31,1.14,6.46,1.91,10.76.1.57-.34,1.03-.97,1.03Z"/>
    <path d="M1230.48,831.24h-31.77c-.64,0-1.24-.46-1.35-1.03-.79-4.31-1.19-6.46-1.99-10.76-.1-.57.32-1.03.95-1.03h31.45c.63,0,1.24.46,1.36,1.03.91,4.31,1.36,6.46,2.27,10.76.12.57-.3,1.03-.94,1.03Z"/>
    <path d="M1274,831.24h-31.77c-.64,0-1.26-.46-1.38-1.03-.94-4.31-1.41-6.46-2.35-10.76-.12-.57.29-1.03.92-1.03,10.48,0,20.97,0,31.45,0,.63,0,1.26.46,1.4,1.03,1.05,4.31,1.58,6.46,2.63,10.76.14.57-.27,1.03-.9,1.03Z"/>
    <path d="M1143.45,831.24h-31.77c-.64,0-1.21-.46-1.28-1.03-.5-4.31-.76-6.46-1.26-10.76-.07-.57.39-1.03,1.02-1.03h31.45c.63,0,1.21.46,1.29,1.03.62,4.31.93,6.46,1.54,10.76.08.57-.37,1.03-1.01,1.03Z"/>
    <path d="M1056.42,831.24h-31.77c-.64,0-1.18-.46-1.21-1.03-.21-4.31-.32-6.46-.53-10.76-.03-.57.46-1.03,1.09-1.03h31.45c.63,0,1.18.46,1.22,1.03.33,4.31.49,6.46.82,10.76.04.57-.44,1.03-1.08,1.03Z"/>
    <path d="M1099.93,831.24h-31.77c-.64,0-1.19-.46-1.24-1.03-.36-4.31-.54-6.46-.9-10.76-.05-.57.43-1.03,1.06-1.03,10.48,0,20.97,0,31.45,0,.63,0,1.2.46,1.26,1.03.47,4.31.71,6.46,1.18,10.76.06.57-.4,1.03-1.04,1.03Z"/>
    <path d="M1012.9,831.24h-31.77c-.64,0-1.16-.46-1.17-1.03-.07-4.31-.1-6.46-.17-10.76,0-.57.5-1.03,1.13-1.03h31.45c.63,0,1.16.46,1.19,1.03.18,4.31.27,6.46.45,10.76.02.57-.47,1.03-1.11,1.03Z"/>
  </g>
  <g>
    <path d="M641.57,784.8h-31.19c-.58,0-.92-.43-.75-.95,1.16-3.66,1.73-5.49,2.89-9.15.17-.53.77-.95,1.34-.95h30.88c.58,0,.92.43.77.95-1.05,3.66-1.57,5.49-2.61,9.15-.15.53-.74.95-1.32.95Z"/>
    <path d="M1309.59,784.8h-31.19c-.58,0-1.17-.43-1.32-.95-1.05-3.66-1.57-5.49-2.61-9.15-.15-.53.19-.95.77-.95h30.88c.58,0,1.18.43,1.34.95,1.16,3.66,1.73,5.49,2.89,9.15.17.53-.17.95-.75.95Z"/>
    <path d="M854.02,784.8h-31.19c-.58,0-1-.43-.93-.95.46-3.66.68-5.49,1.14-9.15.07-.53.58-.95,1.16-.95h30.88c.58,0,1,.43.95.95-.35,3.66-.52,5.49-.86,9.15-.05.53-.56.95-1.14.95Z"/>
    <path d="M981.49,784.8h-31.19c-.58,0-1.05-.43-1.04-.95.04-3.66.05-5.49.09-9.15,0-.53.48-.95,1.05-.95h30.88c.58,0,1.05.43,1.06.95.07,3.66.11,5.49.19,9.15.01.53-.45.95-1.03.95Z"/>
    <path d="M939,784.8h-31.19c-.58,0-1.03-.43-1.01-.95.18-3.66.26-5.49.44-9.15.03-.53.51-.95,1.09-.95h30.88c.58,0,1.03.43,1.02.95-.07,3.66-.1,5.49-.16,9.15,0,.53-.49.95-1.07.95Z"/>
    <path d="M896.51,784.8h-31.19c-.58,0-1.02-.43-.97-.95.32-3.66.47-5.49.79-9.15.05-.53.55-.95,1.12-.95h30.88c.58,0,1.02.43.99.95-.21,3.66-.31,5.49-.51,9.15-.03.53-.52.95-1.11.95Z"/>
    <path d="M769.04,784.8h-31.19c-.58,0-.97-.43-.86-.95.74-3.66,1.1-5.49,1.84-9.15.11-.53.66-.95,1.23-.95h30.88c.58,0,.97.43.88.95-.63,3.66-.94,5.49-1.56,9.15-.09.53-.63.95-1.22.95Z"/>
    <path d="M811.53,784.8h-31.19c-.58,0-.98-.43-.9-.95.6-3.66.89-5.49,1.49-9.15.09-.53.62-.95,1.2-.95h30.88c.58,0,.99.43.92.95-.49,3.66-.73,5.49-1.21,9.15-.07.53-.6.95-1.18.95Z"/>
    <path d="M726.55,784.8h-31.19c-.58,0-.95-.43-.82-.95.88-3.66,1.31-5.49,2.19-9.15.13-.53.69-.95,1.27-.95h30.88c.58,0,.95.43.84.95-.77,3.66-1.15,5.49-1.91,9.15-.11.53-.67.95-1.25.95Z"/>
    <path d="M684.06,784.8h-31.19c-.58,0-.93-.43-.79-.95,1.02-3.66,1.52-5.49,2.54-9.15.15-.53.73-.95,1.31-.95h30.88c.58,0,.94.43.81.95-.91,3.66-1.36,5.49-2.26,9.15-.13.53-.71.95-1.29.95Z"/>
    <path d="M1193.95,784.8h-31.19c-.58,0-1.13-.43-1.23-.95-.66-3.66-1-5.49-1.66-9.15-.1-.53.29-.95.87-.95h30.88c.58,0,1.13.43,1.24.95.77,3.66,1.16,5.49,1.94,9.15.11.53-.27.95-.85.95Z"/>
    <g>
      <path d="M1236.44,784.8c-10.4,0-20.8,0-31.19,0-.58,0-1.15-.43-1.26-.95-.8-3.66-1.21-5.49-2.01-9.15-.12-.53.26-.95.83-.95h30.88c.58,0,1.15.43,1.28.95.91,3.66,1.37,5.49,2.29,9.15.13.53-.23.95-.81.95Z"/>
      <path d="M1267.09,784.8h-31.19c-.58,0-1.16-.43-1.29-.95-.91-3.66-1.36-5.49-2.26-9.15-.13-.53.23-.95.81-.95h30.88c.58,0,1.16.43,1.31.95,1.02,3.66,1.52,5.49,2.54,9.15.15.53-.21.95-.79.95Z"/>
    </g>
    <path d="M1151.46,784.8h-31.19c-.58,0-1.11-.43-1.19-.95-.52-3.66-.79-5.49-1.31-9.15-.08-.53.33-.95.91-.95h30.88c.58,0,1.12.43,1.21.95.63,3.66.95,5.49,1.59,9.15.09.53-.31.95-.89.95Z"/>
    <path d="M1066.47,784.8h-31.19c-.58,0-1.08-.43-1.12-.95-.24-3.66-.37-5.49-.61-9.15-.04-.53.4-.95.98-.95h30.88c.58,0,1.08.43,1.13.95.35,3.66.53,5.49.89,9.15.05.53-.38.95-.96.95Z"/>
    <path d="M1108.96,784.8h-31.19c-.58,0-1.1-.43-1.15-.95-.38-3.66-.58-5.49-.96-9.15-.06-.53.37-.95.94-.95h30.88c.58,0,1.1.43,1.17.95.49,3.66.74,5.49,1.24,9.15.07.53-.34.95-.92.95Z"/>
    <path d="M1023.98,784.8h-31.19c-.58,0-1.06-.43-1.08-.95-.1-3.66-.16-5.49-.26-9.15-.02-.53.44-.95,1.01-.95h30.88c.58,0,1.07.43,1.1.95.21,3.66.32,5.49.54,9.15.03.53-.42.95-1,.95Z"/>
  </g>
  <g>
    <path d="M647.47,768.72h-30.94c-.51,0-.78-.36-.6-.8,1.11-2.7,1.67-4.05,2.78-6.76.18-.44.74-.8,1.25-.8,10.21,0,20.42,0,30.63,0,.51,0,.79.36.62.8-1.01,2.7-1.51,4.05-2.51,6.76-.17.44-.72.8-1.23.8Z"/>
    <path d="M1305.38,768.72c-10.31,0-20.62,0-30.94,0-.51,0-1.06-.36-1.23-.8-1-2.7-1.51-4.05-2.51-6.76-.17-.44.11-.8.62-.8,10.21,0,20.42,0,30.63,0,.51,0,1.07.36,1.25.8,1.11,2.7,1.67,4.05,2.78,6.76.18.44-.09.8-.6.8Z"/>
    <path d="M853.07,768.72c-10.31,0-20.62,0-30.94,0-.51,0-.87-.36-.8-.8.45-2.7.67-4.05,1.12-6.76.07-.44.55-.8,1.05-.8h30.63c.51,0,.87.36.82.8-.34,2.7-.52,4.05-.86,6.76-.06.44-.52.8-1.03.8Z"/>
    <path d="M976.43,768.72c-10.31,0-20.62,0-30.94,0-.51,0-.92-.36-.91-.8.05-2.7.08-4.05.13-6.76,0-.44.43-.8.94-.8h30.63c.51,0,.93.36.94.8.05,2.7.08,4.05.13,6.76,0,.44-.4.8-.91.8Z"/>
    <path d="M935.31,768.72h-30.94c-.51,0-.9-.36-.87-.8.19-2.7.28-4.05.46-6.76.03-.44.47-.8.98-.8h30.63c.51,0,.91.36.9.8-.08,2.7-.12,4.05-.2,6.76-.01.44-.44.8-.95.8Z"/>
    <path d="M894.19,768.72h-30.94c-.51,0-.89-.36-.83-.8.32-2.7.48-4.05.79-6.76.05-.44.51-.8,1.01-.8h30.63c.51,0,.89.36.86.8-.21,2.7-.32,4.05-.53,6.76-.03.44-.48.8-.99.8Z"/>
    <path d="M770.83,768.72h-30.94c-.51,0-.83-.36-.72-.8.71-2.7,1.07-4.05,1.78-6.76.12-.44.62-.8,1.13-.8h30.63c.51,0,.84.36.74.8-.61,2.7-.91,4.05-1.52,6.76-.1.44-.6.8-1.11.8Z"/>
    <path d="M811.95,768.72h-30.94c-.51,0-.85-.36-.76-.8.58-2.7.87-4.05,1.45-6.76.1-.44.59-.8,1.09-.8,10.21,0,20.42,0,30.63,0,.51,0,.86.36.78.8-.48,2.7-.71,4.05-1.19,6.76-.08.44-.56.8-1.07.8Z"/>
    <path d="M729.71,768.72c-10.31,0-20.62,0-30.94,0-.51,0-.82-.36-.68-.8.85-2.7,1.27-4.05,2.11-6.76.14-.44.66-.8,1.17-.8h30.63c.51,0,.82.36.7.8-.74,2.7-1.11,4.05-1.85,6.76-.12.44-.64.8-1.15.8Z"/>
    <path d="M688.59,768.72h-30.94c-.51,0-.8-.36-.64-.8.98-2.7,1.47-4.05,2.45-6.76.16-.44.7-.8,1.21-.8h30.63c.51,0,.8.36.66.8-.87,2.7-1.31,4.05-2.18,6.76-.14.44-.68.8-1.19.8Z"/>
    <path d="M1182.03,768.72c-10.31,0-20.62,0-30.94,0-.51,0-1.01-.36-1.11-.8-.61-2.7-.91-4.05-1.52-6.76-.1-.44.23-.8.74-.8h30.63c.51,0,1.01.36,1.13.8.71,2.7,1.07,4.05,1.78,6.76.12.44-.2.8-.72.8Z"/>
    <path d="M1223.15,768.72h-30.94c-.51,0-1.03-.36-1.15-.8-.74-2.7-1.11-4.05-1.85-6.76-.12-.44.19-.8.7-.8h30.63c.51,0,1.03.36,1.17.8.85,2.7,1.27,4.05,2.11,6.76.14.44-.16.8-.68.8Z"/>
    <path d="M1264.27,768.72c-10.31,0-20.62,0-30.94,0-.51,0-1.05-.36-1.19-.8-.87-2.7-1.31-4.05-2.18-6.76-.14-.44.15-.8.66-.8h30.63c.51,0,1.05.36,1.21.8.98,2.7,1.47,4.05,2.45,6.76.16.44-.13.8-.64.8Z"/>
    <path d="M1140.91,768.72h-30.94c-.51,0-.99-.36-1.07-.8-.48-2.7-.71-4.05-1.19-6.76-.08-.44.27-.8.78-.8,10.21,0,20.42,0,30.63,0,.51,0,1,.36,1.09.8.58,2.7.87,4.05,1.45,6.76.1.44-.24.8-.76.8Z"/>
    <path d="M1058.67,768.72h-30.94c-.51,0-.96-.36-.99-.8-.21-2.7-.32-4.05-.53-6.76-.03-.44.35-.8.86-.8h30.63c.51,0,.96.36,1.01.8.32,2.7.48,4.05.79,6.76.05.44-.32.8-.83.8Z"/>
    <path d="M1099.79,768.72h-30.94c-.51,0-.97-.36-1.03-.8-.34-2.7-.52-4.05-.86-6.76-.06-.44.31-.8.82-.8h30.63c.51,0,.98.36,1.05.8.45,2.7.67,4.05,1.12,6.76.07.44-.28.8-.8.8Z"/>
    <path d="M1017.55,768.72h-30.94c-.51,0-.94-.36-.95-.8-.08-2.7-.12-4.05-.2-6.76-.01-.44.39-.8.9-.8h30.63c.51,0,.94.36.97.8.18,2.7.28,4.05.46,6.76.03.44-.36.8-.87.8Z"/>
  </g>
  <g>
    <path d="M638.06,808.29h-31.7c-.52,0-.79-.57-.61-1.27,1.14-4.23,1.7-6.34,2.84-10.57.19-.7.76-1.27,1.28-1.27h31.38c.52,0,.8.57.63,1.27-1.03,4.23-1.54,6.34-2.57,10.57-.17.7-.73,1.27-1.25,1.27Z"/>
    <path d="M1311.94,808.29c-10.57,0-21.13,0-31.7,0-.52,0-1.08-.57-1.25-1.27-1.03-4.23-1.54-6.34-2.57-10.57-.17-.7.11-1.27.63-1.27h31.38c.52,0,1.09.57,1.28,1.27,1.14,4.23,1.7,6.34,2.84,10.57.19.7-.08,1.27-.61,1.27Z"/>
    <path d="M848.64,808.29h-31.7c-.52,0-.88-.57-.81-1.27.46-4.23.69-6.34,1.15-10.57.08-.7.56-1.27,1.07-1.27h31.38c.52,0,.89.57.83,1.27-.35,4.23-.53,6.34-.88,10.57-.06.7-.53,1.27-1.05,1.27Z"/>
    <path d="M975,808.29c-10.57,0-21.13,0-31.7,0-.52,0-.94-.57-.93-1.27.05-4.23.08-6.34.13-10.57,0-.7.44-1.27.95-1.27h31.38c.52,0,.94.57.95,1.27.05,4.23.08,6.34.13,10.57,0,.7-.41,1.27-.93,1.27Z"/>
    <path d="M932.88,808.29h-31.7c-.52,0-.92-.57-.89-1.27.19-4.23.28-6.34.47-10.57.03-.7.48-1.27.99-1.27h31.38c.52,0,.93.57.91,1.27-.08,4.23-.12,6.34-.2,10.57-.01.7-.45,1.27-.97,1.27Z"/>
    <path d="M890.76,808.29c-10.57,0-21.13,0-31.7,0-.52,0-.9-.57-.85-1.27.32-4.23.49-6.34.81-10.57.05-.7.52-1.27,1.03-1.27h31.38c.52,0,.91.57.87,1.27-.22,4.23-.32,6.34-.54,10.57-.04.7-.49,1.27-1.01,1.27Z"/>
    <path d="M764.41,808.29h-31.7c-.52,0-.85-.57-.73-1.27.73-4.23,1.09-6.34,1.82-10.57.12-.7.64-1.27,1.16-1.27h31.38c.52,0,.85.57.75,1.27-.62,4.23-.93,6.34-1.56,10.57-.1.7-.61,1.27-1.13,1.27Z"/>
    <path d="M806.53,808.29c-10.57,0-21.13,0-31.7,0-.52,0-.87-.57-.77-1.27.6-4.23.89-6.34,1.49-10.57.1-.7.6-1.27,1.11-1.27,10.46,0,20.92,0,31.38,0,.52,0,.87.57.79,1.27-.49,4.23-.73,6.34-1.22,10.57-.08.7-.57,1.27-1.09,1.27Z"/>
    <path d="M722.29,808.29c-10.57,0-21.13,0-31.7,0-.52,0-.83-.57-.69-1.27.87-4.23,1.3-6.34,2.16-10.57.14-.7.68-1.27,1.2-1.27h31.38c.52,0,.83.57.71,1.27-.76,4.23-1.14,6.34-1.89,10.57-.13.7-.65,1.27-1.17,1.27Z"/>
    <path d="M680.17,808.29h-31.7c-.52,0-.81-.57-.65-1.27,1-4.23,1.5-6.34,2.5-10.57.17-.7.72-1.27,1.24-1.27h31.38c.52,0,.82.57.67,1.27-.89,4.23-1.34,6.34-2.23,10.57-.15.7-.69,1.27-1.21,1.27Z"/>
    <path d="M1185.59,808.29c-10.57,0-21.13,0-31.7,0-.52,0-1.03-.57-1.13-1.27-.62-4.23-.93-6.34-1.56-10.57-.1-.7.23-1.27.75-1.27h31.38c.52,0,1.03.57,1.16,1.27.73,4.23,1.1,6.34,1.83,10.57.12.7-.2,1.27-.73,1.27Z"/>
    <path d="M1227.7,808.29h-31.7c-.52,0-1.05-.57-1.17-1.27-.76-4.23-1.14-6.34-1.89-10.57-.13-.7.19-1.27.71-1.27h31.38c.52,0,1.05.57,1.2,1.27.86,4.23,1.3,6.34,2.16,10.57.14.7-.16,1.27-.69,1.27Z"/>
    <path d="M1269.82,808.29h-31.7c-.52,0-1.07-.57-1.21-1.27-.89-4.23-1.34-6.34-2.23-10.57-.15-.7.15-1.27.67-1.27h31.38c.52,0,1.07.57,1.24,1.27,1,4.23,1.5,6.34,2.5,10.57.17.7-.12,1.27-.65,1.27Z"/>
    <path d="M1143.47,808.29h-31.7c-.52,0-1.01-.57-1.09-1.27-.49-4.23-.73-6.34-1.22-10.57-.08-.7.27-1.27.79-1.27,10.46,0,20.92,0,31.38,0,.52,0,1.02.57,1.11,1.27.59,4.23.89,6.34,1.49,10.57.1.7-.25,1.27-.77,1.27Z"/>
    <path d="M1059.23,808.29h-31.7c-.52,0-.97-.57-1.01-1.27-.22-4.23-.33-6.34-.54-10.57-.04-.7.35-1.27.87-1.27h31.38c.52,0,.98.57,1.03,1.27.32,4.23.49,6.34.81,10.57.05.7-.33,1.27-.85,1.27Z"/>
    <path d="M1101.35,808.29h-31.7c-.52,0-.99-.57-1.05-1.27-.35-4.23-.53-6.34-.88-10.57-.06-.7.31-1.27.83-1.27h31.38c.52,0,1,.57,1.07,1.27.46,4.23.69,6.34,1.15,10.57.08.7-.29,1.27-.81,1.27Z"/>
    <path d="M1017.12,808.29h-31.7c-.52,0-.96-.57-.97-1.27-.08-4.23-.12-6.34-.2-10.57-.01-.7.4-1.27.91-1.27h31.38c.52,0,.96.57.99,1.27.19,4.23.28,6.34.47,10.57.03.7-.37,1.27-.89,1.27Z"/>
  </g>
  <g>
    <path d="M666.3,842.04c-.95,4.13-1.43,6.2-2.39,10.34-.16.68-.72,1.23-1.26,1.23h-64.31c-.54,0-.82-.55-.63-1.23,1.17-4.13,1.75-6.2,2.92-10.34.19-.68.78-1.23,1.31-1.23,21.22,0,42.45,0,63.67,0,.53,0,.84.55.68,1.23Z"/>
    <path d="M842.28,853.6h-32.25c-.61,0-1.05-.49-.98-1.08.5-4.25.75-6.37,1.25-10.62.07-.6.62-1.08,1.22-1.08h31.93c.61,0,1.05.49,1,1.08-.39,4.25-.58,6.37-.97,10.62-.05.6-.59,1.08-1.21,1.08Z"/>
    <path d="M977.09,853.6h-32.25c-.61,0-1.1-.49-1.09-1.08.06-4.25.08-6.37.14-10.62,0-.6.51-1.08,1.11-1.08,10.64,0,21.28,0,31.93,0,.61,0,1.1.49,1.11,1.08.06,4.25.09,6.37.15,10.62,0,.6-.48,1.08-1.09,1.08Z"/>
    <path d="M932.15,853.6h-32.25c-.61,0-1.08-.49-1.06-1.08.2-4.25.3-6.37.51-10.62.03-.6.54-1.08,1.15-1.08h31.93c.61,0,1.09.49,1.07,1.08-.09,4.25-.13,6.37-.22,10.62-.01.6-.52,1.08-1.13,1.08Z"/>
    <path d="M887.21,853.6h-32.25c-.61,0-1.07-.49-1.02-1.08.35-4.25.53-6.37.88-10.62.05-.6.58-1.08,1.19-1.08h31.93c.61,0,1.07.49,1.04,1.08-.24,4.25-.36,6.37-.59,10.62-.03.6-.56,1.08-1.17,1.08Z"/>
    <path d="M752.4,853.6h-32.25c-.61,0-1.02-.49-.9-1.08.8-4.25,1.2-6.37,1.99-10.62.11-.6.69-1.08,1.3-1.08h31.93c.61,0,1.02.49.92,1.08-.68,4.25-1.02,6.37-1.71,10.62-.1.6-.67,1.08-1.28,1.08Z"/>
    <path d="M797.34,853.6h-32.25c-.61,0-1.03-.49-.94-1.08.65-4.25.97-6.37,1.62-10.62.09-.6.66-1.08,1.26-1.08h31.93c.61,0,1.04.49.96,1.08-.53,4.25-.8,6.37-1.34,10.62-.08.6-.63,1.08-1.24,1.08Z"/>
    <path d="M707.46,853.6h-32.25c-.61,0-1-.49-.87-1.08.95-4.25,1.42-6.37,2.36-10.62.13-.6.73-1.08,1.34-1.08h31.93c.61,0,1,.49.88,1.08-.83,4.25-1.25,6.37-2.08,10.62-.12.6-.71,1.08-1.32,1.08Z"/>
    <path d="M1201.78,853.6h-32.25c-.61,0-1.19-.49-1.28-1.08-.69-4.25-1.03-6.37-1.72-10.62-.1-.6.32-1.08.92-1.08h31.93c.61,0,1.19.49,1.3,1.08.8,4.25,1.2,6.37,2,10.62.11.6-.29,1.08-.9,1.08Z"/>
    <path d="M1246.72,853.6h-32.25c-.61,0-1.2-.49-1.32-1.08-.84-4.25-1.25-6.37-2.09-10.62-.12-.6.28-1.08.88-1.08,10.64,0,21.28,0,31.93,0,.61,0,1.21.49,1.34,1.08.95,4.25,1.43,6.37,2.38,10.62.13.6-.25,1.08-.87,1.08Z"/>
    <path d="M1319.94,842.04c1.17,4.13,1.75,6.2,2.92,10.34.19.68-.09,1.23-.63,1.23h-62.95c-.54,0-1.1-.55-1.26-1.23-.96-4.13-1.44-6.2-2.4-10.34-.16-.68.15-1.23.68-1.23,20.77,0,41.55,0,62.32,0,.53,0,1.12.55,1.31,1.23Z"/>
    <path d="M1156.84,853.6h-32.25c-.61,0-1.17-.49-1.25-1.08-.54-4.25-.81-6.37-1.35-10.62-.08-.6.35-1.08.96-1.08h31.93c.61,0,1.17.49,1.26,1.08.65,4.25.98,6.37,1.63,10.62.09.6-.33,1.08-.94,1.08Z"/>
    <path d="M1066.97,853.6h-32.25c-.61,0-1.14-.49-1.17-1.08-.24-4.25-.36-6.37-.61-10.62-.03-.6.43-1.08,1.04-1.08h31.93c.61,0,1.14.49,1.19,1.08.36,4.25.53,6.37.89,10.62.05.6-.41,1.08-1.02,1.08Z"/>
    <path d="M1111.9,853.6h-32.25c-.61,0-1.15-.49-1.21-1.08-.39-4.25-.59-6.37-.98-10.62-.06-.6.39-1.08,1-1.08h31.93c.61,0,1.15.49,1.23,1.08.51,4.25.76,6.37,1.26,10.62.07.6-.37,1.08-.98,1.08Z"/>
    <path d="M1022.03,853.6h-32.25c-.61,0-1.12-.49-1.13-1.08-.09-4.25-.14-6.37-.23-10.62-.01-.6.47-1.08,1.07-1.08h31.93c.61,0,1.12.49,1.15,1.08.21,4.25.31,6.37.52,10.62.03.6-.44,1.08-1.06,1.08Z"/>
  </g>
  <g>
    <path d="M635.85,881.55h-42.49c-.75,0-1.22-.61-1.04-1.36,1.17-4.92,1.76-7.39,2.94-12.31.18-.75.93-1.36,1.67-1.36h42.08c.75,0,1.22.61,1.07,1.36-1.03,4.92-1.55,7.39-2.58,12.31-.16.75-.89,1.36-1.65,1.36Z"/>
    <path d="M837.95,881.55h-56.97c-.87,0-1.49-.7-1.39-1.56.56-4.76.84-7.14,1.39-11.89.1-.86.88-1.56,1.74-1.56h56.42c.86,0,1.5.7,1.44,1.56-.37,4.76-.56,7.14-.93,11.89-.07.86-.83,1.56-1.69,1.56Z"/>
    <path d="M1083.02,868.24c.38,4.76.58,7.14.96,11.9.06.78-.47,1.41-1.2,1.41h-43.98c-.73,0-1.39-1.41-1.39-1.41,0,0-.52,1.41-1.25,1.41h-43.98c-.73,0-1.35-1.41-1.35-1.41,0,0-.56,1.41-1.29,1.41h-43.98c-.43,0-.8-.22-1.04-.55-.25.34-.62.55-1.05.55h-85.58c-.73,0-1.29-.63-1.24-1.41.32-4.76.48-7.14.8-11.9.05-.77.69-1.41,1.41-1.41,28.26,0,56.51,0,84.77,0,.43,0,.81.23,1.03.57.23-.34.62-.57,1.04-.57h43.56c.72,0,1.33,1.41,1.33,1.41,0,0,.55-1.41,1.28-1.41h43.56c.72,0,1.38,1.41,1.38,1.41,0,0,.51-1.41,1.23-1.41h43.56c.72,0,1.36.64,1.42,1.41Z"/>
    <path d="M761.04,881.55h-40.79c-.74,0-1.24-.6-1.13-1.33.77-4.94,1.16-7.42,1.93-12.36.11-.73.8-1.33,1.53-1.33h40.4c.73,0,1.25.6,1.15,1.33-.63,4.95-.95,7.42-1.58,12.36-.09.73-.77,1.33-1.51,1.33Z"/>
    <path d="M700.47,881.55h-44.83c-.77,0-1.28-.62-1.12-1.39.97-4.9,1.46-7.34,2.43-12.24.15-.77.9-1.39,1.66-1.39,14.8,0,29.6,0,44.4,0,.77,0,1.28.62,1.15,1.39-.82,4.9-1.23,7.34-2.05,12.24-.13.77-.86,1.39-1.63,1.39Z"/>
    <g>
      <path d="M1326.54,881.55h-32.94c-.55,0-1.09-.44-1.21-.99-.72-3.33-1.08-4.99-1.8-8.32-.12-.54.23-.99.77-.99,10.91,0,21.81,0,32.72,0,.54,0,1.09.44,1.22.99.79,3.33,1.19,4.99,1.99,8.32.13.54-.21.99-.76.99Z"/>
      <path d="M1238.96,881.55h-32.94c-.55,0-1.06-.44-1.15-.99-.53-3.33-.79-4.99-1.32-8.32-.09-.54.28-.99.83-.99,10.91,0,21.81,0,32.72,0,.54,0,1.07.44,1.17.99.61,3.33.91,4.99,1.51,8.32.1.54-.27.99-.81.99Z"/>
      <path d="M1280.66,870.99c-10.99,0-21.98,0-32.96,0-.47,0-.93-.39-1.02-.86-.46-2.44-.69-3.66-1.14-6.1-.09-.48.22-.86.69-.86h32.8c.47,0,.94.39,1.04.86.51,2.44.77,3.66,1.28,6.1.1.47-.2.86-.68.86Z"/>
      <path d="M1282.88,881.55h-33.2c-.48,0-.93-.38-1.02-.86-.45-2.42-.68-3.63-1.13-6.05-.09-.47.22-.86.7-.86h33.03c.47,0,.94.38,1.04.86.51,2.42.76,3.63,1.27,6.05.1.47-.21.86-.68.86Z"/>
    </g>
    <path d="M1186.81,881.55h-32.55c-.66,0-1.25-.53-1.34-1.18-.62-4.95-.93-7.42-1.55-12.37-.08-.65.38-1.18,1.03-1.18,10.75,0,21.49,0,32.24,0,.65,0,1.25.53,1.35,1.18.73,4.95,1.1,7.42,1.83,12.37.1.65-.36,1.18-1.01,1.18Z"/>
    <path d="M1134.86,881.55h-32.55c-.66,0-1.24-.53-1.3-1.18-.45-4.95-.68-7.42-1.13-12.37-.06-.65.42-1.18,1.07-1.18h32.24c.65,0,1.24.53,1.31,1.18.57,4.95.85,7.42,1.41,12.37.07.65-.4,1.18-1.05,1.18Z"/>
  </g>
  <g>
    <path class="cls-10" d="M181.79,674.38h189.7v119.2c0,28.78-23.36,52.14-52.14,52.14h-85.42c-28.78,0-52.14-23.36-52.14-52.14v-119.2h0Z"/>
    <path class="cls-10" d="M420.05,740.49c0,26.92-23.66,48.74-52.84,48.74-4.24,0-8.37-.46-12.32-1.34,23.24-5.11,40.51-24.39,40.51-47.4s-17.27-42.29-40.51-47.4c3.95-.88,8.08-1.34,12.32-1.34,29.18,0,52.84,21.82,52.84,48.74Z"/>
  </g>
  <text class="cls-3" transform="translate(206.76 716.52)"><tspan x="0" y="0">NO.</tspan></text>
  <text class="cls-1" transform="translate(234.72 786.54)"><tspan x="0" y="0">1</tspan></text>
  <text class="cls-3" transform="translate(229.27 810.93)"><tspan x="0" y="0">EMP</tspan><tspan class="cls-17" x="38.03" y="0">L</tspan><tspan class="cls-15" x="48.16" y="0">O</tspan><tspan x="59.55" y="0">YEE</tspan></text>
  <path class="cls-13" d="M270.78,634.51c5.06-5.01,10.79-10.16,15.3-15.52,4.42-5.03,7.24-11.71,2.41-17.26-5.14-6.46-14.59-11.08-20.51-18.61-10.77-13.48-7.5-26.25.96-39.87,2.78-4.82,5.51-9.56,7.4-14.69,2.05-5.41,3-11.12,3.85-16.85"/>
  <path class="cls-13" d="M245.98,649.26c-12.7-10.81-17.58-22.32-13.43-38.83,4.48-16.62,10.71-25.25-1.21-40.73"/>
  <path class="cls-13" d="M298.78,648.65c11.82-9.3,23.74-20.87,25.49-36.56,1.13-8.29-.91-16.95-1.39-25.32-.32-4.92-.15-9.84.1-14.76"/>
  <rect class="cls-8" x="1535.1" y="853.66" width="308.36" height="381.21" transform="translate(508.77 -552.78) rotate(21.81)"/>
  <g>
    <path d="M1670.91,865.08l9.59,3.84,5.16,23.39,7.36-18.38,9.68,3.87-13.29,33.23-9.68-3.87-5.14-23.22-7.3,18.25-9.66-3.86,13.29-33.23Z"/>
    <path d="M1701.56,896.65c2.17-5.42,5.37-9.04,9.6-10.86s9.04-1.64,14.44.52c5.53,2.21,9.2,5.4,11,9.57,1.8,4.17,1.64,8.92-.5,14.27-1.55,3.88-3.48,6.81-5.78,8.77-2.3,1.96-4.97,3.14-7.99,3.54-3.02.39-6.38-.15-10.07-1.62s-6.61-3.34-8.59-5.51c-1.98-2.18-3.21-4.86-3.71-8.06-.49-3.19.04-6.73,1.59-10.62ZM1711.81,900.8c-1.34,3.35-1.68,6.02-1.02,7.98.66,1.97,2.06,3.38,4.21,4.23s4.2.85,5.98-.1c1.78-.95,3.42-3.29,4.91-7,1.25-3.13,1.53-5.67.85-7.61-.68-1.95-2.11-3.36-4.27-4.22s-4.03-.76-5.87.2c-1.84.96-3.44,3.14-4.79,6.52Z"/>
    <path d="M1744.64,894.59l31.21,12.49-3.28,8.21-10.47-4.19-10.01,25.02-10.27-4.11,10.01-25.02-10.47-4.19,3.28-8.21Z"/>
    <path d="M1780.48,908.92l27.52,11.01-2.84,7.09-17.23-6.89-2.11,5.28,15.98,6.39-2.71,6.78-15.98-6.39-2.62,6.55,17.73,7.09-3.01,7.53-28.02-11.21,13.29-33.23Z"/>
    <path d="M1803.34,943.87l10.01,3.3c-.42,1.67-.48,3.05-.16,4.14.52,1.77,1.76,3.05,3.73,3.83,1.47.59,2.73.69,3.8.32,1.07-.37,1.78-1.01,2.15-1.92s.27-1.78-.21-2.77c-.48-.98-1.98-2.33-4.49-4.03-4.1-2.81-6.77-5.44-8.02-7.89-1.26-2.45-1.37-4.98-.33-7.58.68-1.71,1.82-3.12,3.42-4.25,1.6-1.12,3.56-1.72,5.9-1.8,2.33-.07,5.23.58,8.69,1.97,4.25,1.7,7.17,3.78,8.77,6.26,1.6,2.47,1.92,5.51.96,9.13l-9.91-3.31c.34-1.6.24-2.9-.32-3.91-.55-1.01-1.55-1.8-3-2.38-1.19-.48-2.19-.58-3-.32-.81.26-1.36.76-1.65,1.48-.21.53-.15,1.11.18,1.73.31.63,1.29,1.5,2.96,2.6,4.1,2.76,6.92,5.03,8.47,6.79,1.55,1.77,2.47,3.56,2.76,5.38.3,1.82.08,3.64-.64,5.45-.85,2.13-2.23,3.86-4.13,5.19-1.9,1.33-4.09,2.03-6.58,2.11-2.49.08-5.34-.52-8.56-1.81-5.65-2.26-9.13-4.92-10.44-7.96s-1.43-6.31-.38-9.77Z"/>
  </g>
  <rect x="1572.92" y="866.91" width="9.78" height="185.86" transform="translate(-246.89 674.8) rotate(-22.43)"/>
  <circle class="cls-6" cx="960" cy="161.99" r="146.83"/>
  <text class="cls-2" transform="translate(940.79 56.62)"><tspan x="0" y="0">12</tspan></text>
  <text class="cls-2" transform="translate(948.91 291.43)"><tspan x="0" y="0">6</tspan></text>
  <text class="cls-2" transform="translate(1073.51 170.77)"><tspan x="0" y="0">3</tspan></text>
  <text class="cls-2" transform="translate(828.11 170.77)"><tspan x="0" y="0">9</tspan></text>
  <text class="cls-2" transform="translate(1016.31 74.52)"><tspan x="0" y="0">1</tspan></text>
  <text class="cls-2" transform="translate(1054.96 113.96)"><tspan x="0" y="0">2</tspan></text>
  <text class="cls-2" transform="translate(1060.93 222.54)"><tspan x="0" y="0">4</tspan></text>
  <text class="cls-2" transform="translate(1016.31 273.53)"><tspan x="0" y="0">5</tspan></text>
  <text class="cls-2" transform="translate(875.84 74.52)"><tspan x="0" y="0">11</tspan></text>
  <text class="cls-2" transform="translate(840.59 120.23)"><tspan x="0" y="0">10</tspan></text>
  <text class="cls-2" transform="translate(892.67 273.53)"><tspan x="0" y="0">7</tspan></text>
  <text class="cls-2" transform="translate(845.78 227.59)"><tspan x="0" y="0">8</tspan></text>
  <circle cx="960" cy="161.99" r="3.3"/>
  <g>
    <line class="cls-9" x1="960" y1="161.99" x2="873.49" y2="161.99"/>
    <path d="M855.39,161.99c8.52-3.16,19.09-8.55,25.64-14.27l-5.16,14.27,5.16,14.26c-6.55-5.71-17.12-11.11-25.64-14.26Z"/>
  </g>
  <g>
    <line class="cls-9" x1="960" y1="165.29" x2="918.13" y2="188.37"/>
    <path d="M902.27,197.11c5.94-6.88,12.59-16.71,15.57-24.87l2.37,14.99,11.41,10c-8.5-1.84-20.36-1.46-29.34-.11Z"/>
  </g>
  <rect class="cls-5" x="120.95" y="875.27" width="121.68" height="121.68"/>
  <g>
    <path d="M142.52,900.58v-10.02h5.16c.96,0,1.69.08,2.19.25s.91.47,1.22.91c.31.45.46.99.46,1.62,0,.56-.12,1.04-.36,1.44-.24.4-.56.73-.98.98-.26.16-.63.29-1.09.4.37.12.64.25.81.37.11.08.28.26.5.53.22.27.36.48.43.62l1.5,2.9h-3.5l-1.66-3.06c-.21-.4-.4-.65-.56-.77-.22-.16-.48-.23-.76-.23h-.27v4.07h-3.11ZM145.63,894.62h1.31c.14,0,.41-.05.82-.14.21-.04.37-.15.5-.31s.19-.36.19-.58c0-.32-.1-.57-.31-.75s-.59-.26-1.16-.26h-1.36v2.04Z"/>
    <path d="M160.89,897.64h-5.58c.05.45.17.78.36,1,.27.31.62.47,1.05.47.27,0,.53-.07.78-.21.15-.09.31-.24.49-.46l2.74.25c-.42.73-.93,1.25-1.52,1.57-.59.32-1.44.47-2.55.47-.96,0-1.72-.14-2.27-.41-.55-.27-1.01-.7-1.37-1.29-.36-.59-.54-1.28-.54-2.08,0-1.13.36-2.05,1.09-2.75s1.73-1.05,3.01-1.05c1.04,0,1.86.16,2.46.47s1.06.77,1.37,1.37.47,1.37.47,2.33v.31ZM158.06,896.31c-.05-.54-.2-.92-.43-1.16s-.54-.35-.93-.35c-.44,0-.8.18-1.06.53-.17.22-.28.54-.32.98h2.74Z"/>
    <path d="M162.19,893.32h2.6v1.06c.37-.44.75-.76,1.13-.94.38-.19.84-.28,1.38-.28.58,0,1.04.1,1.38.31.34.21.61.51.83.92.44-.47.83-.8,1.19-.97.36-.17.8-.26,1.33-.26.78,0,1.39.23,1.82.69.44.46.66,1.19.66,2.17v4.56h-2.79v-4.14c0-.33-.06-.57-.19-.73-.19-.25-.42-.38-.69-.38-.33,0-.59.12-.79.36s-.3.62-.3,1.14v3.75h-2.79v-4c0-.32-.02-.54-.05-.65-.06-.18-.16-.33-.31-.44-.15-.11-.32-.17-.51-.17-.32,0-.58.12-.79.36-.21.24-.31.64-.31,1.19v3.71h-2.79v-7.26Z"/>
    <path d="M184.23,897.64h-5.58c.05.45.17.78.36,1,.27.31.62.47,1.05.47.27,0,.53-.07.78-.21.15-.09.31-.24.49-.46l2.74.25c-.42.73-.93,1.25-1.52,1.57-.59.32-1.44.47-2.55.47-.96,0-1.72-.14-2.27-.41-.55-.27-1.01-.7-1.37-1.29-.36-.59-.54-1.28-.54-2.08,0-1.13.36-2.05,1.09-2.75s1.73-1.05,3.01-1.05c1.04,0,1.86.16,2.46.47s1.06.77,1.37,1.37.47,1.37.47,2.33v.31ZM181.4,896.31c-.05-.54-.2-.92-.43-1.16s-.54-.35-.93-.35c-.44,0-.8.18-1.06.53-.17.22-.28.54-.32.98h2.74Z"/>
    <path d="M185.53,893.32h2.6v1.06c.37-.44.75-.76,1.13-.94.38-.19.84-.28,1.38-.28.58,0,1.04.1,1.38.31.34.21.61.51.83.92.44-.47.83-.8,1.19-.97.36-.17.8-.26,1.33-.26.78,0,1.39.23,1.82.69.44.46.66,1.19.66,2.17v4.56h-2.79v-4.14c0-.33-.06-.57-.19-.73-.19-.25-.42-.38-.69-.38-.33,0-.59.12-.79.36s-.3.62-.3,1.14v3.75h-2.79v-4c0-.32-.02-.54-.05-.65-.06-.18-.16-.33-.31-.44-.15-.11-.32-.17-.51-.17-.32,0-.58.12-.79.36-.21.24-.31.64-.31,1.19v3.71h-2.79v-7.26Z"/>
    <path d="M199.52,890.56h2.81v3.47c.28-.29.59-.51.95-.66s.74-.22,1.17-.22c.88,0,1.62.32,2.19.95.58.64.87,1.55.87,2.74,0,.79-.13,1.49-.4,2.1-.26.6-.63,1.05-1.1,1.35-.47.3-.99.45-1.56.45-.49,0-.93-.1-1.34-.31-.31-.16-.64-.47-1-.92v1.07h-2.6v-10.02ZM202.31,896.93c0,.62.12,1.08.35,1.36.23.28.53.42.89.42.33,0,.61-.14.84-.41.23-.28.34-.74.34-1.39,0-.57-.11-1-.33-1.26s-.49-.4-.8-.4c-.38,0-.69.14-.93.42-.24.28-.36.71-.36,1.28Z"/>
    <path d="M216.9,897.64h-5.58c.05.45.17.78.36,1,.27.31.62.47,1.05.47.27,0,.53-.07.78-.21.15-.09.31-.24.49-.46l2.74.25c-.42.73-.93,1.25-1.52,1.57-.59.32-1.44.47-2.55.47-.96,0-1.72-.14-2.27-.41-.55-.27-1.01-.7-1.37-1.29-.36-.59-.54-1.28-.54-2.08,0-1.13.36-2.05,1.09-2.75s1.73-1.05,3.01-1.05c1.04,0,1.86.16,2.46.47s1.06.77,1.37,1.37.47,1.37.47,2.33v.31ZM214.07,896.31c-.05-.54-.2-.92-.43-1.16s-.54-.35-.93-.35c-.44,0-.8.18-1.06.53-.17.22-.28.54-.32.98h2.74Z"/>
    <path d="M218.21,893.32h2.6v1.19c.25-.51.51-.87.78-1.06.27-.19.6-.29.99-.29s.86.13,1.35.38l-.86,1.98c-.33-.14-.59-.21-.78-.21-.36,0-.65.15-.85.45-.29.42-.43,1.22-.43,2.38v2.43h-2.8v-7.26Z"/>
    <path d="M141.76,912.65h4.05v2.15h-4.05v-2.15Z"/>
    <path d="M165.7,914.54l2.65.3c-.15.55-.39,1.03-.72,1.43-.33.4-.76.72-1.27.94s-1.17.33-1.97.33-1.41-.07-1.92-.21c-.51-.14-.95-.38-1.32-.7-.37-.32-.66-.7-.87-1.13s-.31-1.01-.31-1.72.13-1.37.38-1.86c.19-.36.44-.69.77-.98s.66-.5,1-.65c.54-.22,1.24-.33,2.08-.33,1.19,0,2.09.21,2.71.64s1.06,1.04,1.31,1.86l-2.62.35c-.08-.31-.23-.54-.45-.7-.22-.16-.51-.24-.87-.24-.46,0-.83.17-1.12.5-.28.33-.43.83-.43,1.5,0,.6.14,1.05.42,1.36s.64.46,1.08.46c.36,0,.67-.09.92-.28s.43-.47.56-.86Z"/>
    <path d="M172.16,912.47l-2.66-.28c.1-.46.25-.83.43-1.1.19-.27.46-.5.82-.69.26-.14.61-.25,1.05-.33s.93-.12,1.45-.12c.83,0,1.5.05,2.01.14.51.09.93.29,1.26.58.24.21.42.5.56.87.14.38.21.74.21,1.08v3.21c0,.34.02.61.06.8.04.19.14.44.28.74h-2.61c-.1-.19-.17-.33-.21-.43-.03-.1-.06-.25-.1-.46-.36.35-.73.6-1.09.75-.49.2-1.06.3-1.72.3-.87,0-1.52-.2-1.97-.6s-.67-.9-.67-1.48c0-.55.16-1,.49-1.36s.92-.62,1.79-.79c1.04-.21,1.72-.36,2.03-.44.31-.08.64-.19.98-.33,0-.34-.07-.58-.21-.72s-.39-.21-.75-.21c-.46,0-.8.07-1.03.22-.18.11-.32.33-.43.64ZM174.58,913.94c-.38.14-.78.26-1.2.36-.56.15-.92.3-1.07.44-.15.15-.23.32-.23.51,0,.22.08.4.23.54.15.14.38.21.67.21s.6-.08.86-.23.46-.33.57-.55c.11-.22.17-.5.17-.84v-.44Z"/>
    <path d="M179.06,907.36h2.79v10.02h-2.79v-10.02Z"/>
    <path d="M183.72,907.36h2.79v10.02h-2.79v-10.02Z"/>
    <path d="M192.97,907.36h2.81v3.47c.28-.29.59-.51.95-.66s.74-.22,1.17-.22c.88,0,1.62.32,2.19.95.58.64.87,1.55.87,2.74,0,.79-.13,1.49-.4,2.1-.26.6-.63,1.05-1.1,1.35-.47.3-.99.45-1.56.45-.49,0-.93-.1-1.34-.31-.31-.16-.64-.47-1-.92v1.07h-2.6v-10.02ZM195.76,913.73c0,.62.12,1.08.35,1.36.23.28.53.42.89.42.33,0,.61-.14.84-.41.23-.28.34-.74.34-1.39,0-.57-.11-1-.33-1.26s-.49-.4-.8-.4c-.38,0-.69.14-.93.42-.24.28-.36.71-.36,1.28Z"/>
    <path d="M204.83,912.47l-2.66-.28c.1-.46.25-.83.43-1.1.19-.27.46-.5.82-.69.26-.14.61-.25,1.05-.33s.93-.12,1.45-.12c.83,0,1.5.05,2.01.14.51.09.93.29,1.26.58.24.21.42.5.56.87.14.38.21.74.21,1.08v3.21c0,.34.02.61.06.8.04.19.14.44.28.74h-2.61c-.1-.19-.17-.33-.21-.43-.03-.1-.06-.25-.1-.46-.36.35-.73.6-1.09.75-.49.2-1.06.3-1.72.3-.87,0-1.52-.2-1.97-.6s-.67-.9-.67-1.48c0-.55.16-1,.49-1.36s.92-.62,1.79-.79c1.04-.21,1.72-.36,2.03-.44.31-.08.64-.19.98-.33,0-.34-.07-.58-.21-.72s-.39-.21-.75-.21c-.46,0-.8.07-1.03.22-.18.11-.32.33-.43.64ZM207.25,913.94c-.38.14-.78.26-1.2.36-.56.15-.92.3-1.07.44-.15.15-.23.32-.23.51,0,.22.08.4.23.54.15.14.38.21.67.21s.6-.08.86-.23.46-.33.57-.55c.11-.22.17-.5.17-.84v-.44Z"/>
    <path d="M217.05,914.54l2.65.3c-.15.55-.39,1.03-.72,1.43-.33.4-.76.72-1.27.94s-1.17.33-1.97.33-1.41-.07-1.92-.21c-.51-.14-.95-.38-1.32-.7-.37-.32-.66-.7-.87-1.13s-.31-1.01-.31-1.72.13-1.37.38-1.86c.19-.36.44-.69.77-.98s.66-.5,1-.65c.54-.22,1.24-.33,2.08-.33,1.19,0,2.09.21,2.71.64s1.06,1.04,1.31,1.86l-2.62.35c-.08-.31-.23-.54-.45-.7-.22-.16-.51-.24-.87-.24-.46,0-.83.17-1.12.5-.28.33-.43.83-.43,1.5,0,.6.14,1.05.42,1.36s.64.46,1.08.46c.36,0,.67-.09.92-.28s.43-.47.56-.86Z"/>
    <path d="M220.73,907.36h2.84v5.17l2.08-2.41h3.42l-2.6,2.54,2.75,4.72h-3.13l-1.47-2.91-1.05,1.02v1.89h-2.84v-10.02Z"/>
    <path d="M159.67,926.92h3.3l1.15,2.02,1.34-2.02h3.07l-2.48,3.46,2.65,3.8h-3.25l-1.34-2.34-1.58,2.34h-3.01l2.64-3.8-2.5-3.46Z"/>
    <path d="M169.01,926.92h3.3l1.15,2.02,1.34-2.02h3.07l-2.48,3.46,2.65,3.8h-3.25l-1.34-2.34-1.58,2.34h-3.01l2.64-3.8-2.5-3.46Z"/>
    <path d="M178.34,926.92h3.3l1.15,2.02,1.34-2.02h3.07l-2.48,3.46,2.65,3.8h-3.25l-1.34-2.34-1.58,2.34h-3.01l2.64-3.8-2.5-3.46Z"/>
    <path d="M192.35,926.92h3.3l1.15,2.02,1.34-2.02h3.07l-2.48,3.46,2.65,3.8h-3.25l-1.34-2.34-1.58,2.34h-3.01l2.64-3.8-2.5-3.46Z"/>
    <path d="M201.69,926.92h3.3l1.15,2.02,1.34-2.02h3.07l-2.48,3.46,2.65,3.8h-3.25l-1.34-2.34-1.58,2.34h-3.01l2.64-3.8-2.5-3.46Z"/>
    <path d="M211.03,926.92h3.3l1.15,2.02,1.34-2.02h3.07l-2.48,3.46,2.65,3.8h-3.25l-1.34-2.34-1.58,2.34h-3.01l2.64-3.8-2.5-3.46Z"/>
    <path d="M141.76,963.05h4.05v2.15h-4.05v-2.15Z"/>
    <path d="M160.52,957.76h4.6c.91,0,1.64.12,2.2.37s1.02.6,1.38,1.06c.36.46.63,1,.79,1.61s.25,1.26.25,1.94c0,1.07-.12,1.9-.37,2.49-.24.59-.58,1.08-1.02,1.48-.43.4-.9.67-1.39.8-.68.18-1.29.27-1.85.27h-4.6v-10.02ZM163.61,960.03v5.48h.76c.65,0,1.11-.07,1.38-.22.27-.14.49-.39.64-.75.15-.36.23-.94.23-1.74,0-1.06-.17-1.79-.52-2.18s-.92-.59-1.72-.59h-.77Z"/>
    <path d="M179.24,964.84h-5.58c.05.45.17.78.36,1,.27.31.62.47,1.05.47.27,0,.53-.07.78-.21.15-.09.31-.24.49-.46l2.74.25c-.42.73-.93,1.25-1.52,1.57-.59.32-1.44.47-2.55.47-.96,0-1.72-.14-2.27-.41-.55-.27-1.01-.7-1.37-1.29-.36-.59-.54-1.28-.54-2.08,0-1.13.36-2.05,1.09-2.75s1.73-1.05,3.01-1.05c1.04,0,1.86.16,2.46.47s1.06.77,1.37,1.37.47,1.37.47,2.33v.31ZM176.41,963.51c-.05-.54-.2-.92-.43-1.16s-.54-.35-.93-.35c-.44,0-.8.18-1.06.53-.17.22-.28.54-.32.98h2.74Z"/>
    <path d="M183.05,962.87l-2.66-.28c.1-.46.25-.83.43-1.1.19-.27.46-.5.82-.69.26-.14.61-.25,1.05-.33s.93-.12,1.45-.12c.83,0,1.5.05,2.01.14.51.09.93.29,1.26.58.24.21.42.5.56.87.14.38.21.74.21,1.08v3.21c0,.34.02.61.06.8.04.19.14.44.28.74h-2.61c-.1-.19-.17-.33-.21-.43-.03-.1-.06-.25-.1-.46-.36.35-.73.6-1.09.75-.49.2-1.06.3-1.72.3-.87,0-1.52-.2-1.97-.6s-.67-.9-.67-1.48c0-.55.16-1,.49-1.36s.92-.62,1.79-.79c1.04-.21,1.72-.36,2.03-.44.31-.08.64-.19.98-.33,0-.34-.07-.58-.21-.72s-.39-.21-.75-.21c-.46,0-.8.07-1.03.22-.18.11-.32.33-.43.64ZM185.47,964.33c-.38.14-.78.26-1.2.36-.56.15-.92.3-1.07.44-.15.15-.23.32-.23.51,0,.22.08.4.23.54.15.14.38.21.67.21s.6-.08.86-.23.46-.33.57-.55c.11-.22.17-.5.17-.84v-.44Z"/>
    <path d="M197.5,957.76v10.02h-2.6v-1.07c-.36.46-.7.76-1,.92-.4.21-.85.31-1.34.31-.99,0-1.74-.38-2.27-1.13s-.78-1.67-.78-2.74c0-1.2.29-2.12.86-2.76s1.31-.96,2.2-.96c.43,0,.83.07,1.18.22s.67.36.94.66v-3.47h2.81ZM194.71,964.13c0-.57-.12-.99-.36-1.28-.24-.28-.55-.42-.92-.42-.32,0-.59.13-.81.4s-.33.72-.33,1.35c0,.59.11,1.03.34,1.3.23.28.5.41.84.41.36,0,.65-.14.89-.42s.36-.73.36-1.36Z"/>
    <path d="M199.29,957.76h2.79v10.02h-2.79v-10.02Z"/>
    <path d="M203.96,957.76h2.78v1.89h-2.78v-1.89ZM203.96,960.52h2.78v7.26h-2.78v-7.26Z"/>
    <path d="M208.52,960.52h2.59v1.18c.39-.48.78-.83,1.18-1.04.4-.21.88-.31,1.45-.31.77,0,1.37.23,1.81.69.44.46.65,1.17.65,2.12v4.61h-2.8v-3.99c0-.46-.08-.78-.25-.97-.17-.19-.41-.28-.71-.28-.34,0-.61.13-.82.38s-.31.71-.31,1.37v3.49h-2.78v-7.26Z"/>
    <path d="M225.91,964.84h-5.58c.05.45.17.78.36,1,.27.31.62.47,1.05.47.27,0,.53-.07.78-.21.15-.09.31-.24.49-.46l2.74.25c-.42.73-.93,1.25-1.52,1.57-.59.32-1.44.47-2.55.47-.96,0-1.72-.14-2.27-.41-.55-.27-1.01-.7-1.37-1.29-.36-.59-.54-1.28-.54-2.08,0-1.13.36-2.05,1.09-2.75s1.73-1.05,3.01-1.05c1.04,0,1.86.16,2.46.47s1.06.77,1.37,1.37.47,1.37.47,2.33v.31ZM223.08,963.51c-.05-.54-.2-.92-.43-1.16s-.54-.35-.93-.35c-.44,0-.8.18-1.06.53-.17.22-.28.54-.32.98h2.74Z"/>
  </g>
  <rect class="cls-12" x="214.62" y="915.35" width="121.68" height="121.68"/>
  <g>
    <path d="M236.43,930.09h9.41v2.47h-3.16v7.55h-3.1v-7.55h-3.16v-2.47Z"/>
    <path d="M246.38,935.11c0-1.64.46-2.91,1.37-3.82s2.18-1.37,3.81-1.37,2.95.45,3.86,1.34c.9.9,1.35,2.15,1.35,3.76,0,1.17-.2,2.13-.59,2.88-.39.75-.96,1.33-1.71,1.75-.75.42-1.67.63-2.79.63s-2.07-.18-2.81-.54-1.34-.93-1.8-1.71-.69-1.75-.69-2.93ZM249.48,935.12c0,1.01.19,1.74.56,2.18s.89.66,1.53.66,1.18-.22,1.54-.65.55-1.21.55-2.33c0-.94-.19-1.63-.57-2.07-.38-.43-.9-.65-1.55-.65s-1.13.22-1.5.66-.57,1.17-.57,2.19Z"/>
    <path d="M263.14,930.09h4.6c.91,0,1.64.12,2.2.37s1.02.6,1.38,1.06.63,1,.79,1.61.25,1.26.25,1.94c0,1.07-.12,1.9-.37,2.49-.24.59-.58,1.08-1.02,1.48-.43.4-.9.67-1.39.8-.68.18-1.29.27-1.85.27h-4.6v-10.02ZM266.24,932.36v5.48h.76c.65,0,1.11-.07,1.38-.22.27-.14.49-.39.64-.75.15-.36.23-.94.23-1.74,0-1.06-.17-1.79-.52-2.18s-.92-.59-1.72-.59h-.77Z"/>
    <path d="M273.6,935.11c0-1.64.46-2.91,1.37-3.82s2.18-1.37,3.81-1.37,2.95.45,3.86,1.34c.9.9,1.35,2.15,1.35,3.76,0,1.17-.2,2.13-.59,2.88-.39.75-.96,1.33-1.71,1.75-.75.42-1.67.63-2.79.63s-2.07-.18-2.81-.54-1.34-.93-1.8-1.71-.69-1.75-.69-2.93ZM276.7,935.12c0,1.01.19,1.74.56,2.18s.89.66,1.53.66,1.18-.22,1.54-.65.55-1.21.55-2.33c0-.94-.19-1.63-.57-2.07-.38-.43-.9-.65-1.55-.65s-1.13.22-1.5.66-.57,1.17-.57,2.19Z"/>
    <path d="M285.47,932.85h2.97v2.79h-2.97v-2.79ZM285.47,937.32h2.97v2.79h-2.97v-2.79Z"/>
    <path d="M242.99,963.52v10.19h-2.82v-6.68c-.46.35-.9.63-1.32.84s-.96.42-1.6.62v-2.28c.95-.31,1.68-.67,2.21-1.1s.93-.96,1.23-1.59h2.3Z"/>
    <path d="M246.3,970.92h2.97v2.79h-2.97v-2.79Z"/>
    <path d="M261.81,969.61l2.71.82c-.18.76-.47,1.4-.86,1.91s-.88.9-1.46,1.16-1.32.39-2.22.39c-1.09,0-1.98-.16-2.67-.47s-1.29-.87-1.79-1.67c-.5-.8-.75-1.82-.75-3.06,0-1.66.44-2.93,1.32-3.82.88-.89,2.13-1.34,3.74-1.34,1.26,0,2.25.25,2.98.77s1.26,1.29,1.61,2.35l-2.73.61c-.1-.31-.2-.53-.3-.67-.17-.24-.39-.42-.64-.55s-.53-.19-.84-.19c-.7,0-1.24.28-1.61.85-.28.42-.42,1.08-.42,1.97,0,1.11.17,1.87.51,2.28.34.41.81.62,1.42.62s1.04-.17,1.34-.5.52-.82.66-1.45Z"/>
    <path d="M265.64,968.71c0-1.64.46-2.91,1.37-3.82s2.18-1.37,3.81-1.37,2.95.45,3.86,1.34c.9.9,1.35,2.15,1.35,3.76,0,1.17-.2,2.13-.59,2.88-.39.75-.96,1.33-1.71,1.75-.75.42-1.67.63-2.79.63s-2.07-.18-2.81-.54-1.34-.93-1.8-1.71-.69-1.75-.69-2.93ZM268.73,968.72c0,1.01.19,1.74.56,2.18s.89.66,1.53.66,1.18-.22,1.54-.65.55-1.21.55-2.33c0-.94-.19-1.63-.57-2.07-.38-.43-.9-.65-1.55-.65s-1.13.22-1.5.66-.57,1.17-.57,2.19Z"/>
    <path d="M277.7,963.69h7.66v2.15h-4.55v1.75h3.88v2.02h-3.88v4.09h-3.11v-10.02Z"/>
    <path d="M287.04,963.69h7.66v2.15h-4.55v1.75h3.88v2.02h-3.88v4.09h-3.11v-10.02Z"/>
    <path d="M296.36,963.69h8.3v2.14h-5.2v1.59h4.82v2.04h-4.82v1.98h5.35v2.27h-8.45v-10.02Z"/>
    <path d="M306.47,963.69h8.3v2.14h-5.2v1.59h4.82v2.04h-4.82v1.98h5.35v2.27h-8.45v-10.02Z"/>
    <path d="M244.83,990.51h-8.35c.1-.83.39-1.6.87-2.33.49-.73,1.4-1.58,2.73-2.57.82-.61,1.34-1.07,1.57-1.38s.34-.61.34-.9c0-.31-.11-.57-.34-.78-.23-.22-.51-.32-.85-.32s-.65.11-.87.33-.38.62-.45,1.18l-2.79-.23c.11-.78.31-1.4.6-1.83.29-.44.7-.78,1.23-1.01.53-.24,1.27-.35,2.2-.35s1.74.11,2.29.33.97.57,1.29,1.03c.31.46.47.98.47,1.55,0,.61-.18,1.19-.54,1.75s-1.01,1.17-1.95,1.83c-.56.39-.94.66-1.12.81s-.41.36-.67.61h4.35v2.27Z"/>
    <path d="M246.3,987.72h2.97v2.79h-2.97v-2.79Z"/>
    <path d="M261.81,986.41l2.71.82c-.18.76-.47,1.4-.86,1.91s-.88.9-1.46,1.16-1.32.39-2.22.39c-1.09,0-1.98-.16-2.67-.47s-1.29-.87-1.79-1.67c-.5-.8-.75-1.82-.75-3.06,0-1.66.44-2.93,1.32-3.82.88-.89,2.13-1.34,3.74-1.34,1.26,0,2.25.25,2.98.77s1.26,1.29,1.61,2.35l-2.73.61c-.1-.31-.2-.53-.3-.67-.17-.24-.39-.42-.64-.55s-.53-.19-.84-.19c-.7,0-1.24.28-1.61.85-.28.42-.42,1.08-.42,1.97,0,1.11.17,1.87.51,2.28.34.41.81.62,1.42.62s1.04-.17,1.34-.5.52-.82.66-1.45Z"/>
    <path d="M265.64,985.51c0-1.64.46-2.91,1.37-3.82s2.18-1.37,3.81-1.37,2.95.45,3.86,1.34c.9.9,1.35,2.15,1.35,3.76,0,1.17-.2,2.13-.59,2.88-.39.75-.96,1.33-1.71,1.75-.75.42-1.67.63-2.79.63s-2.07-.18-2.81-.54-1.34-.93-1.8-1.71-.69-1.75-.69-2.93ZM268.73,985.52c0,1.01.19,1.74.56,2.18s.89.66,1.53.66,1.18-.22,1.54-.65.55-1.21.55-2.33c0-.94-.19-1.63-.57-2.07-.38-.43-.9-.65-1.55-.65s-1.13.22-1.5.66-.57,1.17-.57,2.19Z"/>
    <path d="M277.7,980.49h7.66v2.15h-4.55v1.75h3.88v2.02h-3.88v4.09h-3.11v-10.02Z"/>
    <path d="M287.04,980.49h7.66v2.15h-4.55v1.75h3.88v2.02h-3.88v4.09h-3.11v-10.02Z"/>
    <path d="M296.36,980.49h8.3v2.14h-5.2v1.59h4.82v2.04h-4.82v1.98h5.35v2.27h-8.45v-10.02Z"/>
    <path d="M306.47,980.49h8.3v2.14h-5.2v1.59h4.82v2.04h-4.82v1.98h5.35v2.27h-8.45v-10.02Z"/>
    <path d="M239.39,1000.19l-2.63-.47c.22-.84.64-1.48,1.26-1.93s1.5-.67,2.64-.67c1.31,0,2.25.24,2.84.73s.88,1.1.88,1.84c0,.43-.12.83-.36,1.18s-.59.66-1.07.92c.39.1.68.21.89.33.33.21.59.48.78.81.18.34.28.74.28,1.2,0,.58-.15,1.14-.46,1.68-.31.54-.75.95-1.32,1.24-.57.29-1.33.43-2.26.43s-1.63-.11-2.16-.32-.96-.53-1.3-.94c-.34-.41-.6-.93-.78-1.56l2.78-.37c.11.56.28.95.51,1.17.23.22.52.33.88.33.37,0,.68-.14.93-.41s.37-.64.37-1.09-.12-.83-.36-1.08-.56-.38-.97-.38c-.22,0-.52.05-.9.16l.14-1.99c.15.02.28.03.36.03.36,0,.67-.12.91-.35s.37-.51.37-.83-.09-.55-.27-.73-.43-.27-.75-.27-.59.1-.8.3c-.21.2-.34.55-.42,1.04Z"/>
    <path d="M246.3,1004.52h2.97v2.79h-2.97v-2.79Z"/>
    <path d="M261.81,1003.21l2.71.82c-.18.76-.47,1.4-.86,1.91s-.88.9-1.46,1.16-1.32.39-2.22.39c-1.09,0-1.98-.16-2.67-.47s-1.29-.87-1.79-1.67c-.5-.8-.75-1.82-.75-3.06,0-1.66.44-2.93,1.32-3.82.88-.89,2.13-1.34,3.74-1.34,1.26,0,2.25.25,2.98.77s1.26,1.29,1.61,2.35l-2.73.61c-.1-.31-.2-.53-.3-.67-.17-.24-.39-.42-.64-.55s-.53-.19-.84-.19c-.7,0-1.24.28-1.61.85-.28.42-.42,1.08-.42,1.97,0,1.11.17,1.87.51,2.28.34.41.81.62,1.42.62s1.04-.17,1.34-.5.52-.82.66-1.45Z"/>
    <path d="M265.64,1002.31c0-1.64.46-2.91,1.37-3.82s2.18-1.37,3.81-1.37,2.95.45,3.86,1.34c.9.9,1.35,2.15,1.35,3.76,0,1.17-.2,2.13-.59,2.88-.39.75-.96,1.33-1.71,1.75-.75.42-1.67.63-2.79.63s-2.07-.18-2.81-.54-1.34-.93-1.8-1.71-.69-1.75-.69-2.93ZM268.73,1002.32c0,1.01.19,1.74.56,2.18s.89.66,1.53.66,1.18-.22,1.54-.65.55-1.21.55-2.33c0-.94-.19-1.63-.57-2.07-.38-.43-.9-.65-1.55-.65s-1.13.22-1.5.66-.57,1.17-.57,2.19Z"/>
    <path d="M277.7,997.29h7.66v2.15h-4.55v1.75h3.88v2.02h-3.88v4.09h-3.11v-10.02Z"/>
    <path d="M287.04,997.29h7.66v2.15h-4.55v1.75h3.88v2.02h-3.88v4.09h-3.11v-10.02Z"/>
    <path d="M296.36,997.29h8.3v2.14h-5.2v1.59h4.82v2.04h-4.82v1.98h5.35v2.27h-8.45v-10.02Z"/>
    <path d="M306.47,997.29h8.3v2.14h-5.2v1.59h4.82v2.04h-4.82v1.98h5.35v2.27h-8.45v-10.02Z"/>
  </g>
</svg>